SplineFontDB: 3.2
FontName: AtkinsonMonolegible
FullName: Atkinson Monolegible Regular
FamilyName: Atkinson Monolegible
Weight: Book
Copyright: (c) 2020 Braille Institute of America, Inc., a 501(c)(3) Charitable Organization.
Version: 1.002
ItalicAngle: 0
UnderlinePosition: -100
UnderlineWidth: 50
Ascent: 800
Descent: 200
InvalidEm: 0
sfntRevision: 0x00010083
LayerCount: 2
Layer: 0 1 "Back" 1
Layer: 1 1 "Fore" 0
XUID: [1021 921 585097930 4971202]
StyleMap: 0x0040
FSType: 0
OS2Version: 3
OS2_WeightWidthSlopeOnly: 0
OS2_UseTypoMetrics: 0
CreationTime: 1546336848
ModificationTime: 1667009595
PfmFamily: 81
TTFWeight: 400
TTFWidth: 5
LineGap: 0
VLineGap: 0
Panose: 0 0 0 0 0 0 0 0 0 0
OS2TypoAscent: 796
OS2TypoAOffset: 0
OS2TypoDescent: -251
OS2TypoDOffset: 0
OS2TypoLinegap: 150
OS2WinAscent: 996
OS2WinAOffset: 0
OS2WinDescent: 411
OS2WinDOffset: 0
HheadAscent: 796
HheadAOffset: 0
HheadDescent: -251
HheadDOffset: 0
OS2SubXSize: 650
OS2SubYSize: 600
OS2SubXOff: 0
OS2SubYOff: 75
OS2SupXSize: 650
OS2SupYSize: 600
OS2SupXOff: 0
OS2SupYOff: 350
OS2StrikeYSize: 49
OS2StrikeYPos: 258
OS2CapHeight: 668
OS2XHeight: 496
OS2Vendor: '    '
OS2CodePages: 20000083.00000000
OS2UnicodeRanges: 00000027.00000000.00000000.00000000
Lookup: 1 0 0 "Single Substitution lookup 0" { "Single Substitution lookup 0 subtable"  } []
Lookup: 1 0 0 "'case' Case-Sensitive Forms lookup 1" { "'case' Case-Sensitive Forms lookup 1 subtable"  } ['case' ('DFLT' <'dflt' > 'grek' <'dflt' > 'latn' <'dflt' > ) ]
Lookup: 4 0 0 "'frac' Diagonal Fractions lookup 2" { "'frac' Diagonal Fractions lookup 2 subtable"  } ['frac' ('DFLT' <'dflt' > 'grek' <'dflt' > 'latn' <'dflt' > ) ]
Lookup: 6 0 0 "'ordn' Ordinals lookup 3" { "'ordn' Ordinals lookup 3 contextual 0"  "'ordn' Ordinals lookup 3 contextual 1"  } ['ordn' ('DFLT' <'dflt' > 'grek' <'dflt' > 'latn' <'dflt' > ) ]

StartChar: .notdef
Encoding: 65536 -1 0
Width: 576
GlyphClass: 1
Flags: W
LayerCount: 2
Fore
SplineSet
115 700 m 1,0,-1
 460 700 l 1,1,-1
 460 0 l 1,2,-1
 115 0 l 1,3,-1
 115 700 l 1,0,-1
438 680 m 1,4,-1
 138 680 l 1,5,-1
 287 371 l 1,6,-1
 438 680 l 1,4,-1
444 652 m 1,7,-1
 298 350 l 1,8,-1
 444 47 l 1,9,-1
 444 652 l 1,7,-1
278 350 m 1,10,-1
 132 650 l 1,11,-1
 132 49 l 1,12,-1
 278 350 l 1,10,-1
438 21 m 1,13,-1
 288 329 l 1,14,-1
 138 21 l 1,15,-1
 438 21 l 1,13,-1
EndSplineSet
Validated: 1
EndChar

StartChar: exclam
Encoding: 33 33 4
Width: 576
GlyphClass: 2
Flags: W
HStem: -12 129<249.623 324.53> 648 20G<252 324>
VStem: 236 104<0.542969 97.4043> 252 72<355.533 668> 267 43<195 335.467>
LayerCount: 2
Fore
SplineSet
236 52 m 1,0,1
 236 79 236 79 251.5 98 c 128,-1,2
 267 117 267 117 288 117 c 0,3,4
 310 117 310 117 325 98 c 128,-1,5
 340 79 340 79 340 52 c 0,6,7
 340 26 340 26 325 7 c 128,-1,8
 310 -12 310 -12 288 -12 c 0,9,10
 267 -12 267 -12 251.5 7 c 128,-1,11
 236 26 236 26 236 52 c 1,0,1
252 496 m 1,12,-1
 252 668 l 1,13,-1
 324 668 l 1,14,-1
 324 496 l 1,15,-1
 310 195 l 1,16,-1
 267 195 l 1,17,-1
 252 496 l 1,12,-1
EndSplineSet
Validated: 1
EndChar

StartChar: quotedbl
Encoding: 34 34 5
Width: 576
GlyphClass: 2
Flags: W
HStem: 447 221<209 251 324 366>
VStem: 198 179
LayerCount: 2
Fore
SplineSet
198 668 m 1,0,-1
 263 668 l 1,1,-1
 251 447 l 1,2,-1
 209 447 l 1,3,-1
 198 668 l 1,0,-1
377 668 m 1,4,-1
 366 447 l 1,5,-1
 324 447 l 1,6,-1
 312 668 l 1,7,-1
 377 668 l 1,4,-1
EndSplineSet
Validated: 1
EndChar

StartChar: numbersign
Encoding: 35 35 6
Width: 576
GlyphClass: 2
Flags: W
HStem: 0 21G<140 205.209 299 364.209> 172 81<72 159 231 317 390 477> 415 81<98 186 258 344 417 503> 648 20G<210.791 276 369.791 435>
LayerCount: 2
Fore
SplineSet
72 253 m 1,0,-1
 168 253 l 1,1,-1
 186 415 l 1,2,-1
 89 415 l 1,3,-1
 98 496 l 1,4,-1
 194 496 l 1,5,-1
 213 668 l 1,6,-1
 276 668 l 1,7,-1
 258 496 l 1,8,-1
 353 496 l 1,9,-1
 372 668 l 1,10,-1
 435 668 l 1,11,-1
 417 496 l 1,12,-1
 512 496 l 1,13,-1
 503 415 l 1,14,-1
 407 415 l 1,15,-1
 390 253 l 1,16,-1
 486 253 l 1,17,-1
 477 172 l 1,18,-1
 381 172 l 1,19,-1
 362 0 l 1,20,-1
 299 0 l 1,21,-1
 317 172 l 1,22,-1
 222 172 l 1,23,-1
 203 0 l 1,24,-1
 140 0 l 1,25,-1
 159 172 l 1,26,-1
 63 172 l 1,27,-1
 72 253 l 1,0,-1
231 253 m 1,28,-1
 327 253 l 1,29,-1
 344 415 l 1,30,-1
 248 415 l 1,31,-1
 231 253 l 1,28,-1
EndSplineSet
Validated: 1
EndChar

StartChar: dollar
Encoding: 36 36 7
Width: 576
GlyphClass: 2
Flags: W
HStem: -11 80<210.016 265 304 372.164> 600 79<205.23 265 304 356.13>
VStem: 91 75<437.406 563.31> 265 39<-87 -10.1775 69 297 398 599 676.557 742> 415 77<111.048 247.136>
LayerCount: 2
Fore
SplineSet
154 172 m 1,0,1
 181 83 181 83 265 69 c 1,2,-1
 265 308 l 1,3,-1
 236 315 l 2,4,5
 209 322 209 322 182.5 335.5 c 128,-1,6
 156 349 156 349 136 371 c 128,-1,7
 116 393 116 393 103.5 424.5 c 128,-1,8
 91 456 91 456 91 498 c 0,9,10
 91 542 91 542 106.5 575 c 128,-1,11
 122 608 122 608 147 630 c 128,-1,12
 172 652 172 652 203 664 c 128,-1,13
 234 676 234 676 265 679 c 1,14,-1
 265 742 l 1,15,-1
 304 742 l 1,16,-1
 304 679 l 1,17,18
 357 674 357 674 400.5 644.5 c 128,-1,19
 444 615 444 615 467 555 c 1,20,-1
 399 530 l 1,21,22
 383 562 383 562 357.5 578 c 128,-1,23
 332 594 332 594 304 599 c 1,24,-1
 304 386 l 1,25,-1
 314 383 l 2,26,27
 344 373 344 373 375.5 360.5 c 128,-1,28
 407 348 407 348 432.5 326.5 c 128,-1,29
 458 305 458 305 475 272 c 128,-1,30
 492 239 492 239 492 188 c 0,31,32
 492 141 492 141 476.5 105 c 128,-1,33
 461 69 461 69 435 43.5 c 128,-1,34
 409 18 409 18 375 4 c 128,-1,35
 341 -10 341 -10 304 -12 c 1,36,-1
 304 -87 l 1,37,-1
 265 -87 l 1,38,-1
 265 -11 l 1,39,40
 196 -3 196 -3 150.5 38 c 128,-1,41
 105 79 105 79 85 146 c 1,42,-1
 154 172 l 1,0,1
304 68 m 1,43,44
 357 72 357 72 386 102.5 c 128,-1,45
 415 133 415 133 415 180 c 0,46,47
 415 206 415 206 406.5 225 c 128,-1,48
 398 244 398 244 383.5 257.5 c 128,-1,49
 369 271 369 271 349 280.5 c 128,-1,50
 329 290 329 290 304 297 c 1,51,-1
 304 68 l 1,43,44
253 401 m 1,52,-1
 265 398 l 1,53,-1
 265 600 l 1,54,55
 250 598 250 598 232.5 592 c 128,-1,56
 215 586 215 586 200 574.5 c 128,-1,57
 185 563 185 563 175.5 545.5 c 128,-1,58
 166 528 166 528 166 503 c 0,59,60
 166 458 166 458 191 434 c 128,-1,61
 216 410 216 410 253 401 c 1,52,-1
EndSplineSet
Validated: 1
EndChar

StartChar: percent
Encoding: 37 37 8
Width: 576
GlyphClass: 2
Flags: W
HStem: -12 74<415.24 506.062> 0 21G<92 163.91> 277 75<415.058 506.609> 317 74<70.4558 161.108> 606 74<69.718 161.108> 648 20G<413.09 485>
VStem: -13 52<423.888 573.341> 192 52<424.628 572.372> 332 53<94.4546 245.294> 537 52<94.9241 244.332>
LayerCount: 2
Fore
SplineSet
332 170 m 129,-1,1
 332 208 332 208 342 241 c 128,-1,2
 352 274 352 274 370 298.5 c 128,-1,3
 388 323 388 323 411 337.5 c 128,-1,4
 434 352 434 352 461 352 c 256,5,6
 488 352 488 352 511 337.5 c 128,-1,7
 534 323 534 323 551.5 298.5 c 128,-1,8
 569 274 569 274 579 241 c 128,-1,9
 589 208 589 208 589 170 c 256,10,11
 589 132 589 132 579 99 c 128,-1,12
 569 66 569 66 551.5 41 c 128,-1,13
 534 16 534 16 511 2 c 128,-1,14
 488 -12 488 -12 461 -12 c 256,15,16
 434 -12 434 -12 411 2 c 128,-1,17
 388 16 388 16 370 41 c 128,-1,18
 352 66 352 66 342 99 c 128,-1,0
 332 132 332 132 332 170 c 129,-1,1
116 680 m 129,-1,20
 143 680 143 680 166 666 c 128,-1,21
 189 652 189 652 206.5 627 c 128,-1,22
 224 602 224 602 234 569 c 128,-1,23
 244 536 244 536 244 498 c 0,24,25
 244 461 244 461 234 428 c 128,-1,26
 224 395 224 395 206.5 370 c 128,-1,27
 189 345 189 345 166 331 c 128,-1,28
 143 317 143 317 116 317 c 256,29,30
 89 317 89 317 65.5 331 c 128,-1,31
 42 345 42 345 24.5 370 c 128,-1,32
 7 395 7 395 -3 428 c 128,-1,33
 -13 461 -13 461 -13 498 c 0,34,35
 -13 536 -13 536 -3 569 c 128,-1,36
 7 602 7 602 24.5 627 c 128,-1,37
 42 652 42 652 65.5 666 c 128,-1,19
 89 680 89 680 116 680 c 129,-1,20
39 498 m 1,38,39
 39 476 39 476 45 456.5 c 128,-1,40
 51 437 51 437 62 422.5 c 128,-1,41
 73 408 73 408 86.5 399.5 c 128,-1,42
 100 391 100 391 116 391 c 0,43,44
 131 391 131 391 145 399.5 c 128,-1,45
 159 408 159 408 169 422.5 c 128,-1,46
 179 437 179 437 185.5 456.5 c 128,-1,47
 192 476 192 476 192 498 c 0,48,49
 192 521 192 521 185.5 540.5 c 128,-1,50
 179 560 179 560 169 574.5 c 128,-1,51
 159 589 159 589 145 597.5 c 128,-1,52
 131 606 131 606 116 606 c 0,53,54
 100 606 100 606 86 597.5 c 128,-1,55
 72 589 72 589 61.5 574.5 c 128,-1,56
 51 560 51 560 45 540.5 c 128,-1,57
 39 521 39 521 39 498 c 1,38,39
385 170 m 129,-1,59
 385 148 385 148 391 128.5 c 128,-1,60
 397 109 397 109 407 94 c 128,-1,61
 417 79 417 79 431.5 70.5 c 128,-1,62
 446 62 446 62 461 62 c 0,63,64
 477 62 477 62 490.5 70.5 c 128,-1,65
 504 79 504 79 514.5 94 c 128,-1,66
 525 109 525 109 531 128.5 c 128,-1,67
 537 148 537 148 537 170 c 256,68,69
 537 192 537 192 531 211.5 c 128,-1,70
 525 231 525 231 514.5 245.5 c 128,-1,71
 504 260 504 260 490.5 268.5 c 128,-1,72
 477 277 477 277 461 277 c 0,73,74
 446 277 446 277 431.5 268.5 c 128,-1,75
 417 260 417 260 407 245.5 c 128,-1,76
 397 231 397 231 391 211.5 c 128,-1,58
 385 192 385 192 385 170 c 129,-1,59
92 0 m 1,77,-1
 423 668 l 1,78,-1
 485 668 l 1,79,-1
 154 0 l 1,80,-1
 92 0 l 1,77,-1
EndSplineSet
Validated: 1
EndChar

StartChar: ampersand
Encoding: 38 38 9
Width: 576
GlyphClass: 2
Flags: W
HStem: -12 74<159.509 295.218> 0 21G<443.747 549> 606 74<209.636 312.618>
VStem: 48 69<107.319 270.437> 122 69<467.59 589.522> 331 62<463.861 589.185> 416 67<233.481 361>
LayerCount: 2
Fore
SplineSet
178 387 m 1,0,1
 152 425 152 425 137 462 c 128,-1,2
 122 499 122 499 122 538 c 0,3,4
 122 571 122 571 132.5 597 c 128,-1,5
 143 623 143 623 161 641.5 c 128,-1,6
 179 660 179 660 204.5 670 c 128,-1,7
 230 680 230 680 261 680 c 0,8,9
 284 680 284 680 308 672.5 c 128,-1,10
 332 665 332 665 351 648.5 c 128,-1,11
 370 632 370 632 381.5 604.5 c 128,-1,12
 393 577 393 577 393 536 c 0,13,14
 393 473 393 473 363.5 431 c 128,-1,15
 334 389 334 389 287 363 c 1,16,-1
 390 219 l 1,17,18
 400 250 400 250 407 285 c 128,-1,19
 414 320 414 320 416 361 c 1,20,-1
 483 361 l 1,21,22
 479 307 479 307 467.5 254.5 c 128,-1,23
 456 202 456 202 435 157 c 1,24,-1
 549 0 l 1,25,-1
 458 0 l 1,26,-1
 396 87 l 1,27,28
 362 41 362 41 318 14.5 c 128,-1,29
 274 -12 274 -12 220 -12 c 0,30,31
 180 -12 180 -12 148.5 3 c 128,-1,32
 117 18 117 18 94.5 44.5 c 128,-1,33
 72 71 72 71 60 106.5 c 128,-1,34
 48 142 48 142 48 183 c 0,35,36
 48 260 48 260 83.5 310.5 c 128,-1,37
 119 361 119 361 178 387 c 1,0,1
220 62 m 1,38,39
 260 62 260 62 294 83 c 128,-1,40
 328 104 328 104 355 143 c 1,41,-1
 217 334 l 1,42,43
 171 313 171 313 144 278 c 128,-1,44
 117 243 117 243 117 187 c 0,45,46
 117 158 117 158 125 135 c 128,-1,47
 133 112 133 112 147.5 95.5 c 128,-1,48
 162 79 162 79 180.5 70.5 c 128,-1,49
 199 62 199 62 220 62 c 1,38,39
248 415 m 1,50,51
 285 433 285 433 308 462 c 128,-1,52
 331 491 331 491 331 531 c 0,53,54
 331 572 331 572 310.5 589 c 128,-1,55
 290 606 290 606 262 606 c 256,56,57
 234 606 234 606 212.5 590 c 128,-1,58
 191 574 191 574 191 540 c 0,59,60
 191 519 191 519 198.5 499 c 128,-1,61
 206 479 206 479 216 462 c 128,-1,62
 226 445 226 445 235.5 432.5 c 128,-1,63
 245 420 245 420 248 415 c 1,50,51
EndSplineSet
Validated: 1
EndChar

StartChar: quotesingle
Encoding: 39 39 10
Width: 576
GlyphClass: 2
Flags: W
HStem: 447 221<266 308>
VStem: 255 65<539.083 668>
LayerCount: 2
Fore
SplineSet
255 668 m 1,0,-1
 320 668 l 1,1,-1
 308 447 l 1,2,-1
 266 447 l 1,3,-1
 255 668 l 1,0,-1
EndSplineSet
Validated: 1
EndChar

StartChar: parenleft
Encoding: 40 40 11
Width: 576
GlyphClass: 2
Flags: W
HStem: -161 21G<292 381> 648 20G<273.5 357>
VStem: 207 60<78.9977 480.516>
LayerCount: 2
Fore
SplineSet
207 280 m 1,0,1
 207 383 207 383 229 481.5 c 128,-1,2
 251 580 251 580 296 668 c 1,3,-1
 357 668 l 1,4,5
 316 597 316 597 291.5 495.5 c 128,-1,6
 267 394 267 394 267 278 c 0,7,8
 267 168 267 168 293.5 55 c 128,-1,9
 320 -58 320 -58 381 -161 c 1,10,-1
 320 -161 l 1,11,12
 264 -63 264 -63 235.5 50 c 128,-1,13
 207 163 207 163 207 280 c 1,0,1
EndSplineSet
Validated: 1
EndChar

StartChar: parenright
Encoding: 41 41 12
Width: 576
GlyphClass: 2
Flags: W
HStem: -161 21G<194 284> 648 20G<219 302.5>
VStem: 309 59<77.5393 482.12>
LayerCount: 2
Fore
SplineSet
194 -161 m 1,0,1
 256 -58 256 -58 282.5 55.5 c 128,-1,2
 309 169 309 169 309 279 c 0,3,4
 309 394 309 394 284.5 495.5 c 128,-1,5
 260 597 260 597 219 668 c 1,6,-1
 280 668 l 1,7,8
 325 580 325 580 346.5 481.5 c 128,-1,9
 368 383 368 383 368 281 c 0,10,11
 368 163 368 163 340 50 c 128,-1,12
 312 -63 312 -63 256 -161 c 1,13,-1
 194 -161 l 1,0,1
EndSplineSet
Validated: 1
EndChar

StartChar: asterisk
Encoding: 42 42 13
Width: 576
GlyphClass: 2
Flags: W
HStem: 388 280
VStem: 264 47<562 668>
LayerCount: 2
Fore
SplineSet
250 508 m 1,0,-1
 168 540 l 1,1,-1
 183 595 l 1,2,-1
 264 562 l 1,3,-1
 264 668 l 1,4,-1
 311 668 l 1,5,-1
 311 562 l 1,6,-1
 392 595 l 1,7,-1
 407 540 l 1,8,-1
 324 508 l 1,9,-1
 375 422 l 1,10,-1
 338 388 l 1,11,-1
 287 474 l 1,12,-1
 237 388 l 1,13,-1
 200 422 l 1,14,-1
 250 508 l 1,0,-1
EndSplineSet
Validated: 1
EndChar

StartChar: plus
Encoding: 43 43 14
Width: 576
GlyphClass: 2
Flags: W
HStem: 0 21G<256 319> 208 80<92 256 319 483> 476 20G<256 319>
VStem: 256 63<0 208 288 496>
LayerCount: 2
Fore
SplineSet
92 208 m 1,0,-1
 92 288 l 1,1,-1
 256 288 l 1,2,-1
 256 496 l 1,3,-1
 319 496 l 1,4,-1
 319 288 l 1,5,-1
 483 288 l 1,6,-1
 483 208 l 1,7,-1
 319 208 l 1,8,-1
 319 0 l 1,9,-1
 256 0 l 1,10,-1
 256 208 l 1,11,-1
 92 208 l 1,0,-1
EndSplineSet
Validated: 1
EndChar

StartChar: comma
Encoding: 44 44 15
Width: 576
GlyphClass: 2
Flags: W
HStem: -133 250<279.318 285>
VStem: 235 104<0.328125 104.457>
LayerCount: 2
Fore
SplineSet
235 53 m 1,0,1
 235 79 235 79 250.5 98 c 128,-1,2
 266 117 266 117 287 117 c 0,3,4
 309 117 309 117 324 98 c 128,-1,5
 339 79 339 79 339 53 c 0,6,7
 339 41 339 41 335 28 c 2,8,-1
 285 -133 l 1,9,-1
 241 -133 l 1,10,-1
 279 -11 l 1,11,12
 260 -7 260 -7 247.5 11 c 128,-1,13
 235 29 235 29 235 53 c 1,0,1
EndSplineSet
Validated: 1
EndChar

StartChar: hyphen
Encoding: 45 45 16
Width: 576
GlyphClass: 2
Flags: W
HStem: 208 81<169 406>
VStem: 169 237<208 289>
LayerCount: 2
Fore
SplineSet
169 289 m 1,0,-1
 406 289 l 1,1,-1
 406 208 l 1,2,-1
 169 208 l 1,3,-1
 169 289 l 1,0,-1
EndSplineSet
Validated: 1
EndChar

StartChar: period
Encoding: 46 46 17
Width: 576
GlyphClass: 2
Flags: W
HStem: -12 129<248.623 323.53>
VStem: 235 104<0.542969 97.4043>
LayerCount: 2
Fore
SplineSet
235 52 m 1,0,1
 235 79 235 79 250.5 98 c 128,-1,2
 266 117 266 117 287 117 c 0,3,4
 309 117 309 117 324 98 c 128,-1,5
 339 79 339 79 339 52 c 0,6,7
 339 26 339 26 324 7 c 128,-1,8
 309 -12 309 -12 287 -12 c 0,9,10
 266 -12 266 -12 250.5 7 c 128,-1,11
 235 26 235 26 235 52 c 1,0,1
EndSplineSet
Validated: 1
EndChar

StartChar: slash
Encoding: 47 47 18
Width: 576
GlyphClass: 2
Flags: W
HStem: 0 21G<147 223.317> 648 20G<351.683 428>
VStem: 147 281
LayerCount: 2
Fore
SplineSet
358 668 m 1,0,-1
 428 668 l 1,1,-1
 217 0 l 1,2,-1
 147 0 l 1,3,-1
 358 668 l 1,0,-1
EndSplineSet
Validated: 1
EndChar

StartChar: zero
Encoding: 48 48 19
Width: 576
GlyphClass: 2
Flags: W
HStem: -12 74<223.9 351.75> 606 74<224.042 352.175>
VStem: 83 71<161.808 484.077> 423 70<190.966 507.039>
LayerCount: 2
Fore
SplineSet
83 335 m 1,0,1
 83 503 83 503 135 591.5 c 128,-1,2
 187 680 187 680 288 680 c 256,3,4
 389 680 389 680 441 591.5 c 128,-1,5
 493 503 493 503 493 335 c 0,6,7
 493 166 493 166 441 77 c 128,-1,8
 389 -12 389 -12 288 -12 c 256,9,10
 187 -12 187 -12 135 77 c 128,-1,11
 83 166 83 166 83 335 c 1,0,1
154 335 m 1,12,13
 154 203 154 203 186.5 132.5 c 128,-1,14
 219 62 219 62 288 62 c 0,15,16
 342 62 342 62 374 107 c 1,17,-1
 169 486 l 1,18,19
 161 455 161 455 157.5 417.5 c 128,-1,20
 154 380 154 380 154 335 c 1,12,13
205 566 m 1,21,-1
 409 190 l 1,22,23
 423 250 423 250 423 335 c 0,24,25
 423 466 423 466 390 536 c 128,-1,26
 357 606 357 606 288 606 c 0,27,28
 238 606 238 606 205 566 c 1,21,-1
EndSplineSet
Validated: 1
Substitution2: "'tnum' Tabular Numbers lookup 6 subtable" zero.tf
EndChar

StartChar: one
Encoding: 49 49 20
Width: 576
GlyphClass: 2
Flags: W
HStem: 0 21G<303 371> 504 67<159 271.039> 648 20G<321.5 371>
VStem: 303 68<0 504> 326 45<622.3 668>
LayerCount: 2
Fore
SplineSet
159 504 m 1,0,-1
 159 571 l 1,1,2
 188 571 188 571 214.5 574.5 c 128,-1,3
 241 578 241 578 263 588.5 c 128,-1,4
 285 599 285 599 301 618 c 128,-1,5
 317 637 317 637 326 668 c 1,6,-1
 371 668 l 1,7,-1
 371 0 l 1,8,-1
 303 0 l 1,9,-1
 303 504 l 1,10,-1
 159 504 l 1,0,-1
EndSplineSet
Validated: 1
Substitution2: "'tnum' Tabular Numbers lookup 6 subtable" one.tf
Substitution2: "'sups' Superscript lookup 5 subtable" uni00B9
EndChar

StartChar: two
Encoding: 50 50 21
Width: 576
GlyphClass: 2
Flags: W
HStem: 0 77<186 481> 498 21G<126.333 185> 610 70<229.271 359.274>
VStem: 115 68<519.529 558.629> 395 72<399.871 572.051>
LayerCount: 2
Fore
SplineSet
95 0 m 1,0,-1
 95 75 l 1,1,2
 166 140 166 140 222 197 c 128,-1,3
 278 254 278 254 316.5 305.5 c 128,-1,4
 355 357 355 357 375 403.5 c 128,-1,5
 395 450 395 450 395 494 c 0,6,7
 395 546 395 546 369 578 c 128,-1,8
 343 610 343 610 295 610 c 0,9,10
 276 610 276 610 258 604 c 128,-1,11
 240 598 240 598 225 584.5 c 128,-1,12
 210 571 210 571 198.5 549.5 c 128,-1,13
 187 528 187 528 183 498 c 1,14,-1
 115 522 l 1,15,16
 130 595 130 595 177.5 637.5 c 128,-1,17
 225 680 225 680 297 680 c 0,18,19
 334 680 334 680 365 668.5 c 128,-1,20
 396 657 396 657 418.5 634.5 c 128,-1,21
 441 612 441 612 454 579.5 c 128,-1,22
 467 547 467 547 467 505 c 0,23,24
 467 447 467 447 444 392 c 128,-1,25
 421 337 421 337 382.5 283.5 c 128,-1,26
 344 230 344 230 293 179 c 128,-1,27
 242 128 242 128 186 77 c 1,28,-1
 481 77 l 1,29,-1
 481 0 l 1,30,-1
 95 0 l 1,0,-1
EndSplineSet
Validated: 1
Substitution2: "'tnum' Tabular Numbers lookup 6 subtable" two.tf
Substitution2: "'sups' Superscript lookup 5 subtable" uni00B2
EndChar

StartChar: three
Encoding: 51 51 22
Width: 576
GlyphClass: 2
Flags: W
HStem: -12 70<207.045 349.172> 314 76<232 339.662> 498 21G<110.833 169> 610 70<211.951 345.359>
VStem: 92 66<112.051 153.545> 100 65<519.415 558.204> 383 70<431.262 571.978> 396 72<105.543 264.089>
LayerCount: 2
Fore
SplineSet
92 151 m 1,0,-1
 158 175 l 1,1,2
 167 122 167 122 196 90 c 128,-1,3
 225 58 225 58 276 58 c 0,4,5
 329 58 329 58 362.5 91 c 128,-1,6
 396 124 396 124 396 187 c 0,7,8
 396 235 396 235 376.5 261 c 128,-1,9
 357 287 357 287 330 298.5 c 128,-1,10
 303 310 303 310 275.5 312 c 128,-1,11
 248 314 248 314 232 314 c 1,12,-1
 232 390 l 1,13,14
 254 390 254 390 280.5 392.5 c 128,-1,15
 307 395 307 395 329.5 406 c 128,-1,16
 352 417 352 417 367.5 439.5 c 128,-1,17
 383 462 383 462 383 501 c 0,18,19
 383 528 383 528 374.5 548.5 c 128,-1,20
 366 569 366 569 352 582.5 c 128,-1,21
 338 596 338 596 319.5 603 c 128,-1,22
 301 610 301 610 279 610 c 0,23,24
 230 610 230 610 201.5 579 c 128,-1,25
 173 548 173 548 165 498 c 1,26,-1
 100 522 l 1,27,28
 114 594 114 594 160.5 637 c 128,-1,29
 207 680 207 680 281 680 c 0,30,31
 316 680 316 680 347 671 c 128,-1,32
 378 662 378 662 401.5 641.5 c 128,-1,33
 425 621 425 621 439 589 c 128,-1,34
 453 557 453 557 453 510 c 0,35,36
 453 459 453 459 430.5 418 c 128,-1,37
 408 377 408 377 366 355 c 1,38,39
 396 343 396 343 415.5 325.5 c 128,-1,40
 435 308 435 308 446.5 286 c 128,-1,41
 458 264 458 264 463 239 c 128,-1,42
 468 214 468 214 468 188 c 0,43,44
 468 137 468 137 452 99.5 c 128,-1,45
 436 62 436 62 409.5 37.5 c 128,-1,46
 383 13 383 13 348 0.5 c 128,-1,47
 313 -12 313 -12 275 -12 c 0,48,49
 235 -12 235 -12 203.5 0.5 c 128,-1,50
 172 13 172 13 150 35 c 128,-1,51
 128 57 128 57 113.5 87 c 128,-1,52
 99 117 99 117 92 151 c 1,0,-1
EndSplineSet
Validated: 1
Substitution2: "'tnum' Tabular Numbers lookup 6 subtable" three.tf
Substitution2: "'sups' Superscript lookup 5 subtable" uni00B3
EndChar

StartChar: four
Encoding: 52 52 23
Width: 576
GlyphClass: 2
Flags: W
HStem: 0 21G<337 403> 165 79<148 337 403 499> 648 20G<323.736 403>
VStem: 337 66<0 165 244 553>
LayerCount: 2
Fore
SplineSet
76 244 m 1,0,-1
 336 668 l 1,1,-1
 403 668 l 1,2,-1
 403 244 l 1,3,-1
 499 244 l 1,4,-1
 499 165 l 1,5,-1
 403 165 l 1,6,-1
 403 0 l 1,7,-1
 337 0 l 1,8,-1
 337 165 l 1,9,-1
 76 165 l 1,10,-1
 76 244 l 1,0,-1
337 244 m 1,11,-1
 337 553 l 1,12,-1
 148 244 l 1,13,-1
 337 244 l 1,11,-1
EndSplineSet
Validated: 1
Substitution2: "'tnum' Tabular Numbers lookup 6 subtable" four.tf
EndChar

StartChar: five
Encoding: 53 53 24
Width: 576
GlyphClass: 2
Flags: W
HStem: -12 70<211.581 344.213> 378 72<216.675 345.594> 587 81<200 450>
VStem: 99 65<111.928 153.585> 400 70<120.446 316.736>
LayerCount: 2
Fore
SplineSet
99 151 m 1,0,-1
 164 175 l 1,1,2
 174 120 174 120 201.5 89 c 128,-1,3
 229 58 229 58 282 58 c 0,4,5
 305 58 305 58 326.5 68.5 c 128,-1,6
 348 79 348 79 364.5 99.5 c 128,-1,7
 381 120 381 120 390.5 150 c 128,-1,8
 400 180 400 180 400 219 c 0,9,10
 400 261 400 261 389.5 291 c 128,-1,11
 379 321 379 321 362 340.5 c 128,-1,12
 345 360 345 360 323.5 369 c 128,-1,13
 302 378 302 378 281 378 c 256,14,15
 260 378 260 378 243 371 c 128,-1,16
 226 364 226 364 213 353.5 c 128,-1,17
 200 343 200 343 191 329.5 c 128,-1,18
 182 316 182 316 178 304 c 1,19,-1
 113 328 l 1,20,-1
 146 668 l 1,21,-1
 450 668 l 1,22,-1
 450 587 l 1,23,-1
 200 587 l 1,24,-1
 182 400 l 1,25,26
 202 426 202 426 232.5 438 c 128,-1,27
 263 450 263 450 296 450 c 0,28,29
 331 450 331 450 362.5 434.5 c 128,-1,30
 394 419 394 419 417.5 390 c 128,-1,31
 441 361 441 361 455.5 318 c 128,-1,32
 470 275 470 275 470 220 c 0,33,34
 470 163 470 163 454.5 119.5 c 128,-1,35
 439 76 439 76 412.5 46.5 c 128,-1,36
 386 17 386 17 352.5 2.5 c 128,-1,37
 319 -12 319 -12 282 -12 c 0,38,39
 241 -12 241 -12 210.5 1 c 128,-1,40
 180 14 180 14 158 36 c 128,-1,41
 136 58 136 58 121 87.5 c 128,-1,42
 106 117 106 117 99 151 c 1,0,-1
EndSplineSet
Validated: 1
Substitution2: "'tnum' Tabular Numbers lookup 6 subtable" five.tf
EndChar

StartChar: six
Encoding: 54 54 25
Width: 576
GlyphClass: 2
Flags: W
HStem: -12 71<227.988 353.903> 371 74<227.505 354> 610 70<239.225 358.584>
VStem: 99 69<352 500.348> 406 71<118.301 311.552>
LayerCount: 2
Fore
SplineSet
99 310 m 1,0,1
 99 381 99 381 109.5 447.5 c 128,-1,2
 120 514 120 514 144.5 566 c 128,-1,3
 169 618 169 618 208.5 649 c 128,-1,4
 248 680 248 680 305 680 c 0,5,6
 364 680 364 680 400 649 c 128,-1,7
 436 618 436 618 454 573 c 1,8,-1
 387 548 l 1,9,10
 375 577 375 577 352 593.5 c 128,-1,11
 329 610 329 610 297 610 c 0,12,13
 267 610 267 610 243 591.5 c 128,-1,14
 219 573 219 573 203 539 c 128,-1,15
 187 505 187 505 178 457.5 c 128,-1,16
 169 410 169 410 168 352 c 1,17,18
 186 391 186 391 220 418 c 128,-1,19
 254 445 254 445 307 445 c 0,20,21
 344 445 344 445 375 428.5 c 128,-1,22
 406 412 406 412 428.5 382 c 128,-1,23
 451 352 451 352 464 310 c 128,-1,24
 477 268 477 268 477 218 c 0,25,26
 477 172 477 172 464 130 c 128,-1,27
 451 88 451 88 426.5 56.5 c 128,-1,28
 402 25 402 25 368 6.5 c 128,-1,29
 334 -12 334 -12 291 -12 c 0,30,31
 191 -12 191 -12 145 71.5 c 128,-1,32
 99 155 99 155 99 310 c 1,0,1
291 59 m 1,33,34
 343 59 343 59 374.5 102.5 c 128,-1,35
 406 146 406 146 406 215 c 256,36,37
 406 284 406 284 374.5 327.5 c 128,-1,38
 343 371 343 371 291 371 c 0,39,40
 238 371 238 371 207 327.5 c 128,-1,41
 176 284 176 284 176 215 c 256,42,43
 176 146 176 146 207 102.5 c 128,-1,44
 238 59 238 59 291 59 c 1,33,34
EndSplineSet
Validated: 1
Substitution2: "'tnum' Tabular Numbers lookup 6 subtable" six.tf
EndChar

StartChar: seven
Encoding: 55 55 26
Width: 576
GlyphClass: 2
Flags: W
HStem: 0 21G<156 248.666> 587 81<93 391>
LayerCount: 2
Fore
SplineSet
391 587 m 1,0,-1
 93 587 l 1,1,-1
 93 668 l 1,2,-1
 466 668 l 1,3,-1
 466 587 l 1,4,-1
 241 0 l 1,5,-1
 156 0 l 1,6,-1
 391 587 l 1,0,-1
EndSplineSet
Validated: 1
Substitution2: "'tnum' Tabular Numbers lookup 6 subtable" seven.tf
EndChar

StartChar: eight
Encoding: 56 56 27
Width: 576
GlyphClass: 2
Flags: W
HStem: -12 74<211.202 362.754> 317 74<237.412 336.588> 606 74<236.182 337.904>
VStem: 93 71<108.904 267.977> 145 58<426.137 571.469> 371 59<426.137 571.469> 410 72<108.904 267.977>
LayerCount: 2
Fore
SplineSet
93 188 m 1,0,1
 93 253 93 253 119.5 298 c 128,-1,2
 146 343 146 343 190 366 c 1,3,4
 169 391 169 391 157 425 c 128,-1,5
 145 459 145 459 145 499 c 0,6,7
 145 537 145 537 156 569.5 c 128,-1,8
 167 602 167 602 186.5 627 c 128,-1,9
 206 652 206 652 232 666 c 128,-1,10
 258 680 258 680 287 680 c 0,11,12
 317 680 317 680 343 666 c 128,-1,13
 369 652 369 652 388.5 627 c 128,-1,14
 408 602 408 602 419 569.5 c 128,-1,15
 430 537 430 537 430 499 c 0,16,17
 430 459 430 459 418 425 c 128,-1,18
 406 391 406 391 385 366 c 1,19,20
 429 343 429 343 455.5 298 c 128,-1,21
 482 253 482 253 482 188 c 0,22,23
 482 140 482 140 467 103 c 128,-1,24
 452 66 452 66 425.5 40.5 c 128,-1,25
 399 15 399 15 364 1.5 c 128,-1,26
 329 -12 329 -12 287 -12 c 0,27,28
 246 -12 246 -12 211 1.5 c 128,-1,29
 176 15 176 15 149.5 40.5 c 128,-1,30
 123 66 123 66 108 103 c 128,-1,31
 93 140 93 140 93 188 c 1,0,1
164 188 m 129,-1,33
 164 129 164 129 197 95.5 c 128,-1,34
 230 62 230 62 287 62 c 256,35,36
 344 62 344 62 377 95.5 c 128,-1,37
 410 129 410 129 410 188 c 256,38,39
 410 247 410 247 377 282 c 128,-1,40
 344 317 344 317 287 317 c 256,41,42
 230 317 230 317 197 282 c 128,-1,32
 164 247 164 247 164 188 c 129,-1,33
287 391 m 129,-1,44
 304 391 304 391 319.5 399.5 c 128,-1,45
 335 408 335 408 346.5 422.5 c 128,-1,46
 358 437 358 437 364.5 457 c 128,-1,47
 371 477 371 477 371 500 c 0,48,49
 371 522 371 522 364.5 541.5 c 128,-1,50
 358 561 358 561 346.5 575 c 128,-1,51
 335 589 335 589 319.5 597.5 c 128,-1,52
 304 606 304 606 287 606 c 256,53,54
 270 606 270 606 254.5 597.5 c 128,-1,55
 239 589 239 589 227.5 575 c 128,-1,56
 216 561 216 561 209.5 541.5 c 128,-1,57
 203 522 203 522 203 500 c 0,58,59
 203 477 203 477 209.5 457 c 128,-1,60
 216 437 216 437 227.5 422.5 c 128,-1,61
 239 408 239 408 254.5 399.5 c 128,-1,43
 270 391 270 391 287 391 c 129,-1,44
EndSplineSet
Validated: 1
Substitution2: "'tnum' Tabular Numbers lookup 6 subtable" eight.tf
EndChar

StartChar: nine
Encoding: 57 57 28
Width: 576
GlyphClass: 2
Flags: W
HStem: 0 21G<220 317> 201 86<225.279 329.605> 594 85<225.516 350.753>
VStem: 99 68<352.716 528.338> 410 67<353.049 528.334>
LayerCount: 2
Fore
SplineSet
99 441 m 1,0,1
 99 490 99 490 113.5 533.5 c 128,-1,2
 128 577 128 577 154 609 c 128,-1,3
 180 641 180 641 214 660 c 128,-1,4
 248 679 248 679 288 679 c 0,5,6
 327 679 327 679 361.5 660.5 c 128,-1,7
 396 642 396 642 421.5 609.5 c 128,-1,8
 447 577 447 577 462 533.5 c 128,-1,9
 477 490 477 490 477 439 c 0,10,11
 477 393 477 393 462 348 c 0,12,13
 459 336 459 336 444.5 301 c 128,-1,14
 430 266 430 266 408.5 218 c 128,-1,15
 387 170 387 170 359.5 113 c 128,-1,16
 332 56 332 56 302 0 c 1,17,-1
 220 0 l 1,18,19
 239 34 239 34 259 69 c 0,20,21
 275 100 275 100 294.5 136.5 c 128,-1,22
 314 173 314 173 330 207 c 1,23,24
 310 201 310 201 288 201 c 0,25,26
 249 201 249 201 214.5 220 c 128,-1,27
 180 239 180 239 154.5 271.5 c 128,-1,28
 129 304 129 304 114 347.5 c 128,-1,29
 99 391 99 391 99 441 c 1,0,1
288 287 m 129,-1,31
 313 287 313 287 335.5 299 c 128,-1,32
 358 311 358 311 374.5 332 c 128,-1,33
 391 353 391 353 400.5 381 c 128,-1,34
 410 409 410 409 410 441 c 256,35,36
 410 473 410 473 400.5 500.5 c 128,-1,37
 391 528 391 528 374.5 549 c 128,-1,38
 358 570 358 570 335.5 582 c 128,-1,39
 313 594 313 594 288 594 c 256,40,41
 263 594 263 594 240.5 582 c 128,-1,42
 218 570 218 570 202 549 c 128,-1,43
 186 528 186 528 176.5 500.5 c 128,-1,44
 167 473 167 473 167 441 c 256,45,46
 167 409 167 409 176.5 381 c 128,-1,47
 186 353 186 353 202 332 c 128,-1,48
 218 311 218 311 240.5 299 c 128,-1,30
 263 287 263 287 288 287 c 129,-1,31
EndSplineSet
Validated: 1
Substitution2: "'tnum' Tabular Numbers lookup 6 subtable" nine.tf
EndChar

StartChar: colon
Encoding: 58 58 29
Width: 576
GlyphClass: 2
Flags: W
HStem: -12 129<248.623 323.53> 375 129<248.623 323.53>
VStem: 235 104<0.542969 97.4043 394.596 491.457>
LayerCount: 2
Fore
SplineSet
235 440 m 1,0,1
 235 466 235 466 250.5 485 c 128,-1,2
 266 504 266 504 287 504 c 0,3,4
 309 504 309 504 324 485 c 128,-1,5
 339 466 339 466 339 440 c 0,6,7
 339 413 339 413 324 394 c 128,-1,8
 309 375 309 375 287 375 c 0,9,10
 266 375 266 375 250.5 394 c 128,-1,11
 235 413 235 413 235 440 c 1,0,1
287 117 m 1,12,13
 309 117 309 117 324 98 c 128,-1,14
 339 79 339 79 339 52 c 0,15,16
 339 26 339 26 324 7 c 128,-1,17
 309 -12 309 -12 287 -12 c 0,18,19
 266 -12 266 -12 250.5 7 c 128,-1,20
 235 26 235 26 235 52 c 0,21,22
 235 79 235 79 250.5 98 c 128,-1,23
 266 117 266 117 287 117 c 1,12,13
EndSplineSet
Validated: 1
EndChar

StartChar: semicolon
Encoding: 59 59 30
Width: 576
GlyphClass: 2
Flags: W
HStem: 375 129<248.623 323.53>
VStem: 235 104<0.328125 104.457 394.596 491.457>
LayerCount: 2
Fore
SplineSet
235 53 m 1,0,1
 235 79 235 79 250.5 98 c 128,-1,2
 266 117 266 117 287 117 c 0,3,4
 309 117 309 117 324 98 c 128,-1,5
 339 79 339 79 339 53 c 0,6,7
 339 41 339 41 335 28 c 2,8,-1
 285 -133 l 1,9,-1
 241 -133 l 1,10,-1
 279 -11 l 1,11,12
 260 -7 260 -7 247.5 11 c 128,-1,13
 235 29 235 29 235 53 c 1,0,1
235 440 m 1,14,15
 235 466 235 466 250.5 485 c 128,-1,16
 266 504 266 504 287 504 c 0,17,18
 309 504 309 504 324 485 c 128,-1,19
 339 466 339 466 339 440 c 0,20,21
 339 413 339 413 324 394 c 128,-1,22
 309 375 309 375 287 375 c 0,23,24
 266 375 266 375 250.5 394 c 128,-1,25
 235 413 235 413 235 440 c 1,14,15
EndSplineSet
Validated: 1
EndChar

StartChar: less
Encoding: 60 60 31
Width: 576
GlyphClass: 2
Flags: W
HStem: 0 21G<441.413 477> 476 20G<441.413 477>
LayerCount: 2
Fore
SplineSet
98 213 m 1,0,-1
 98 283 l 1,1,-1
 477 496 l 1,2,-1
 477 406 l 1,3,-1
 182 248 l 1,4,-1
 477 90 l 1,5,-1
 477 0 l 1,6,-1
 98 213 l 1,0,-1
EndSplineSet
Validated: 1
EndChar

StartChar: equal
Encoding: 61 61 32
Width: 576
GlyphClass: 2
Flags: W
HStem: 121 79<92 483> 307 79<92 483>
LayerCount: 2
Fore
SplineSet
92 386 m 1,0,-1
 483 386 l 1,1,-1
 483 307 l 1,2,-1
 92 307 l 1,3,-1
 92 386 l 1,0,-1
483 200 m 1,4,-1
 483 121 l 1,5,-1
 92 121 l 1,6,-1
 92 200 l 1,7,-1
 483 200 l 1,4,-1
EndSplineSet
Validated: 1
EndChar

StartChar: greater
Encoding: 62 62 33
Width: 576
GlyphClass: 2
Flags: W
HStem: 0 21G<98 133.587> 476 20G<98 133.587>
LayerCount: 2
Fore
SplineSet
477 283 m 1,0,-1
 477 213 l 1,1,-1
 98 0 l 1,2,-1
 98 90 l 1,3,-1
 393 248 l 1,4,-1
 98 406 l 1,5,-1
 98 496 l 1,6,-1
 477 283 l 1,0,-1
EndSplineSet
Validated: 1
EndChar

StartChar: question
Encoding: 63 63 34
Width: 576
GlyphClass: 2
Flags: W
HStem: -12 129<224.501 298.596> 501 21G<117.609 176.5> 610 70<218.234 351.008>
VStem: 109 66<521.561 563.285> 208 104<6.04968 104.457> 224 70<190 292.406> 386 71<435.772 575.937>
LayerCount: 2
Fore
SplineSet
109 524 m 1,0,1
 115 560 115 560 130.5 589 c 128,-1,2
 146 618 146 618 169.5 638 c 128,-1,3
 193 658 193 658 223 669 c 128,-1,4
 253 680 253 680 288 680 c 0,5,6
 320 680 320 680 350 670.5 c 128,-1,7
 380 661 380 661 404 640.5 c 128,-1,8
 428 620 428 620 442.5 589 c 128,-1,9
 457 558 457 558 457 516 c 0,10,11
 457 484 457 484 448.5 456 c 128,-1,12
 440 428 440 428 426 405 c 128,-1,13
 412 382 412 382 393.5 362.5 c 128,-1,14
 375 343 375 343 356 328 c 0,15,16
 339 314 339 314 327 303.5 c 128,-1,17
 315 293 315 293 307.5 281.5 c 128,-1,18
 300 270 300 270 297 256.5 c 128,-1,19
 294 243 294 243 294 224 c 2,20,-1
 294 190 l 1,21,-1
 224 190 l 1,22,-1
 224 227 l 2,23,24
 224 256 224 256 229.5 277.5 c 128,-1,25
 235 299 235 299 247 317.5 c 128,-1,26
 259 336 259 336 276.5 352.5 c 128,-1,27
 294 369 294 369 316 387 c 0,28,29
 346 410 346 410 366 438.5 c 128,-1,30
 386 467 386 467 386 508 c 0,31,32
 386 556 386 556 357.5 583 c 128,-1,33
 329 610 329 610 285 610 c 0,34,35
 257 610 257 610 237.5 600.5 c 128,-1,36
 218 591 218 591 205 575 c 128,-1,37
 192 559 192 559 185 540 c 128,-1,38
 178 521 178 521 175 501 c 1,39,-1
 109 524 l 1,0,1
208 52 m 1,40,41
 208 79 208 79 223.5 98 c 128,-1,42
 239 117 239 117 260 117 c 0,43,44
 282 117 282 117 297 97.5 c 128,-1,45
 312 78 312 78 312 52 c 0,46,47
 312 33 312 33 303.5 17 c 128,-1,48
 295 1 295 1 281 -7 c 0,49,50
 270 -12 270 -12 260 -12 c 0,51,52
 240 -12 240 -12 224 5.5 c 128,-1,53
 208 23 208 23 208 52 c 1,40,41
EndSplineSet
Validated: 1
EndChar

StartChar: at
Encoding: 64 64 35
Width: 576
GlyphClass: 2
Flags: W
HStem: -12 61<212.533 371.972> 155 74<237.394 309.69 399.703 465.501> 445 74<249.38 333> 618 62<210.925 374.663>
VStem: 35 46<209.003 458.64> 160 62<246.471 416.043> 333 60<253.237 444.59> 495 46<262.206 477.728>
LayerCount: 2
Fore
SplineSet
292 680 m 1,0,1
 335 680 335 680 378.5 659 c 128,-1,2
 422 638 422 638 458.5 598 c 128,-1,3
 495 558 495 558 518 499.5 c 128,-1,4
 541 441 541 441 541 366 c 0,5,6
 541 308 541 308 530.5 267.5 c 128,-1,7
 520 227 520 227 503.5 202 c 128,-1,8
 487 177 487 177 466 166 c 128,-1,9
 445 155 445 155 425 155 c 0,10,11
 399 155 399 155 378 171 c 128,-1,12
 357 187 357 187 350 213 c 1,13,14
 332 184 332 184 309 169.5 c 128,-1,15
 286 155 286 155 263 155 c 0,16,17
 243 155 243 155 224.5 165.5 c 128,-1,18
 206 176 206 176 191.5 196.5 c 128,-1,19
 177 217 177 217 168.5 247.5 c 128,-1,20
 160 278 160 278 160 318 c 0,21,22
 160 375 160 375 172 413.5 c 128,-1,23
 184 452 184 452 204.5 475.5 c 128,-1,24
 225 499 225 499 251 509 c 128,-1,25
 277 519 277 519 305 519 c 0,26,27
 327 519 327 519 350 513.5 c 128,-1,28
 373 508 373 508 393 499 c 1,29,-1
 393 273 l 2,30,31
 393 251 393 251 402.5 240 c 128,-1,32
 412 229 412 229 425 229 c 0,33,34
 445 229 445 229 458.5 242.5 c 128,-1,35
 472 256 472 256 480 276 c 128,-1,36
 488 296 488 296 491.5 320.5 c 128,-1,37
 495 345 495 345 495 366 c 0,38,39
 495 417 495 417 479 463 c 128,-1,40
 463 509 463 509 435.5 543.5 c 128,-1,41
 408 578 408 578 371.5 598 c 128,-1,42
 335 618 335 618 292 618 c 256,43,44
 249 618 249 618 210.5 596 c 128,-1,45
 172 574 172 574 143.5 535.5 c 128,-1,46
 115 497 115 497 98 445.5 c 128,-1,47
 81 394 81 394 81 335 c 0,48,49
 81 271 81 271 99 218.5 c 128,-1,50
 117 166 117 166 146.5 128.5 c 128,-1,51
 176 91 176 91 213.5 70 c 128,-1,52
 251 49 251 49 292 49 c 0,53,54
 318 49 318 49 344 58 c 128,-1,55
 370 67 370 67 393 85 c 1,56,-1
 393 16 l 1,57,58
 370 2 370 2 344.5 -5 c 128,-1,59
 319 -12 319 -12 294 -12 c 0,60,61
 245 -12 245 -12 198 13 c 128,-1,62
 151 38 151 38 115 83.5 c 128,-1,63
 79 129 79 129 57 193 c 128,-1,64
 35 257 35 257 35 335 c 0,65,66
 35 406 35 406 55 469 c 128,-1,67
 75 532 75 532 110 579 c 128,-1,68
 145 626 145 626 192 653 c 128,-1,69
 239 680 239 680 292 680 c 1,0,1
272 229 m 1,70,71
 283 229 283 229 294 236 c 128,-1,72
 305 243 305 243 313.5 256.5 c 128,-1,73
 322 270 322 270 327.5 290.5 c 128,-1,74
 333 311 333 311 333 338 c 2,75,-1
 333 441 l 1,76,77
 325 443 325 443 317 444 c 128,-1,78
 309 445 309 445 300 445 c 0,79,80
 286 445 286 445 272 440 c 128,-1,81
 258 435 258 435 247 420.5 c 128,-1,82
 236 406 236 406 229 380 c 128,-1,83
 222 354 222 354 222 313 c 0,84,85
 222 270 222 270 237.5 249.5 c 128,-1,86
 253 229 253 229 272 229 c 1,70,71
EndSplineSet
Validated: 1
EndChar

StartChar: A
Encoding: 65 65 36
Width: 576
GlyphClass: 2
Flags: W
HStem: 0 21G<50 133.479 440.521 524> 146 81<191 383> 649 20G<240.141 334.83>
LayerCount: 2
Fore
SplineSet
246 669 m 1,0,-1
 329 669 l 1,1,-1
 524 0 l 1,2,-1
 446 0 l 1,3,-1
 406 146 l 1,4,-1
 168 146 l 1,5,-1
 128 0 l 1,6,-1
 50 0 l 1,7,-1
 246 669 l 1,0,-1
191 227 m 1,8,-1
 383 227 l 1,9,-1
 287 574 l 1,10,-1
 191 227 l 1,8,-1
EndSplineSet
Validated: 1
Substitution2: "Single Substitution lookup 0 subtable" ordfeminine
EndChar

StartChar: B
Encoding: 66 66 37
Width: 576
GlyphClass: 2
Flags: W
HStem: 0 79<179 389.474> 308 74<179 375.425> 589 79<179 373.865>
VStem: 105 74<79 308 382 589> 404 75<411.824 557.633> 425 76<116.876 271.955>
LayerCount: 2
Fore
SplineSet
105 668 m 1,0,-1
 316 668 l 2,1,2
 358 668 358 668 389 654 c 128,-1,3
 420 640 420 640 440 617 c 128,-1,4
 460 594 460 594 469.5 564 c 128,-1,5
 479 534 479 534 479 502 c 0,6,7
 479 462 479 462 464.5 423 c 128,-1,8
 450 384 450 384 424 355 c 1,9,10
 463 329 463 329 482 284.5 c 128,-1,11
 501 240 501 240 501 192 c 0,12,13
 501 156 501 156 490 121.5 c 128,-1,14
 479 87 479 87 457.5 60 c 128,-1,15
 436 33 436 33 404 16.5 c 128,-1,16
 372 0 372 0 329 0 c 2,17,-1
 105 0 l 1,18,-1
 105 668 l 1,0,-1
179 308 m 1,19,-1
 179 79 l 1,20,-1
 336 79 l 2,21,22
 358 79 358 79 374.5 89 c 128,-1,23
 391 99 391 99 402.5 115.5 c 128,-1,24
 414 132 414 132 419.5 152.5 c 128,-1,25
 425 173 425 173 425 195 c 0,26,27
 425 216 425 216 419.5 236.5 c 128,-1,28
 414 257 414 257 402.5 273 c 128,-1,29
 391 289 391 289 374.5 298.5 c 128,-1,30
 358 308 358 308 336 308 c 2,31,-1
 179 308 l 1,19,-1
179 589 m 1,32,-1
 179 382 l 1,33,-1
 324 382 l 2,34,35
 344 382 344 382 359 391 c 128,-1,36
 374 400 374 400 384 414 c 128,-1,37
 394 428 394 428 399 446.5 c 128,-1,38
 404 465 404 465 404 484 c 0,39,40
 404 504 404 504 399 522.5 c 128,-1,41
 394 541 394 541 383.5 556 c 128,-1,42
 373 571 373 571 358.5 580 c 128,-1,43
 344 589 344 589 324 589 c 2,44,-1
 179 589 l 1,32,-1
EndSplineSet
Validated: 1
EndChar

StartChar: C
Encoding: 67 67 38
Width: 576
GlyphClass: 2
Flags: W
HStem: -12 79<240.369 387.812> 499 21G<437 488> 601 79<237.753 384.85>
VStem: 72 74<188.949 480.744>
LayerCount: 2
Fore
SplineSet
313 680 m 1,0,1
 379 680 379 680 430.5 641 c 128,-1,2
 482 602 482 602 509 529 c 1,3,-1
 446 499 l 1,4,5
 428 544 428 544 394 572.5 c 128,-1,6
 360 601 360 601 309 601 c 0,7,8
 275 601 275 601 245 584 c 128,-1,9
 215 567 215 567 193 533.5 c 128,-1,10
 171 500 171 500 158.5 450 c 128,-1,11
 146 400 146 400 146 335 c 0,12,13
 146 272 146 272 158 222.5 c 128,-1,14
 170 173 170 173 192.5 138.5 c 128,-1,15
 215 104 215 104 245 85.5 c 128,-1,16
 275 67 275 67 312 67 c 0,17,18
 363 67 363 67 397 95 c 128,-1,19
 431 123 431 123 449 169 c 1,20,-1
 512 139 l 1,21,22
 484 64 484 64 430 26 c 128,-1,23
 376 -12 376 -12 307 -12 c 0,24,25
 251 -12 251 -12 207.5 13.5 c 128,-1,26
 164 39 164 39 134 85 c 128,-1,27
 104 131 104 131 88 195 c 128,-1,28
 72 259 72 259 72 335 c 0,29,30
 72 413 72 413 89 476.5 c 128,-1,31
 106 540 106 540 137.5 585.5 c 128,-1,32
 169 631 169 631 213.5 655.5 c 128,-1,33
 258 680 258 680 313 680 c 1,0,1
EndSplineSet
Validated: 1
EndChar

StartChar: D
Encoding: 68 68 39
Width: 576
GlyphClass: 2
Flags: W
HStem: 0 79<159 339.99> 589 79<159 339.99>
VStem: 87 72<79 589> 435 74<189.32 479.399>
LayerCount: 2
Fore
SplineSet
87 668 m 1,0,-1
 227 668 l 2,1,2
 289 668 289 668 340 651.5 c 128,-1,3
 391 635 391 635 429 596.5 c 128,-1,4
 467 558 467 558 488 494 c 128,-1,5
 509 430 509 430 509 335 c 0,6,7
 509 239 509 239 488 174.5 c 128,-1,8
 467 110 467 110 429 71.5 c 128,-1,9
 391 33 391 33 340 16.5 c 128,-1,10
 289 0 289 0 227 0 c 2,11,-1
 87 0 l 1,12,-1
 87 668 l 1,0,-1
159 589 m 1,13,-1
 159 79 l 1,14,-1
 226 79 l 2,15,16
 266 79 266 79 303.5 87 c 128,-1,17
 341 95 341 95 370 121.5 c 128,-1,18
 399 148 399 148 417 199 c 128,-1,19
 435 250 435 250 435 335 c 256,20,21
 435 420 435 420 417 470 c 128,-1,22
 399 520 399 520 370 546.5 c 128,-1,23
 341 573 341 573 303.5 581 c 128,-1,24
 266 589 266 589 226 589 c 2,25,-1
 159 589 l 1,13,-1
EndSplineSet
Validated: 1
EndChar

StartChar: E
Encoding: 69 69 40
Width: 576
GlyphClass: 2
Flags: W
HStem: 0 81<197 484> 303 81<197 409> 587 81<197 484>
VStem: 122 75<81 303 384 587>
LayerCount: 2
Fore
SplineSet
122 0 m 1,0,-1
 122 668 l 1,1,-1
 484 668 l 1,2,-1
 484 587 l 1,3,-1
 197 587 l 1,4,-1
 197 384 l 1,5,-1
 409 384 l 1,6,-1
 409 303 l 1,7,-1
 197 303 l 1,8,-1
 197 81 l 1,9,-1
 484 81 l 1,10,-1
 484 0 l 1,11,-1
 122 0 l 1,0,-1
EndSplineSet
Validated: 1
EndChar

StartChar: F
Encoding: 70 70 41
Width: 576
GlyphClass: 2
Flags: W
HStem: 0 21G<129 205> 303 81<205 478> 587 81<205 478>
VStem: 129 76<0 303 384 587>
LayerCount: 2
Fore
SplineSet
129 0 m 1,0,-1
 129 668 l 1,1,-1
 478 668 l 1,2,-1
 478 587 l 1,3,-1
 205 587 l 1,4,-1
 205 384 l 1,5,-1
 478 384 l 1,6,-1
 478 303 l 1,7,-1
 205 303 l 1,8,-1
 205 0 l 1,9,-1
 129 0 l 1,0,-1
EndSplineSet
Validated: 1
EndChar

StartChar: G
Encoding: 71 71 42
Width: 576
GlyphClass: 2
Flags: W
HStem: -12 79<220.302 370.538> 0 21G<461.476 507> 264 81<290 439> 499 21G<414 465> 601 79<218.97 363.07>
VStem: 56 73<188.949 483.11> 439 68<140.594 264> 466 41<0 30.9474>
LayerCount: 2
Fore
SplineSet
293 680 m 1,0,1
 357 680 357 680 408 641 c 128,-1,2
 459 602 459 602 486 529 c 1,3,-1
 423 499 l 1,4,5
 405 544 405 544 372 572.5 c 128,-1,6
 339 601 339 601 289 601 c 0,7,8
 255 601 255 601 226 584 c 128,-1,9
 197 567 197 567 175 533.5 c 128,-1,10
 153 500 153 500 141 450 c 128,-1,11
 129 400 129 400 129 335 c 0,12,13
 129 272 129 272 141 222.5 c 128,-1,14
 153 173 153 173 174 138.5 c 128,-1,15
 195 104 195 104 224.5 85.5 c 128,-1,16
 254 67 254 67 289 67 c 0,17,18
 314 67 314 67 340.5 75 c 128,-1,19
 367 83 367 83 389 103 c 128,-1,20
 411 123 411 123 425 156.5 c 128,-1,21
 439 190 439 190 439 242 c 2,22,-1
 439 264 l 1,23,-1
 290 264 l 1,24,-1
 290 345 l 1,25,-1
 507 345 l 1,26,-1
 507 0 l 1,27,-1
 466 0 l 1,28,-1
 447 84 l 1,29,30
 422 33 422 33 380 10.5 c 128,-1,31
 338 -12 338 -12 286 -12 c 0,32,33
 231 -12 231 -12 188.5 13.5 c 128,-1,34
 146 39 146 39 116 85 c 128,-1,35
 86 131 86 131 71 195 c 128,-1,36
 56 259 56 259 56 335 c 0,37,38
 56 413 56 413 72.5 476.5 c 128,-1,39
 89 540 89 540 120 585.5 c 128,-1,40
 151 631 151 631 195 655.5 c 128,-1,41
 239 680 239 680 293 680 c 1,0,1
EndSplineSet
Validated: 1
EndChar

StartChar: H
Encoding: 72 72 43
Width: 576
GlyphClass: 2
Flags: W
HStem: 0 21G<82 154 422 494> 303 81<154 422> 648 20G<82 154 422 494>
VStem: 82 72<0 303 384 668> 422 72<0 303 384 668>
LayerCount: 2
Fore
SplineSet
82 0 m 1,0,-1
 82 668 l 1,1,-1
 154 668 l 1,2,-1
 154 384 l 1,3,-1
 422 384 l 1,4,-1
 422 668 l 1,5,-1
 494 668 l 1,6,-1
 494 0 l 1,7,-1
 422 0 l 1,8,-1
 422 303 l 1,9,-1
 154 303 l 1,10,-1
 154 0 l 1,11,-1
 82 0 l 1,0,-1
EndSplineSet
Validated: 1
EndChar

StartChar: I
Encoding: 73 73 44
Width: 576
GlyphClass: 2
Flags: W
HStem: 0 74<173 249 325 401> 594 74<173 249 325 401>
VStem: 173 228<0 74 594 668>
LayerCount: 2
Fore
SplineSet
173 594 m 1,0,-1
 173 668 l 1,1,-1
 401 668 l 1,2,-1
 401 594 l 1,3,-1
 325 594 l 1,4,-1
 325 74 l 1,5,-1
 401 74 l 1,6,-1
 401 0 l 1,7,-1
 173 0 l 1,8,-1
 173 74 l 1,9,-1
 249 74 l 1,10,-1
 249 594 l 1,11,-1
 173 594 l 1,0,-1
EndSplineSet
Validated: 1
EndChar

StartChar: J
Encoding: 74 74 45
Width: 576
GlyphClass: 2
Flags: W
HStem: -12 77<205.479 319.628> 648 20G<356 432>
VStem: 93 70<113.435 189> 356 76<107.538 668>
LayerCount: 2
Fore
SplineSet
163 214 m 1,0,1
 163 176 163 176 170.5 148 c 128,-1,2
 178 120 178 120 192 101.5 c 128,-1,3
 206 83 206 83 224 74 c 128,-1,4
 242 65 242 65 262 65 c 0,5,6
 278 65 278 65 295.5 71 c 128,-1,7
 313 77 313 77 326 93.5 c 128,-1,8
 339 110 339 110 347.5 139 c 128,-1,9
 356 168 356 168 356 213 c 2,10,-1
 356 668 l 1,11,-1
 432 668 l 1,12,-1
 432 212 l 2,13,14
 432 102 432 102 387 45 c 128,-1,15
 342 -12 342 -12 262 -12 c 0,16,17
 186 -12 186 -12 141.5 38.5 c 128,-1,18
 97 89 97 89 93 189 c 1,19,-1
 163 214 l 1,0,1
EndSplineSet
Validated: 1
EndChar

StartChar: K
Encoding: 75 75 46
Width: 576
GlyphClass: 2
Flags: W
HStem: 0 21G<102 176 423.688 525> 648 20G<102 176 397.012 503>
VStem: 102 74<0 210 332 668>
LayerCount: 2
Fore
SplineSet
102 0 m 1,0,-1
 102 668 l 1,1,-1
 176 668 l 1,2,-1
 176 332 l 1,3,-1
 411 668 l 1,4,-1
 503 668 l 1,5,-1
 303 389 l 1,6,-1
 525 0 l 1,7,-1
 435 0 l 1,8,-1
 254 320 l 1,9,-1
 176 210 l 1,10,-1
 176 0 l 1,11,-1
 102 0 l 1,0,-1
EndSplineSet
Validated: 1
EndChar

StartChar: L
Encoding: 76 76 47
Width: 576
GlyphClass: 2
Flags: W
HStem: 0 81<208 497> 648 20G<132 208>
VStem: 132 76<81 668>
LayerCount: 2
Fore
SplineSet
132 668 m 1,0,-1
 208 668 l 1,1,-1
 208 81 l 1,2,-1
 497 81 l 1,3,-1
 497 0 l 1,4,-1
 132 0 l 1,5,-1
 132 668 l 1,0,-1
EndSplineSet
Validated: 1
EndChar

StartChar: M
Encoding: 77 77 48
Width: 576
GlyphClass: 2
Flags: W
HStem: 0 21G<43 112 249.018 327.947 464 533> 648 20G<43 161.799 414.201 533>
VStem: 43 69<0 570> 464 69<0 570>
LayerCount: 2
Fore
SplineSet
43 0 m 1,0,-1
 43 668 l 1,1,-1
 157 668 l 1,2,-1
 288 122 l 1,3,-1
 419 668 l 1,4,-1
 533 668 l 1,5,-1
 533 0 l 1,6,-1
 464 0 l 1,7,-1
 464 570 l 1,8,-1
 323 0 l 1,9,-1
 254 0 l 1,10,-1
 112 570 l 1,11,-1
 112 0 l 1,12,-1
 43 0 l 1,0,-1
EndSplineSet
Validated: 1
EndChar

StartChar: N
Encoding: 78 78 49
Width: 576
GlyphClass: 2
Flags: W
HStem: 0 21G<82 154 379.804 494> 648 20G<82 197.204 422 494>
VStem: 82 72<0 571> 422 72<100 668>
LayerCount: 2
Fore
SplineSet
82 0 m 1,0,-1
 82 668 l 1,1,-1
 189 668 l 1,2,-1
 422 100 l 1,3,-1
 422 668 l 1,4,-1
 494 668 l 1,5,-1
 494 0 l 1,6,-1
 388 0 l 1,7,-1
 154 571 l 1,8,-1
 154 0 l 1,9,-1
 82 0 l 1,0,-1
EndSplineSet
Validated: 1
EndChar

StartChar: O
Encoding: 79 79 50
Width: 576
GlyphClass: 2
Flags: W
HStem: -12 79<215.636 358.354> 601 79<215.636 358.354>
VStem: 50 73<189.248 479.838> 452 73<191.635 477.466>
LayerCount: 2
Fore
SplineSet
50 335 m 1,0,1
 50 410 50 410 66.5 473.5 c 128,-1,2
 83 537 83 537 114 583 c 128,-1,3
 145 629 145 629 188.5 654.5 c 128,-1,4
 232 680 232 680 287 680 c 0,5,6
 341 680 341 680 385.5 654.5 c 128,-1,7
 430 629 430 629 460.5 583 c 128,-1,8
 491 537 491 537 508 473.5 c 128,-1,9
 525 410 525 410 525 335 c 0,10,11
 525 259 525 259 508 195.5 c 128,-1,12
 491 132 491 132 460.5 86 c 128,-1,13
 430 40 430 40 385.5 14 c 128,-1,14
 341 -12 341 -12 287 -12 c 0,15,16
 232 -12 232 -12 188.5 14 c 128,-1,17
 145 40 145 40 114 86 c 128,-1,18
 83 132 83 132 66.5 195.5 c 128,-1,19
 50 259 50 259 50 335 c 1,0,1
123 335 m 129,-1,21
 123 270 123 270 135.5 220 c 128,-1,22
 148 170 148 170 170 136 c 128,-1,23
 192 102 192 102 222.5 84.5 c 128,-1,24
 253 67 253 67 287 67 c 0,25,26
 322 67 322 67 352 84.5 c 128,-1,27
 382 102 382 102 404 136 c 128,-1,28
 426 170 426 170 439 220 c 128,-1,29
 452 270 452 270 452 335 c 256,30,31
 452 400 452 400 439 449.5 c 128,-1,32
 426 499 426 499 404 532.5 c 128,-1,33
 382 566 382 566 352 583.5 c 128,-1,34
 322 601 322 601 287 601 c 0,35,36
 253 601 253 601 222.5 583.5 c 128,-1,37
 192 566 192 566 170 532.5 c 128,-1,38
 148 499 148 499 135.5 449.5 c 128,-1,20
 123 400 123 400 123 335 c 129,-1,21
EndSplineSet
Validated: 1
Substitution2: "Single Substitution lookup 0 subtable" ordmasculine
EndChar

StartChar: P
Encoding: 80 80 51
Width: 576
GlyphClass: 2
Flags: W
HStem: 1 21G<110 184> 266 81<184 381.853> 589 79<184 379.479>
VStem: 110 74<1 266 347 589> 419 75<384.132 550.122>
LayerCount: 2
Fore
SplineSet
110 668 m 1,0,-1
 275 668 l 2,1,2
 323 668 323 668 363.5 659.5 c 128,-1,3
 404 651 404 651 433 628.5 c 128,-1,4
 462 606 462 606 478 567 c 128,-1,5
 494 528 494 528 494 466 c 256,6,7
 494 404 494 404 478 365 c 128,-1,8
 462 326 462 326 433 304 c 128,-1,9
 404 282 404 282 363.5 274 c 128,-1,10
 323 266 323 266 275 266 c 2,11,-1
 184 266 l 1,12,-1
 184 1 l 1,13,-1
 110 1 l 1,14,-1
 110 668 l 1,0,-1
184 589 m 1,15,-1
 184 347 l 1,16,-1
 281 347 l 2,17,18
 310 347 310 347 335 350.5 c 128,-1,19
 360 354 360 354 378.5 366 c 128,-1,20
 397 378 397 378 408 401.5 c 128,-1,21
 419 425 419 425 419 466 c 256,22,23
 419 507 419 507 408 531.5 c 128,-1,24
 397 556 397 556 378.5 568.5 c 128,-1,25
 360 581 360 581 335 585 c 128,-1,26
 310 589 310 589 281 589 c 2,27,-1
 184 589 l 1,15,-1
EndSplineSet
Validated: 1
EndChar

StartChar: Q
Encoding: 81 81 52
Width: 576
GlyphClass: 2
Flags: W
HStem: -12 79<207.396 347.97> 601 79<207.396 348.73>
VStem: 43 72<190.93 478.163> 441 72<206.984 479.838>
LayerCount: 2
Fore
SplineSet
278 680 m 129,-1,1
 332 680 332 680 376 654.5 c 128,-1,2
 420 629 420 629 450 583 c 128,-1,3
 480 537 480 537 496.5 473.5 c 128,-1,4
 513 410 513 410 513 335 c 0,5,6
 513 278 513 278 504 229.5 c 128,-1,7
 495 181 495 181 478 139 c 1,8,-1
 571 24 l 1,9,-1
 522 -44 l 1,10,-1
 435 65 l 1,11,12
 405 28 405 28 365.5 8 c 128,-1,13
 326 -12 326 -12 278 -12 c 0,14,15
 224 -12 224 -12 180.5 14 c 128,-1,16
 137 40 137 40 106.5 86 c 128,-1,17
 76 132 76 132 59.5 195.5 c 128,-1,18
 43 259 43 259 43 335 c 0,19,20
 43 410 43 410 59.5 473.5 c 128,-1,21
 76 537 76 537 106.5 583 c 128,-1,22
 137 629 137 629 180.5 654.5 c 128,-1,0
 224 680 224 680 278 680 c 129,-1,1
278 67 m 1,23,24
 309 67 309 67 337 82 c 128,-1,25
 365 97 365 97 387 126 c 1,26,-1
 252 294 l 1,27,-1
 300 362 l 1,28,-1
 425 206 l 1,29,30
 433 233 433 233 437 265 c 128,-1,31
 441 297 441 297 441 335 c 0,32,33
 441 400 441 400 428.5 449.5 c 128,-1,34
 416 499 416 499 394 532.5 c 128,-1,35
 372 566 372 566 342 583.5 c 128,-1,36
 312 601 312 601 278 601 c 256,37,38
 244 601 244 601 214 583.5 c 128,-1,39
 184 566 184 566 162.5 532.5 c 128,-1,40
 141 499 141 499 128 449.5 c 128,-1,41
 115 400 115 400 115 335 c 256,42,43
 115 270 115 270 128 220 c 128,-1,44
 141 170 141 170 162.5 136 c 128,-1,45
 184 102 184 102 214 84.5 c 128,-1,46
 244 67 244 67 278 67 c 1,23,24
EndSplineSet
Validated: 1
EndChar

StartChar: R
Encoding: 82 82 53
Width: 576
GlyphClass: 2
Flags: W
HStem: 0 21G<105 179 405.612 507> 281 79<179 257> 589 79<179 378.312>
VStem: 105 74<0 281 360 589> 414 76<394.573 553.539>
LayerCount: 2
Fore
SplineSet
271 668 m 1,0,1
 319 668 319 668 359 660.5 c 128,-1,2
 399 653 399 653 428 632 c 128,-1,3
 457 611 457 611 473.5 573.5 c 128,-1,4
 490 536 490 536 490 476 c 0,5,6
 490 442 490 442 484.5 411.5 c 128,-1,7
 479 381 479 381 462.5 356 c 128,-1,8
 446 331 446 331 418 313.5 c 128,-1,9
 390 296 390 296 344 288 c 1,10,-1
 507 0 l 1,11,-1
 417 0 l 1,12,-1
 257 281 l 1,13,-1
 179 281 l 1,14,-1
 179 0 l 1,15,-1
 105 0 l 1,16,-1
 105 668 l 1,17,-1
 271 668 l 1,0,1
179 360 m 1,18,-1
 277 360 l 2,19,20
 306 360 306 360 331 363.5 c 128,-1,21
 356 367 356 367 374.5 378.5 c 128,-1,22
 393 390 393 390 403.5 412.5 c 128,-1,23
 414 435 414 435 414 474 c 256,24,25
 414 513 414 513 403.5 535.5 c 128,-1,26
 393 558 393 558 374.5 570 c 128,-1,27
 356 582 356 582 331 585.5 c 128,-1,28
 306 589 306 589 277 589 c 2,29,-1
 179 589 l 1,30,-1
 179 360 l 1,18,-1
EndSplineSet
Validated: 1
EndChar

StartChar: S
Encoding: 83 83 54
Width: 576
GlyphClass: 2
Flags: W
HStem: -12 79<212.232 364.654> 601 79<206.221 355.131>
VStem: 84 69<124.291 148.638> 89 76<438.296 561.661> 414 78<115.634 247.613>
LayerCount: 2
Fore
SplineSet
153 172 m 1,0,1
 160 145 160 145 174 125 c 128,-1,2
 188 105 188 105 206.5 92.5 c 128,-1,3
 225 80 225 80 246.5 73.5 c 128,-1,4
 268 67 268 67 290 67 c 0,5,6
 313 67 313 67 335.5 74.5 c 128,-1,7
 358 82 358 82 375 96.5 c 128,-1,8
 392 111 392 111 403 133.5 c 128,-1,9
 414 156 414 156 414 186 c 0,10,11
 414 209 414 209 406.5 226 c 128,-1,12
 399 243 399 243 383.5 256.5 c 128,-1,13
 368 270 368 270 342 281 c 128,-1,14
 316 292 316 292 279 302 c 0,15,16
 248 310 248 310 214.5 321.5 c 128,-1,17
 181 333 181 333 153 354.5 c 128,-1,18
 125 376 125 376 107 411 c 128,-1,19
 89 446 89 446 89 501 c 0,20,21
 89 543 89 543 105.5 576.5 c 128,-1,22
 122 610 122 610 149.5 633 c 128,-1,23
 177 656 177 656 211.5 668 c 128,-1,24
 246 680 246 680 282 680 c 0,25,26
 310 680 310 680 337.5 672.5 c 128,-1,27
 365 665 365 665 389.5 649.5 c 128,-1,28
 414 634 414 634 433.5 610.5 c 128,-1,29
 453 587 453 587 466 555 c 1,30,-1
 398 530 l 1,31,32
 382 565 382 565 349 583 c 128,-1,33
 316 601 316 601 279 601 c 0,34,35
 258 601 258 601 237.5 594.5 c 128,-1,36
 217 588 217 588 200.5 575 c 128,-1,37
 184 562 184 562 174.5 542.5 c 128,-1,38
 165 523 165 523 165 497 c 0,39,40
 165 469 165 469 176.5 451 c 128,-1,41
 188 433 188 433 207 421 c 128,-1,42
 226 409 226 409 250.5 401 c 128,-1,43
 275 393 275 393 301 386 c 0,44,45
 336 377 336 377 370 364 c 128,-1,46
 404 351 404 351 431 329 c 128,-1,47
 458 307 458 307 475 271.5 c 128,-1,48
 492 236 492 236 492 182 c 0,49,50
 492 136 492 136 474.5 99.5 c 128,-1,51
 457 63 457 63 428 38.5 c 128,-1,52
 399 14 399 14 362 1 c 128,-1,53
 325 -12 325 -12 286 -12 c 0,54,55
 254 -12 254 -12 222 -2.5 c 128,-1,56
 190 7 190 7 162.5 26.5 c 128,-1,57
 135 46 135 46 114.5 76 c 128,-1,58
 94 106 94 106 84 146 c 1,59,-1
 153 172 l 1,0,1
EndSplineSet
Validated: 1
EndChar

StartChar: T
Encoding: 84 84 55
Width: 576
GlyphClass: 2
Flags: W
HStem: 0 21G<251 326> 587 81<73 251 326 504>
VStem: 251 75<0 587>
LayerCount: 2
Fore
SplineSet
73 668 m 1,0,-1
 504 668 l 1,1,-1
 504 587 l 1,2,-1
 326 587 l 1,3,-1
 326 0 l 1,4,-1
 251 0 l 1,5,-1
 251 587 l 1,6,-1
 73 587 l 1,7,-1
 73 668 l 1,0,-1
EndSplineSet
Validated: 1
EndChar

StartChar: U
Encoding: 85 85 56
Width: 576
GlyphClass: 2
Flags: W
HStem: -12 81<212.063 364.939> 648 20G<82 154 422 494>
VStem: 82 72<138.397 668> 422 72<138.397 668>
LayerCount: 2
Fore
SplineSet
154 668 m 1,0,-1
 154 272 l 2,1,2
 154 173 154 173 184.5 121 c 128,-1,3
 215 69 215 69 288 69 c 0,4,5
 362 69 362 69 392 121 c 128,-1,6
 422 173 422 173 422 272 c 2,7,-1
 422 668 l 1,8,-1
 494 668 l 1,9,-1
 494 279 l 2,10,11
 494 206 494 206 483 151.5 c 128,-1,12
 472 97 472 97 447 60.5 c 128,-1,13
 422 24 422 24 383 6 c 128,-1,14
 344 -12 344 -12 288 -12 c 256,15,16
 232 -12 232 -12 193 6 c 128,-1,17
 154 24 154 24 129.5 60.5 c 128,-1,18
 105 97 105 97 93.5 151.5 c 128,-1,19
 82 206 82 206 82 279 c 2,20,-1
 82 668 l 1,21,-1
 154 668 l 1,0,-1
EndSplineSet
Validated: 1
EndChar

StartChar: V
Encoding: 86 86 57
Width: 576
GlyphClass: 2
Flags: W
HStem: 0 21G<237.581 336.449> 648 20G<62 149.125 425.839 513>
LayerCount: 2
Fore
SplineSet
62 668 m 1,0,-1
 144 668 l 1,1,-1
 287 110 l 1,2,-1
 431 668 l 1,3,-1
 513 668 l 1,4,-1
 331 0 l 1,5,-1
 243 0 l 1,6,-1
 62 668 l 1,0,-1
EndSplineSet
Validated: 1
EndChar

StartChar: W
Encoding: 87 87 58
Width: 576
GlyphClass: 2
Flags: W
HStem: 0 21G<108.347 198.406 379.594 469.653> 648 20G<-10 68.442 245.775 332.225 509.558 588>
LayerCount: 2
Fore
SplineSet
-10 668 m 1,0,-1
 65 668 l 1,1,-1
 160 116 l 1,2,-1
 249 668 l 1,3,-1
 329 668 l 1,4,-1
 418 116 l 1,5,-1
 513 668 l 1,6,-1
 588 668 l 1,7,-1
 466 0 l 1,8,-1
 383 0 l 1,9,-1
 289 552 l 1,10,-1
 195 0 l 1,11,-1
 112 0 l 1,12,-1
 -10 668 l 1,0,-1
EndSplineSet
Validated: 1
EndChar

StartChar: X
Encoding: 88 88 59
Width: 576
GlyphClass: 2
Flags: W
HStem: 0 21G<51 151.094 423.83 524> 648 20G<62 161.184 412.816 513>
LayerCount: 2
Fore
SplineSet
243 344 m 1,0,-1
 62 668 l 1,1,-1
 150 668 l 1,2,-1
 287 423 l 1,3,-1
 424 668 l 1,4,-1
 513 668 l 1,5,-1
 332 344 l 1,6,-1
 524 0 l 1,7,-1
 435 0 l 1,8,-1
 287 265 l 1,9,-1
 140 0 l 1,10,-1
 51 0 l 1,11,-1
 243 344 l 1,0,-1
EndSplineSet
Validated: 1
EndChar

StartChar: Y
Encoding: 89 89 60
Width: 576
GlyphClass: 2
Flags: W
HStem: 0 21G<251 325> 648 20G<60 150.102 424.022 515>
VStem: 251 74<0 259>
LayerCount: 2
Fore
SplineSet
60 668 m 1,0,-1
 141 668 l 1,1,-1
 288 345 l 1,2,-1
 433 668 l 1,3,-1
 515 668 l 1,4,-1
 325 259 l 1,5,-1
 325 0 l 1,6,-1
 251 0 l 1,7,-1
 251 259 l 1,8,-1
 60 668 l 1,0,-1
EndSplineSet
Validated: 1
EndChar

StartChar: Z
Encoding: 90 90 61
Width: 576
GlyphClass: 2
Flags: W
HStem: 0 81<171 492> 587 81<95 393>
LayerCount: 2
Fore
SplineSet
83 81 m 1,0,-1
 393 587 l 1,1,-1
 95 587 l 1,2,-1
 95 668 l 1,3,-1
 480 668 l 1,4,-1
 480 587 l 1,5,-1
 171 81 l 1,6,-1
 492 81 l 1,7,-1
 492 0 l 1,8,-1
 83 0 l 1,9,-1
 83 81 l 1,0,-1
EndSplineSet
Validated: 1
EndChar

StartChar: bracketleft
Encoding: 91 91 62
Width: 576
GlyphClass: 2
Flags: W
HStem: -161 74<288 389> 594 74<288 389>
VStem: 222 167<-161 -87 594 668> 222 66<-87 594>
LayerCount: 2
Fore
SplineSet
222 -161 m 1,0,-1
 222 668 l 1,1,-1
 389 668 l 1,2,-1
 389 594 l 1,3,-1
 288 594 l 1,4,-1
 288 -87 l 1,5,-1
 389 -87 l 1,6,-1
 389 -161 l 1,7,-1
 222 -161 l 1,0,-1
EndSplineSet
Validated: 1
EndChar

StartChar: backslash
Encoding: 92 92 63
Width: 576
GlyphClass: 2
Flags: W
HStem: 0 21G<351.683 428> 648 20G<147 223.317>
VStem: 147 281
LayerCount: 2
Fore
SplineSet
147 668 m 1,0,-1
 217 668 l 1,1,-1
 428 0 l 1,2,-1
 358 0 l 1,3,-1
 147 668 l 1,0,-1
EndSplineSet
Validated: 1
EndChar

StartChar: bracketright
Encoding: 93 93 64
Width: 576
GlyphClass: 2
Flags: W
HStem: -161 74<187 288> 594 74<187 288>
VStem: 187 167<-161 -87 594 668> 288 66<-87 594>
LayerCount: 2
Fore
SplineSet
354 668 m 1,0,-1
 354 -161 l 1,1,-1
 187 -161 l 1,2,-1
 187 -87 l 1,3,-1
 288 -87 l 1,4,-1
 288 594 l 1,5,-1
 187 594 l 1,6,-1
 187 668 l 1,7,-1
 354 668 l 1,0,-1
EndSplineSet
Validated: 1
EndChar

StartChar: asciicircum
Encoding: 94 94 65
Width: 576
GlyphClass: 2
Flags: W
HStem: 648 20G<248.709 326.347>
LayerCount: 2
Fore
SplineSet
109 311 m 1,0,-1
 257 668 l 1,1,-1
 318 668 l 1,2,-1
 467 311 l 1,3,-1
 395 311 l 1,4,-1
 288 569 l 1,5,-1
 180 311 l 1,6,-1
 109 311 l 1,0,-1
EndSplineSet
Validated: 1
EndChar

StartChar: underscore
Encoding: 95 95 66
Width: 576
GlyphClass: 2
Flags: W
HStem: -79 79<136 441>
VStem: 136 305<-79 0>
LayerCount: 2
Fore
SplineSet
136 0 m 1,0,-1
 441 0 l 1,1,-1
 441 -79 l 1,2,-1
 136 -79 l 1,3,-1
 136 0 l 1,0,-1
EndSplineSet
Validated: 1
EndChar

StartChar: grave
Encoding: 96 96 67
Width: 576
GlyphClass: 2
Flags: W
HStem: 571 136
VStem: 222 131
LayerCount: 2
Fore
SplineSet
253 707 m 1,0,1
 259 707 259 707 265.5 704 c 128,-1,2
 272 701 272 701 278 692 c 2,3,-1
 353 571 l 1,4,-1
 297 571 l 1,5,6
 280 587 280 587 263.5 604.5 c 128,-1,7
 247 622 247 622 236 636 c 0,8,9
 227 647 227 647 224.5 654.5 c 128,-1,10
 222 662 222 662 222 669 c 0,11,12
 222 685 222 685 231 696 c 128,-1,13
 240 707 240 707 253 707 c 1,0,1
EndSplineSet
Validated: 1
Substitution2: "'case' Case-Sensitive Forms lookup 1 subtable" grave.case
EndChar

StartChar: a
Encoding: 97 97 68
Width: 576
GlyphClass: 2
Flags: W
HStem: -12 67<202.37 331.695> 0 21G<392.294 460> 239 67<265.87 377> 437 67<226.584 346.438>
VStem: 106 75<76.3549 184.103> 383 63<110.695 239 303.711 395.216> 397 63<0 29.75>
LayerCount: 2
Fore
SplineSet
377 306 m 1,0,1
 379 369 379 369 357 403 c 128,-1,2
 335 437 335 437 286 437 c 0,3,4
 250 437 250 437 227 416.5 c 128,-1,5
 204 396 204 396 197 360 c 1,6,-1
 132 384 l 1,7,8
 148 441 148 441 189.5 472.5 c 128,-1,9
 231 504 231 504 286 504 c 0,10,11
 369 504 369 504 406.5 456 c 128,-1,12
 444 408 444 408 445 303 c 2,13,-1
 446 187 l 2,14,15
 447 124 447 124 450.5 79.5 c 128,-1,16
 454 35 454 35 460 0 c 1,17,-1
 397 0 l 1,18,-1
 381 68 l 1,19,20
 363 30 363 30 330.5 9 c 128,-1,21
 298 -12 298 -12 244 -12 c 0,22,23
 216 -12 216 -12 191 -2.5 c 128,-1,24
 166 7 166 7 147 25.5 c 128,-1,25
 128 44 128 44 117 70.5 c 128,-1,26
 106 97 106 97 106 131 c 0,27,28
 106 175 106 175 125.5 205 c 128,-1,29
 145 235 145 235 180 254.5 c 128,-1,30
 215 274 215 274 265.5 285.5 c 128,-1,31
 316 297 316 297 377 306 c 1,0,1
181 133 m 1,32,33
 181 98 181 98 202 76.5 c 128,-1,34
 223 55 223 55 259 55 c 0,35,36
 282 55 282 55 304.5 62.5 c 128,-1,37
 327 70 327 70 344.5 87.5 c 128,-1,38
 362 105 362 105 372.5 134.5 c 128,-1,39
 383 164 383 164 383 208 c 2,40,-1
 383 239 l 1,41,42
 337 233 337 233 299.5 225.5 c 128,-1,43
 262 218 262 218 236 206 c 128,-1,44
 210 194 210 194 195.5 176.5 c 128,-1,45
 181 159 181 159 181 133 c 1,32,33
EndSplineSet
Validated: 33
Substitution2: "Single Substitution lookup 0 subtable" ordfeminine
EndChar

StartChar: b
Encoding: 98 98 69
Width: 576
GlyphClass: 2
Flags: W
HStem: -12 72<237.854 355.482> 0 21G<118 172.533> 432 72<237.854 355.482> 648 20G<118 185>
VStem: 118 67<121.258 370.742 418 668> 118 50<0 30.8824> 409 75<125.801 366.199>
LayerCount: 2
Fore
SplineSet
118 668 m 1,0,-1
 185 668 l 1,1,-1
 185 418 l 1,2,3
 203 457 203 457 235 480.5 c 128,-1,4
 267 504 267 504 314 504 c 0,5,6
 347 504 347 504 378 486.5 c 128,-1,7
 409 469 409 469 432.5 436 c 128,-1,8
 456 403 456 403 470 355 c 128,-1,9
 484 307 484 307 484 246 c 256,10,11
 484 185 484 185 470 137 c 128,-1,12
 456 89 456 89 432.5 56 c 128,-1,13
 409 23 409 23 378 5.5 c 128,-1,14
 347 -12 347 -12 314 -12 c 0,15,16
 267 -12 267 -12 235 11.5 c 128,-1,17
 203 35 203 35 185 75 c 1,18,-1
 168 0 l 1,19,-1
 118 0 l 1,20,-1
 118 668 l 1,0,-1
296 60 m 129,-1,22
 347 60 347 60 378 108.5 c 128,-1,23
 409 157 409 157 409 246 c 256,24,25
 409 335 409 335 378 383.5 c 128,-1,26
 347 432 347 432 296 432 c 256,27,28
 245 432 245 432 214 383.5 c 128,-1,29
 183 335 183 335 183 246 c 256,30,31
 183 157 183 157 214 108.5 c 128,-1,21
 245 60 245 60 296 60 c 129,-1,22
EndSplineSet
Validated: 1
EndChar

StartChar: c
Encoding: 99 99 70
Width: 576
GlyphClass: 2
Flags: W
HStem: -12 74<247.79 366.976> 430 74<245.948 365.406>
VStem: 116 74<131.735 362.309>
LayerCount: 2
Fore
SplineSet
310 504 m 1,0,1
 365 504 365 504 403.5 471 c 128,-1,2
 442 438 442 438 462 392 c 1,3,-1
 400 364 l 1,4,5
 386 394 386 394 361 412 c 128,-1,6
 336 430 336 430 306 430 c 0,7,8
 283 430 283 430 262 419 c 128,-1,9
 241 408 241 408 225 385.5 c 128,-1,10
 209 363 209 363 199.5 328.5 c 128,-1,11
 190 294 190 294 190 247 c 256,12,13
 190 200 190 200 199.5 165.5 c 128,-1,14
 209 131 209 131 225.5 108 c 128,-1,15
 242 85 242 85 262.5 73.5 c 128,-1,16
 283 62 283 62 306 62 c 0,17,18
 339 62 339 62 363 80.5 c 128,-1,19
 387 99 387 99 401 127 c 1,20,-1
 463 99 l 1,21,22
 441 51 441 51 399 19.5 c 128,-1,23
 357 -12 357 -12 303 -12 c 0,24,25
 260 -12 260 -12 225.5 7 c 128,-1,26
 191 26 191 26 166.5 60.5 c 128,-1,27
 142 95 142 95 129 142.5 c 128,-1,28
 116 190 116 190 116 246 c 256,29,30
 116 302 116 302 130 349 c 128,-1,31
 144 396 144 396 169 430.5 c 128,-1,32
 194 465 194 465 230 484.5 c 128,-1,33
 266 504 266 504 310 504 c 1,0,1
EndSplineSet
Validated: 1
EndChar

StartChar: d
Encoding: 100 100 71
Width: 576
GlyphClass: 2
Flags: W
HStem: -12 72<221.917 338.811> 0 21G<404.467 473> 432 72<221.917 338.811> 648 20G<392 459>
VStem: 93 75<125.801 366.199> 392 67<122.942 369.058 418 668> 409 64<0 30.8824>
LayerCount: 2
Fore
SplineSet
263 504 m 1,0,1
 310 504 310 504 341.5 480.5 c 128,-1,2
 373 457 373 457 392 418 c 1,3,-1
 392 668 l 1,4,-1
 459 668 l 1,5,-1
 459 187 l 2,6,7
 459 162 459 162 460.5 114 c 128,-1,8
 462 66 462 66 473 0 c 1,9,-1
 409 0 l 1,10,-1
 392 75 l 1,11,12
 373 35 373 35 341.5 11.5 c 128,-1,13
 310 -12 310 -12 263 -12 c 0,14,15
 230 -12 230 -12 198.5 5.5 c 128,-1,16
 167 23 167 23 144 56 c 128,-1,17
 121 89 121 89 107 137 c 128,-1,18
 93 185 93 185 93 246 c 256,19,20
 93 307 93 307 107 355 c 128,-1,21
 121 403 121 403 144 436 c 128,-1,22
 167 469 167 469 198.5 486.5 c 128,-1,23
 230 504 230 504 263 504 c 1,0,1
168 246 m 129,-1,25
 168 157 168 157 199 108.5 c 128,-1,26
 230 60 230 60 281 60 c 256,27,28
 332 60 332 60 362.5 108.5 c 128,-1,29
 393 157 393 157 393 246 c 256,30,31
 393 335 393 335 362.5 383.5 c 128,-1,32
 332 432 332 432 281 432 c 256,33,34
 230 432 230 432 199 383.5 c 128,-1,24
 168 335 168 335 168 246 c 129,-1,25
EndSplineSet
Validated: 1
EndChar

StartChar: e
Encoding: 101 101 72
Width: 576
GlyphClass: 2
Flags: W
HStem: -12 74<232.463 366.724> 225 67<174 410> 432 72<227.201 356.911>
VStem: 101 73<128.082 225 292 372.219> 410 71<292 373.317>
LayerCount: 2
Fore
SplineSet
295 504 m 1,0,1
 343 504 343 504 379 480.5 c 128,-1,2
 415 457 415 457 439 418 c 128,-1,3
 463 379 463 379 474 328.5 c 128,-1,4
 485 278 485 278 481 225 c 1,5,-1
 174 225 l 1,6,7
 175 178 175 178 187.5 146.5 c 128,-1,8
 200 115 200 115 218 96.5 c 128,-1,9
 236 78 236 78 257 70 c 128,-1,10
 278 62 278 62 297 62 c 0,11,12
 331 62 331 62 354 75 c 128,-1,13
 377 88 377 88 390 111 c 1,14,-1
 456 87 l 1,15,16
 434 43 434 43 393.5 15.5 c 128,-1,17
 353 -12 353 -12 297 -12 c 0,18,19
 250 -12 250 -12 213.5 8 c 128,-1,20
 177 28 177 28 152 63 c 128,-1,21
 127 98 127 98 114 145 c 128,-1,22
 101 192 101 192 101 247 c 0,23,24
 101 306 101 306 116 353.5 c 128,-1,25
 131 401 131 401 157 434.5 c 128,-1,26
 183 468 183 468 218.5 486 c 128,-1,27
 254 504 254 504 295 504 c 1,0,1
410 292 m 1,28,29
 410 318 410 318 401.5 343.5 c 128,-1,30
 393 369 393 369 378.5 388.5 c 128,-1,31
 364 408 364 408 343 420 c 128,-1,32
 322 432 322 432 295 432 c 0,33,34
 273 432 273 432 252 424 c 128,-1,35
 231 416 231 416 214.5 399.5 c 128,-1,36
 198 383 198 383 187.5 356.5 c 128,-1,37
 177 330 177 330 174 292 c 1,38,-1
 410 292 l 1,28,29
EndSplineSet
Validated: 33
EndChar

StartChar: f
Encoding: 102 102 73
Width: 576
GlyphClass: 2
Flags: W
HStem: 0 21G<222 290> 429 67<139 222 290 422> 635 71<297.739 422>
VStem: 222 68<0 429 496 621.588>
LayerCount: 2
Fore
SplineSet
139 429 m 5,0,-1
 139 496 l 5,1,-1
 222 496 l 1,2,-1
 222 570 l 2,3,4
 222 608 222 608 226 634 c 128,-1,5
 230 660 230 660 242 676 c 128,-1,6
 254 692 254 692 275 699 c 128,-1,7
 296 706 296 706 330 706 c 2,8,-1
 422 706 l 1,9,-1
 422 635 l 1,10,-1
 331 635 l 2,11,12
 305 635 305 635 297.5 622 c 128,-1,13
 290 609 290 609 290 571 c 2,14,-1
 290 496 l 1,15,-1
 422 496 l 1,16,-1
 422 429 l 1,17,-1
 290 429 l 1,18,-1
 290 0 l 1,19,-1
 222 0 l 1,20,-1
 222 429 l 1,21,-1
 139 429 l 5,0,-1
EndSplineSet
Validated: 524289
EndChar

StartChar: g
Encoding: 103 103 74
Width: 576
GlyphClass: 2
Flags: W
HStem: -192 74<220.262 351.344> 9 70<219.497 338.246> 432 72<219.008 337.483> 476 20G<402.128 456>
VStem: 94 73<141.734 370.095> 388 68<-81.0164 94 135.901 375.873> 407 49<467.263 496>
LayerCount: 2
Fore
SplineSet
262 504 m 1,0,1
 310 504 310 504 340 480.5 c 128,-1,2
 370 457 370 457 388 418 c 1,3,-1
 407 496 l 1,4,-1
 456 496 l 1,5,-1
 456 47 l 2,6,7
 456 10 456 10 454 -23.5 c 128,-1,8
 452 -57 452 -57 442 -85.5 c 128,-1,9
 432 -114 432 -114 412.5 -137 c 128,-1,10
 393 -160 393 -160 359 -176 c 0,11,12
 342 -184 342 -184 323 -188 c 128,-1,13
 304 -192 304 -192 283 -192 c 0,14,15
 259 -192 259 -192 234.5 -185.5 c 128,-1,16
 210 -179 210 -179 189 -165 c 128,-1,17
 168 -151 168 -151 152 -129 c 128,-1,18
 136 -107 136 -107 128 -76 c 1,19,-1
 196 -53 l 1,20,21
 201 -73 201 -73 210.5 -85.5 c 128,-1,22
 220 -98 220 -98 232 -105 c 128,-1,23
 244 -112 244 -112 257.5 -115 c 128,-1,24
 271 -118 271 -118 283 -118 c 0,25,26
 298 -118 298 -118 310 -115 c 128,-1,27
 322 -112 322 -112 328 -110 c 0,28,29
 346 -102 346 -102 357.5 -91 c 128,-1,30
 369 -80 369 -80 376 -63.5 c 128,-1,31
 383 -47 383 -47 385.5 -24.5 c 128,-1,32
 388 -2 388 -2 388 28 c 2,33,-1
 388 94 l 1,34,35
 370 55 370 55 340 32 c 128,-1,36
 310 9 310 9 262 9 c 0,37,38
 229 9 229 9 198.5 25 c 128,-1,39
 168 41 168 41 145 72.5 c 128,-1,40
 122 104 122 104 108 150 c 128,-1,41
 94 196 94 196 94 256 c 256,42,43
 94 316 94 316 108 362 c 128,-1,44
 122 408 122 408 145 439.5 c 128,-1,45
 168 471 168 471 198.5 487.5 c 128,-1,46
 229 504 229 504 262 504 c 1,0,1
167 256 m 129,-1,48
 167 171 167 171 198 125 c 128,-1,49
 229 79 229 79 279 79 c 0,50,51
 301 79 301 79 321.5 89 c 128,-1,52
 342 99 342 99 357 120.5 c 128,-1,53
 372 142 372 142 381.5 175.5 c 128,-1,54
 391 209 391 209 391 256 c 256,55,56
 391 303 391 303 381.5 336.5 c 128,-1,57
 372 370 372 370 357 391 c 128,-1,58
 342 412 342 412 321.5 422 c 128,-1,59
 301 432 301 432 279 432 c 0,60,61
 229 432 229 432 198 386.5 c 128,-1,47
 167 341 167 341 167 256 c 129,-1,48
EndSplineSet
Validated: 1
EndChar

StartChar: h
Encoding: 104 104 75
Width: 576
GlyphClass: 2
Flags: W
HStem: 0 21G<125 193 385 453> 432 72<242.84 356.212> 648 20G<125 193>
VStem: 125 68<0 379.523 421 668> 385 68<0 401.693>
LayerCount: 2
Fore
SplineSet
193 668 m 1,0,-1
 193 421 l 1,1,2
 209 456 209 456 240 480 c 128,-1,3
 271 504 271 504 321 504 c 0,4,5
 357 504 357 504 382.5 490 c 128,-1,6
 408 476 408 476 423.5 451 c 128,-1,7
 439 426 439 426 446 391 c 128,-1,8
 453 356 453 356 453 314 c 2,9,-1
 453 0 l 1,10,-1
 385 0 l 1,11,-1
 385 289 l 2,12,13
 385 318 385 318 382.5 343.5 c 128,-1,14
 380 369 380 369 370.5 389 c 128,-1,15
 361 409 361 409 344 420.5 c 128,-1,16
 327 432 327 432 298 432 c 0,17,18
 249 432 249 432 221 390.5 c 128,-1,19
 193 349 193 349 193 269 c 2,20,-1
 193 0 l 1,21,-1
 125 0 l 1,22,-1
 125 668 l 1,23,-1
 193 668 l 1,0,-1
EndSplineSet
Validated: 1
EndChar

StartChar: i
Encoding: 105 105 76
Width: 576
GlyphClass: 2
Flags: W
HStem: 0 21G<290 358> 429 67<173 290> 590 125<288.955 359.53>
VStem: 274 101<609.08 696.436> 290 68<0 429>
LayerCount: 2
Fore
SplineSet
274 653 m 129,-1,1
 274 679 274 679 288.5 697 c 128,-1,2
 303 715 303 715 324 715 c 256,3,4
 345 715 345 715 360 697 c 128,-1,5
 375 679 375 679 375 653 c 256,6,7
 375 627 375 627 360 608.5 c 128,-1,8
 345 590 345 590 324 590 c 256,9,10
 303 590 303 590 288.5 608.5 c 128,-1,0
 274 627 274 627 274 653 c 129,-1,1
173 496 m 1,11,-1
 358 496 l 1,12,-1
 358 0 l 1,13,-1
 290 0 l 1,14,-1
 290 429 l 1,15,-1
 173 429 l 1,16,-1
 173 496 l 1,11,-1
EndSplineSet
Validated: 1
EndChar

StartChar: j
Encoding: 106 106 77
Width: 576
GlyphClass: 2
Flags: W
HStem: -160.5 73.5<189 320.797> 476 20G<334 402> 590 125<332.47 403.045>
VStem: 317 101<609.08 696.436> 334 68<-74.5125 496>
LayerCount: 2
Fore
SplineSet
189 -159 m 5,0,-1
 189 -86 l 5,1,2
 200 -87 200 -87 221.5 -87 c 128,-1,3
 243 -87 243 -87 252 -87 c 0,4,5
 278 -87 278 -87 294 -83.5 c 128,-1,6
 310 -80 310 -80 318.5 -69 c 128,-1,7
 327 -58 327 -58 330.5 -39 c 128,-1,8
 334 -20 334 -20 334 12 c 2,9,-1
 334 496 l 1,10,-1
 402 496 l 1,11,-1
 402 7 l 2,12,13
 402 -41 402 -41 395 -73.5 c 128,-1,14
 388 -106 388 -106 372 -125.5 c 128,-1,15
 356 -145 356 -145 328 -153 c 128,-1,16
 300 -161 300 -161 259 -161 c 0,17,18
 248 -161 248 -161 224.5 -160.5 c 128,-1,19
 201 -160 201 -160 189 -159 c 5,0,-1
317 653 m 129,-1,21
 317 679 317 679 332 697 c 128,-1,22
 347 715 347 715 368 715 c 256,23,24
 389 715 389 715 403.5 697 c 128,-1,25
 418 679 418 679 418 653 c 256,26,27
 418 627 418 627 403.5 608.5 c 128,-1,28
 389 590 389 590 368 590 c 256,29,30
 347 590 347 590 332 608.5 c 128,-1,20
 317 627 317 627 317 653 c 129,-1,21
EndSplineSet
Validated: 1
EndChar

StartChar: k
Encoding: 107 107 78
Width: 576
GlyphClass: 2
Flags: W
HStem: 0 21G<146 214 383.297 478> 476 20G<361.471 458> 648 20G<146 214>
VStem: 146 68<0 166 273 668>
LayerCount: 2
Fore
SplineSet
146 0 m 1,0,-1
 146 668 l 1,1,-1
 214 668 l 1,2,-1
 214 273 l 1,3,-1
 376 496 l 1,4,-1
 458 496 l 1,5,-1
 306 291 l 1,6,-1
 478 0 l 1,7,-1
 395 0 l 1,8,-1
 261 229 l 1,9,-1
 214 166 l 1,10,-1
 214 0 l 1,11,-1
 146 0 l 1,0,-1
EndSplineSet
Validated: 1
EndChar

StartChar: l
Encoding: 108 108 79
Width: 576
GlyphClass: 2
Flags: W
HStem: 0 74<304.708 373> 647 20G<230 298>
VStem: 230 68<87.4124 667>
LayerCount: 2
Fore
SplineSet
230 124 m 1,0,-1
 230 667 l 1,1,-1
 298 667 l 1,2,-1
 298 138 l 2,3,4
 298 100 298 100 304.5 87 c 128,-1,5
 311 74 311 74 339 74 c 2,6,-1
 373 74 l 5,7,-1
 373 0 l 5,8,-1
 325 0 l 2,9,10
 296 0 296 0 277.5 5 c 128,-1,11
 259 10 259 10 248.5 23.5 c 128,-1,12
 238 37 238 37 234 61 c 128,-1,13
 230 85 230 85 230 124 c 1,0,-1
EndSplineSet
Validated: 1
EndChar

StartChar: m
Encoding: 109 109 80
Width: 576
GlyphClass: 2
Flags: W
HStem: 0 21G<57 121 261 316 454 518> 432 72<147.61 228.368 352.094 438.635> 476 20G<57 106.267>
VStem: 57 64<0 407.673> 57 45<463.188 496> 261 55<0 399.082> 454 64<0 416.055>
LayerCount: 2
Fore
SplineSet
57 496 m 1,0,-1
 102 496 l 1,1,-1
 118 421 l 1,2,3
 122 454 122 454 145.5 480 c 0,4,5
 167 504 167 504 192 504 c 256,6,7
 233 504 233 504 263.5 481 c 128,-1,8
 294 458 294 458 306 417 c 1,9,10
 328 463 328 463 353.5 483.5 c 128,-1,11
 379 504 379 504 417 504 c 0,12,13
 431 504 431 504 452.5 493 c 0,14,15
 480 479 480 479 492.5 452.5 c 128,-1,16
 505 426 505 426 511.5 391 c 128,-1,17
 518 356 518 356 518 314 c 2,18,-1
 518 0 l 1,19,-1
 454 0 l 1,20,-1
 454 289 l 2,21,22
 454 318 454 318 453 343.5 c 128,-1,23
 452 369 452 369 448.5 389 c 128,-1,24
 445 409 445 409 426.5 420.5 c 128,-1,25
 408 432 408 432 389 432 c 0,26,27
 349 432 349 432 332.5 390.5 c 128,-1,28
 316 349 316 349 316 269 c 6,29,-1
 316 0 l 5,30,-1
 261 0 l 1,31,-1
 261 289 l 2,32,33
 261 318 261 318 256.5 343.5 c 128,-1,34
 252 369 252 369 244 389 c 128,-1,35
 236 409 236 409 224.5 420.5 c 128,-1,36
 213 432 213 432 189 432 c 0,37,38
 149 432 149 432 135 390.5 c 128,-1,39
 121 349 121 349 121 269 c 2,40,-1
 121 0 l 1,41,-1
 57 0 l 1,42,-1
 57 496 l 1,0,-1
EndSplineSet
Validated: 524289
EndChar

StartChar: n
Encoding: 110 110 81
Width: 576
GlyphClass: 2
Flags: W
HStem: 0 21G<116 183 395 462> 432 72<243.776 365.212> 476 20G<116 170.8>
VStem: 116 67<0 368.932> 116 50<466.833 496> 395 67<0 399.594>
LayerCount: 2
Fore
SplineSet
166 496 m 1,0,-1
 184 421 l 1,1,2
 200 456 200 456 240 480 c 128,-1,3
 280 504 280 504 330 504 c 0,4,5
 366 504 366 504 391.5 490 c 128,-1,6
 417 476 417 476 432.5 451 c 128,-1,7
 448 426 448 426 455 391 c 128,-1,8
 462 356 462 356 462 314 c 2,9,-1
 462 0 l 1,10,-1
 395 0 l 5,11,-1
 395 289 l 6,12,13
 395 318 395 318 392 343.5 c 128,-1,14
 389 369 389 369 379.5 389 c 128,-1,15
 370 409 370 409 353 420.5 c 128,-1,16
 336 432 336 432 307 432 c 0,17,18
 258 432 258 432 220.5 390.5 c 128,-1,19
 183 349 183 349 183 269 c 2,20,-1
 183 0 l 1,21,-1
 116 0 l 1,22,-1
 116 496 l 1,23,-1
 166 496 l 1,0,-1
EndSplineSet
Validated: 1
EndChar

StartChar: o
Encoding: 111 111 82
Width: 576
GlyphClass: 2
Flags: W
HStem: -12 74<228.59 347.105> 430 74<227.453 348.246>
VStem: 97 72<134.213 358.993> 407 72<134.213 358.993>
LayerCount: 2
Fore
SplineSet
97 246 m 129,-1,1
 97 313 97 313 114 362 c 128,-1,2
 131 411 131 411 158 442.5 c 128,-1,3
 185 474 185 474 219 489 c 128,-1,4
 253 504 253 504 288 504 c 0,5,6
 322 504 322 504 356.5 489 c 128,-1,7
 391 474 391 474 418 442.5 c 128,-1,8
 445 411 445 411 462 362 c 128,-1,9
 479 313 479 313 479 246 c 256,10,11
 479 179 479 179 462 130 c 128,-1,12
 445 81 445 81 418 49.5 c 128,-1,13
 391 18 391 18 356.5 3 c 128,-1,14
 322 -12 322 -12 288 -12 c 0,15,16
 253 -12 253 -12 219 3 c 128,-1,17
 185 18 185 18 158 49.5 c 128,-1,18
 131 81 131 81 114 130 c 128,-1,0
 97 179 97 179 97 246 c 129,-1,1
169 246 m 129,-1,20
 169 198 169 198 179.5 163.5 c 128,-1,21
 190 129 190 129 207 106.5 c 128,-1,22
 224 84 224 84 245 73 c 128,-1,23
 266 62 266 62 288 62 c 256,24,25
 310 62 310 62 331 73 c 128,-1,26
 352 84 352 84 369 106.5 c 128,-1,27
 386 129 386 129 396.5 163.5 c 128,-1,28
 407 198 407 198 407 246 c 256,29,30
 407 294 407 294 396.5 329 c 128,-1,31
 386 364 386 364 369 386.5 c 128,-1,32
 352 409 352 409 331 419.5 c 128,-1,33
 310 430 310 430 288 430 c 256,34,35
 266 430 266 430 245 419.5 c 128,-1,36
 224 409 224 409 207 386.5 c 128,-1,37
 190 364 190 364 179.5 329 c 128,-1,19
 169 294 169 294 169 246 c 129,-1,20
EndSplineSet
Validated: 1
Substitution2: "Single Substitution lookup 0 subtable" ordmasculine
EndChar

StartChar: p
Encoding: 112 112 83
Width: 576
GlyphClass: 2
Flags: W
HStem: -161 21G<118 185> -12 72<237.854 355.482> 432 72<237.854 355.482> 476 20G<118 171.615>
VStem: 118 67<-161 75 121.258 370.742> 118 49<465.667 496> 409 75<125.801 365.976>
LayerCount: 2
Fore
SplineSet
118 496 m 1,0,-1
 167 496 l 1,1,-1
 185 418 l 1,2,3
 203 457 203 457 235 480.5 c 128,-1,4
 267 504 267 504 314 504 c 0,5,6
 347 504 347 504 378 487 c 128,-1,7
 409 470 409 470 432.5 437 c 128,-1,8
 456 404 456 404 470 356 c 128,-1,9
 484 308 484 308 484 246 c 0,10,11
 484 185 484 185 470 137 c 128,-1,12
 456 89 456 89 432.5 56 c 128,-1,13
 409 23 409 23 378 5.5 c 128,-1,14
 347 -12 347 -12 314 -12 c 0,15,16
 267 -12 267 -12 235 11.5 c 128,-1,17
 203 35 203 35 185 75 c 1,18,-1
 185 -161 l 1,19,-1
 118 -161 l 1,20,-1
 118 496 l 1,0,-1
296 60 m 129,-1,22
 347 60 347 60 378 108.5 c 128,-1,23
 409 157 409 157 409 246 c 256,24,25
 409 335 409 335 378 383.5 c 128,-1,26
 347 432 347 432 296 432 c 256,27,28
 245 432 245 432 214 383.5 c 128,-1,29
 183 335 183 335 183 246 c 256,30,31
 183 157 183 157 214 108.5 c 128,-1,21
 245 60 245 60 296 60 c 129,-1,22
EndSplineSet
Validated: 1
EndChar

StartChar: q
Encoding: 113 113 84
Width: 576
GlyphClass: 2
Flags: W
HStem: -173 79<437.203 528.313> -12 72<185.852 303.811> 432 72<185.852 303.811> 476 20G<370.385 424>
VStem: 59 74<124.94 367.56> 357 67<-71.8268 75 122.942 369.058> 375 49<465.667 496>
LayerCount: 2
Fore
SplineSet
59 246 m 1,0,1
 59 308 59 308 72.5 356 c 128,-1,2
 86 404 86 404 109.5 437 c 128,-1,3
 133 470 133 470 163.5 487 c 128,-1,4
 194 504 194 504 228 504 c 0,5,6
 275 504 275 504 306.5 480.5 c 128,-1,7
 338 457 338 457 357 418 c 1,8,-1
 375 496 l 1,9,-1
 424 496 l 1,10,-1
 424 -24 l 2,11,12
 424 -51 424 -51 437 -72.5 c 128,-1,13
 450 -94 450 -94 480 -94 c 0,14,15
 501 -94 501 -94 529 -81 c 1,16,-1
 529 -159 l 1,17,18
 513 -165 513 -165 495.5 -169 c 128,-1,19
 478 -173 478 -173 461 -173 c 0,20,21
 441 -173 441 -173 422 -166 c 128,-1,22
 403 -159 403 -159 388.5 -142.5 c 128,-1,23
 374 -126 374 -126 365.5 -98 c 128,-1,24
 357 -70 357 -70 357 -27 c 2,25,-1
 357 75 l 1,26,27
 338 35 338 35 306.5 11.5 c 128,-1,28
 275 -12 275 -12 228 -12 c 0,29,30
 194 -12 194 -12 163.5 5.5 c 128,-1,31
 133 23 133 23 109.5 56 c 128,-1,32
 86 89 86 89 72.5 137 c 128,-1,33
 59 185 59 185 59 246 c 1,0,1
246 60 m 1,34,35
 297 60 297 60 327.5 108.5 c 128,-1,36
 358 157 358 157 358 246 c 256,37,38
 358 335 358 335 327.5 383.5 c 128,-1,39
 297 432 297 432 246 432 c 0,40,41
 194 432 194 432 163.5 383.5 c 128,-1,42
 133 335 133 335 133 246 c 256,43,44
 133 157 133 157 163.5 108.5 c 128,-1,45
 194 60 194 60 246 60 c 1,34,35
EndSplineSet
Validated: 1
EndChar

StartChar: r
Encoding: 114 114 85
Width: 576
GlyphClass: 2
Flags: W
HStem: 0 21G<170 238> 403 101<349.499 424> 476 20G<170 223.783>
VStem: 170 68<0 346.42> 170 49<466.727 496>
LayerCount: 2
Fore
SplineSet
170 496 m 1,0,-1
 219 496 l 1,1,-1
 241 404 l 1,2,3
 262 449 262 449 334 476.5 c 128,-1,4
 406 504 406 504 457 504 c 1,5,-1
 424 403 l 1,6,7
 382 403 382 403 334.5 396.5 c 128,-1,8
 287 390 287 390 270 364.5 c 128,-1,9
 253 339 253 339 245.5 301 c 128,-1,10
 238 263 238 263 238 213 c 2,11,-1
 238 0 l 1,12,-1
 170 0 l 1,13,-1
 170 496 l 1,0,-1
EndSplineSet
Validated: 1
EndChar

StartChar: s
Encoding: 115 115 86
Width: 576
GlyphClass: 2
Flags: W
HStem: -12 71<223.479 357.63> 434 71<218.348 345.36>
VStem: 130 69<323.313 414.476> 385 69<85.5681 185.817>
LayerCount: 2
Fore
SplineSet
188 142 m 1,0,1
 192 120 192 120 202.5 104 c 128,-1,2
 213 88 213 88 227 78 c 128,-1,3
 241 68 241 68 257 63.5 c 128,-1,4
 273 59 273 59 290 59 c 0,5,6
 308 59 308 59 325 64 c 128,-1,7
 342 69 342 69 355.5 79 c 128,-1,8
 369 89 369 89 377 102.5 c 128,-1,9
 385 116 385 116 385 133 c 0,10,11
 385 167 385 167 366 184 c 128,-1,12
 347 201 347 201 318.5 210.5 c 128,-1,13
 290 220 290 220 257.5 227 c 128,-1,14
 225 234 225 234 196.5 248.5 c 128,-1,15
 168 263 168 263 149 290.5 c 128,-1,16
 130 318 130 318 130 367 c 0,17,18
 130 400 130 400 143.5 426 c 128,-1,19
 157 452 157 452 178.5 469.5 c 128,-1,20
 200 487 200 487 228 496 c 128,-1,21
 256 505 256 505 285 505 c 0,22,23
 333 505 333 505 375 480.5 c 128,-1,24
 417 456 417 456 435 404 c 1,25,-1
 371 375 l 1,26,27
 361 405 361 405 334.5 419.5 c 128,-1,28
 308 434 308 434 280 434 c 0,29,30
 265 434 265 434 250 429.5 c 128,-1,31
 235 425 235 425 224 417 c 128,-1,32
 213 409 213 409 206 396.5 c 128,-1,33
 199 384 199 384 199 368 c 0,34,35
 199 338 199 338 218 324 c 128,-1,36
 237 310 237 310 265.5 301.5 c 128,-1,37
 294 293 294 293 326.5 286 c 128,-1,38
 359 279 359 279 387.5 263 c 128,-1,39
 416 247 416 247 435 218 c 128,-1,40
 454 189 454 189 454 136 c 0,41,42
 454 101 454 101 440.5 73.5 c 128,-1,43
 427 46 427 46 403.5 27 c 128,-1,44
 380 8 380 8 351 -2 c 128,-1,45
 322 -12 322 -12 290 -12 c 0,46,47
 265 -12 265 -12 239 -4.5 c 128,-1,48
 213 3 213 3 190 18 c 128,-1,49
 167 33 167 33 149.5 56.5 c 128,-1,50
 132 80 132 80 122 112 c 1,51,-1
 188 142 l 1,0,1
EndSplineSet
Validated: 1
EndChar

StartChar: t
Encoding: 116 116 87
Width: 576
GlyphClass: 2
Flags: W
HStem: 0 74<278.875 415> 429 67<130 208 276 415>
VStem: 208 68<76.0574 429 496 621>
LayerCount: 2
Fore
SplineSet
208 496 m 1,0,-1
 208 621 l 1,1,-1
 276 621 l 1,2,-1
 276 496 l 1,3,-1
 415 496 l 5,4,-1
 415 429 l 5,5,-1
 276 429 l 1,6,-1
 276 138 l 2,7,8
 276 119 276 119 277 106.5 c 128,-1,9
 278 94 278 94 282.5 87 c 128,-1,10
 287 80 287 80 295 77 c 128,-1,11
 303 74 303 74 317 74 c 2,12,-1
 415 74 l 5,13,-1
 415 0 l 5,14,-1
 303 0 l 2,15,16
 274 0 274 0 255.5 5 c 128,-1,17
 237 10 237 10 226.5 23.5 c 128,-1,18
 216 37 216 37 212 61 c 128,-1,19
 208 85 208 85 208 124 c 2,20,-1
 208 429 l 1,21,-1
 130 429 l 1,22,-1
 130 496 l 1,23,-1
 208 496 l 1,0,-1
EndSplineSet
Validated: 1
EndChar

StartChar: u
Encoding: 117 117 88
Width: 576
GlyphClass: 2
Flags: W
HStem: -12 74<222.002 329.918> 0 21G<391.278 447> 477 20G<126 194 379 447>
VStem: 126 68<91.6504 497> 379 68<111.03 497> 396 51<0 29.6471>
LayerCount: 2
Fore
SplineSet
126 497 m 1,0,-1
 194 497 l 1,1,-1
 194 205 l 2,2,3
 194 176 194 176 196.5 150 c 128,-1,4
 199 124 199 124 208 104.5 c 128,-1,5
 217 85 217 85 233.5 73.5 c 128,-1,6
 250 62 250 62 278 62 c 0,7,8
 326 62 326 62 352.5 103 c 128,-1,9
 379 144 379 144 379 224 c 2,10,-1
 379 497 l 1,11,-1
 447 497 l 1,12,-1
 447 0 l 1,13,-1
 396 0 l 1,14,-1
 379 72 l 1,15,16
 362 36 362 36 333 12 c 128,-1,17
 304 -12 304 -12 254 -12 c 0,18,19
 220 -12 220 -12 195 2 c 128,-1,20
 170 16 170 16 155 41.5 c 128,-1,21
 140 67 140 67 133 102.5 c 128,-1,22
 126 138 126 138 126 180 c 2,23,-1
 126 497 l 1,0,-1
EndSplineSet
Validated: 1
EndChar

StartChar: v
Encoding: 118 118 89
Width: 576
GlyphClass: 2
Flags: W
HStem: 0 21G<245.427 329.573> 476 20G<89 169.266 405.784 486>
LayerCount: 2
Fore
SplineSet
89 496 m 1,0,-1
 163 496 l 1,1,-1
 288 97 l 5,2,-1
 412 496 l 1,3,-1
 486 496 l 1,4,-1
 323 0 l 1,5,-1
 252 0 l 1,6,-1
 89 496 l 1,0,-1
EndSplineSet
Validated: 1
EndChar

StartChar: w
Encoding: 119 119 90
Width: 576
GlyphClass: 2
Flags: W
HStem: 0 21G<140.524 208.211 366.84 435.435> 476 20G<34 107.978 249.804 326.142 467.022 541>
LayerCount: 2
Fore
SplineSet
34 496 m 1,0,-1
 104 496 l 1,1,-1
 177 129 l 1,2,-1
 254 496 l 1,3,-1
 322 496 l 1,4,-1
 398 129 l 1,5,-1
 471 496 l 1,6,-1
 541 496 l 1,7,-1
 431 0 l 1,8,-1
 371 0 l 1,9,-1
 288 399 l 1,10,-1
 204 0 l 1,11,-1
 145 0 l 1,12,-1
 34 496 l 1,0,-1
EndSplineSet
Validated: 1
EndChar

StartChar: x
Encoding: 120 120 91
Width: 576
GlyphClass: 2
Flags: W
HStem: 0 21G<101 192.459 382.432 474> 476 20G<108 199.512 375.372 467>
LayerCount: 2
Fore
SplineSet
248 255 m 1,0,-1
 108 496 l 1,1,-1
 188 496 l 1,2,-1
 287 324 l 1,3,-1
 387 496 l 1,4,-1
 467 496 l 1,5,-1
 328 255 l 1,6,-1
 474 0 l 1,7,-1
 394 0 l 1,8,-1
 287 185 l 1,9,-1
 181 0 l 1,10,-1
 101 0 l 1,11,-1
 248 255 l 1,0,-1
EndSplineSet
Validated: 1
EndChar

StartChar: y
Encoding: 121 121 92
Width: 576
GlyphClass: 2
Flags: W
HStem: -161 74<144 237.047> 475 20G<114 194.183 381.817 461>
VStem: 114 75<471.055 495>
LayerCount: 2
Fore
SplineSet
189 495 m 1,0,-1
 288 113 l 1,1,-1
 387 495 l 1,2,-1
 461 495 l 1,3,-1
 319 -22 l 2,4,5
 308 -62 308 -62 297.5 -89 c 128,-1,6
 287 -116 287 -116 272 -132 c 128,-1,7
 257 -148 257 -148 235 -154.5 c 128,-1,8
 213 -161 213 -161 179 -161 c 2,9,-1
 144 -161 l 1,10,-1
 144 -87 l 1,11,-1
 172 -87 l 2,12,13
 193 -87 193 -87 207 -84.5 c 128,-1,14
 221 -82 221 -82 230.5 -73 c 128,-1,15
 240 -64 240 -64 246 -47 c 128,-1,16
 252 -30 252 -30 259 -1 c 1,17,-1
 114 495 l 1,18,-1
 189 495 l 1,0,-1
EndSplineSet
Validated: 1
EndChar

StartChar: z
Encoding: 122 122 93
Width: 576
GlyphClass: 2
Flags: W
HStem: 0 74<211 450> 422 74<141 365>
VStem: 134 316<0 74>
LayerCount: 2
Fore
SplineSet
134 74 m 1,0,-1
 365 422 l 1,1,-1
 141 422 l 1,2,-1
 141 496 l 1,3,-1
 442 496 l 1,4,-1
 442 422 l 1,5,-1
 211 74 l 1,6,-1
 450 74 l 1,7,-1
 450 0 l 1,8,-1
 134 0 l 1,9,-1
 134 74 l 1,0,-1
EndSplineSet
Validated: 1
EndChar

StartChar: braceleft
Encoding: 123 123 94
Width: 576
GlyphClass: 2
Flags: W
HStem: -161 71<321.224 389> 220 67<189 233.356> 597 71<321.224 389>
VStem: 246 68<-77.1029 208.998 298.306 583.588>
CounterMasks: 1 e0
LayerCount: 2
Fore
SplineSet
189 220 m 1,0,-1
 189 287 l 1,1,2
 208 287 208 287 219 294 c 128,-1,3
 230 301 230 301 236 313.5 c 128,-1,4
 242 326 242 326 244 343.5 c 128,-1,5
 246 361 246 361 246 382 c 2,6,-1
 246 532 l 2,7,8
 246 571 246 571 250 597 c 128,-1,9
 254 623 254 623 266 638.5 c 128,-1,10
 278 654 278 654 299 661 c 128,-1,11
 320 668 320 668 354 668 c 2,12,-1
 389 668 l 1,13,-1
 389 597 l 1,14,-1
 355 597 l 2,15,16
 328 597 328 597 321 584 c 128,-1,17
 314 571 314 571 314 533 c 2,18,-1
 314 380 l 2,19,20
 314 317 314 317 296.5 290 c 128,-1,21
 279 263 279 263 250 253 c 1,22,23
 264 248 264 248 276 239.5 c 128,-1,24
 288 231 288 231 296.5 217 c 128,-1,25
 305 203 305 203 309.5 181 c 128,-1,26
 314 159 314 159 314 127 c 2,27,-1
 314 -26 l 2,28,29
 314 -65 314 -65 321 -77.5 c 128,-1,30
 328 -90 328 -90 355 -90 c 2,31,-1
 389 -90 l 1,32,-1
 389 -161 l 1,33,-1
 354 -161 l 2,34,35
 320 -161 320 -161 299 -154 c 128,-1,36
 278 -147 278 -147 266 -131.5 c 128,-1,37
 254 -116 254 -116 250 -90 c 128,-1,38
 246 -64 246 -64 246 -25 c 2,39,-1
 246 125 l 2,40,41
 246 146 246 146 244 163.5 c 128,-1,42
 242 181 242 181 236 193.5 c 128,-1,43
 230 206 230 206 219 213 c 128,-1,44
 208 220 208 220 189 220 c 1,0,-1
EndSplineSet
Validated: 1
EndChar

StartChar: bar
Encoding: 124 124 95
Width: 576
GlyphClass: 2
Flags: W
HStem: -161 21G<255 321> 648 20G<255 321>
VStem: 255 66<-161 668>
LayerCount: 2
Fore
SplineSet
255 668 m 1,0,-1
 321 668 l 1,1,-1
 321 -161 l 1,2,-1
 255 -161 l 1,3,-1
 255 668 l 1,0,-1
EndSplineSet
Validated: 1
EndChar

StartChar: braceright
Encoding: 125 125 96
Width: 576
GlyphClass: 2
Flags: W
HStem: -161 71<186 256.792> 220 67<341.644 386> 597 71<186 256.792>
VStem: 261 68<-88.017 208.998 297.938 594.62>
CounterMasks: 1 e0
LayerCount: 2
Fore
SplineSet
186 597 m 1,0,-1
 186 668 l 1,1,-1
 221 668 l 2,2,3
 255 668 255 668 276 661 c 128,-1,4
 297 654 297 654 309 638.5 c 128,-1,5
 321 623 321 623 325 597 c 128,-1,6
 329 571 329 571 329 532 c 2,7,-1
 329 382 l 2,8,9
 329 361 329 361 331 343.5 c 128,-1,10
 333 326 333 326 339 313.5 c 128,-1,11
 345 301 345 301 356 294 c 128,-1,12
 367 287 367 287 386 287 c 1,13,-1
 386 220 l 1,14,15
 367 220 367 220 356 213 c 128,-1,16
 345 206 345 206 339 193.5 c 128,-1,17
 333 181 333 181 331 163.5 c 128,-1,18
 329 146 329 146 329 125 c 2,19,-1
 329 -25 l 2,20,21
 329 -64 329 -64 325 -90 c 128,-1,22
 321 -116 321 -116 309 -131.5 c 128,-1,23
 297 -147 297 -147 276 -154 c 128,-1,24
 255 -161 255 -161 221 -161 c 2,25,-1
 186 -161 l 1,26,-1
 186 -90 l 1,27,-1
 219 -90 l 2,28,29
 233 -90 233 -90 241 -87.5 c 128,-1,30
 249 -85 249 -85 253.5 -77.5 c 128,-1,31
 258 -70 258 -70 259.5 -58 c 128,-1,32
 261 -46 261 -46 261 -26 c 2,33,-1
 261 127 l 2,34,35
 261 159 261 159 265.5 181 c 128,-1,36
 270 203 270 203 278.5 217 c 128,-1,37
 287 231 287 231 298.5 239.5 c 128,-1,38
 310 248 310 248 325 253 c 1,39,40
 310 258 310 258 298.5 266.5 c 128,-1,41
 287 275 287 275 278.5 290 c 128,-1,42
 270 305 270 305 265.5 327 c 128,-1,43
 261 349 261 349 261 380 c 2,44,-1
 261 533 l 2,45,46
 261 552 261 552 259.5 564.5 c 128,-1,47
 258 577 258 577 253.5 584 c 128,-1,48
 249 591 249 591 241 594 c 128,-1,49
 233 597 233 597 219 597 c 2,50,-1
 186 597 l 1,0,-1
EndSplineSet
Validated: 1
EndChar

StartChar: asciitilde
Encoding: 126 126 97
Width: 576
GlyphClass: 2
Flags: W
HStem: 195 73<308.934 404.408> 249 74<172.212 275.411>
VStem: 98 60<218.433 236.106> 419 60<280.894 299.567>
LayerCount: 2
Fore
SplineSet
98 221 m 1,0,1
 107 267 107 267 136 295 c 128,-1,2
 165 323 165 323 208 323 c 0,3,4
 233 323 233 323 255.5 314.5 c 128,-1,5
 278 306 278 306 298 295.5 c 128,-1,6
 318 285 318 285 335.5 276.5 c 128,-1,7
 353 268 353 268 369 268 c 0,8,9
 387 268 387 268 401 280.5 c 128,-1,10
 415 293 415 293 419 319 c 1,11,-1
 479 297 l 1,12,13
 470 251 470 251 441.5 223 c 128,-1,14
 413 195 413 195 370 195 c 0,15,16
 348 195 348 195 327 203.5 c 128,-1,17
 306 212 306 212 286 222 c 128,-1,18
 266 232 266 232 247 240.5 c 128,-1,19
 228 249 228 249 209 249 c 0,20,21
 189 249 189 249 175.5 236.5 c 128,-1,22
 162 224 162 224 158 199 c 1,23,-1
 98 221 l 1,0,1
EndSplineSet
Validated: 1
EndChar

StartChar: exclamdown
Encoding: 161 161 99
Width: 576
GlyphClass: 2
Flags: W
LayerCount: 2
Fore
SplineSet
236 454 m 1,0,1
 236 481 236 481 251.5 500 c 128,-1,2
 267 519 267 519 288 519 c 0,3,4
 310 519 310 519 325 500 c 128,-1,5
 340 481 340 481 340 454 c 0,6,7
 340 428 340 428 325 409 c 128,-1,8
 310 390 310 390 288 390 c 0,9,10
 267 390 267 390 251.5 409 c 128,-1,11
 236 428 236 428 236 454 c 1,12,-1
 236 454 l 1,0,1
252 -161 m 1,13,-1
 252 11 l 1,14,-1
 267 311 l 1,15,-1
 310 311 l 1,16,-1
 324 11 l 1,17,-1
 324 -161 l 1,18,-1
 252 -161 l 1,13,-1
EndSplineSet
Validated: 5
EndChar

StartChar: cent
Encoding: 162 162 100
Width: 576
GlyphClass: 2
Flags: W
LayerCount: 2
Fore
SplineSet
116 247 m 1,0,1
 116 297 116 297 127.5 340 c 128,-1,2
 139 383 139 383 159.5 416.5 c 128,-1,3
 180 450 180 450 209.5 472 c 128,-1,4
 239 494 239 494 276 501 c 1,5,-1
 276 571 l 1,6,-1
 317 571 l 1,7,-1
 317 504 l 1,8,9
 343 503 343 503 365.5 493.5 c 128,-1,10
 388 484 388 484 406.5 469 c 128,-1,11
 425 454 425 454 438.5 434.5 c 128,-1,12
 452 415 452 415 462 393 c 1,13,-1
 400 365 l 1,14,15
 387 392 387 392 365.5 409 c 128,-1,16
 344 426 344 426 317 430 c 1,17,-1
 317 62 l 1,18,19
 346 66 346 66 367.5 83.5 c 128,-1,20
 389 101 389 101 401 127 c 1,21,-1
 463 99 l 1,22,23
 442 54 442 54 404 23.5 c 128,-1,24
 366 -7 366 -7 317 -12 c 1,25,-1
 317 -87 l 1,26,-1
 276 -87 l 1,27,-1
 276 -10 l 1,28,29
 239 -4 239 -4 209 17.5 c 128,-1,30
 179 39 179 39 158.5 72.5 c 128,-1,31
 138 106 138 106 127 150.5 c 128,-1,32
 116 195 116 195 116 247 c 1,33,-1
 116 247 l 1,0,1
190 248 m 1,34,35
 190 169 190 169 215 124.5 c 128,-1,36
 240 80 240 80 276 67 c 1,37,-1
 276 425 l 1,38,39
 240 413 240 413 215 369.5 c 128,-1,40
 190 326 190 326 190 248 c 1,41,-1
 190 248 l 1,34,35
EndSplineSet
Validated: 5
EndChar

StartChar: sterling
Encoding: 163 163 101
Width: 576
GlyphClass: 2
Flags: W
LayerCount: 2
Fore
SplineSet
179 369 m 1,0,1
 166 403 166 403 155 437.5 c 128,-1,2
 144 472 144 472 144 511 c 0,3,4
 144 557 144 557 159.5 589 c 128,-1,5
 175 621 175 621 200 641.5 c 128,-1,6
 225 662 225 662 256.5 671 c 128,-1,7
 288 680 288 680 320 680 c 0,8,9
 387 680 387 680 430 642.5 c 128,-1,10
 473 605 473 605 489 541 c 1,11,-1
 423 516 l 1,12,13
 412 568 412 568 383 588.5 c 128,-1,14
 354 609 354 609 316 609 c 0,15,16
 300 609 300 609 281.5 604 c 128,-1,17
 263 599 263 599 248.5 587.5 c 128,-1,18
 234 576 234 576 224.5 556.5 c 128,-1,19
 215 537 215 537 215 508 c 0,20,21
 215 472 215 472 227.5 438 c 128,-1,22
 240 404 240 404 253 369 c 1,23,-1
 415 369 l 1,24,-1
 415 318 l 1,25,-1
 271 318 l 1,26,27
 279 296 279 296 282.5 276 c 128,-1,28
 286 256 286 256 286 238 c 0,29,30
 286 187 286 187 264 150.5 c 128,-1,31
 242 114 242 114 209 90 c 1,32,33
 223 97 223 97 234.5 99.5 c 128,-1,34
 246 102 246 102 257 102 c 0,35,36
 274 102 274 102 289.5 96.5 c 128,-1,37
 305 91 305 91 320.5 84 c 128,-1,38
 336 77 336 77 353 71.5 c 128,-1,39
 370 66 370 66 390 66 c 0,40,41
 408 66 408 66 429.5 71.5 c 128,-1,42
 451 77 451 77 477 91 c 1,43,-1
 497 18 l 1,44,45
 466 1 466 1 442 -5.5 c 128,-1,46
 418 -12 418 -12 397 -12 c 0,47,48
 375 -12 375 -12 356 -6 c 128,-1,49
 337 0 337 0 319 7 c 128,-1,50
 301 14 301 14 282 20 c 128,-1,51
 263 26 263 26 242 26 c 0,52,53
 220 26 220 26 194.5 17.5 c 128,-1,54
 169 9 169 9 136 -12 c 1,55,-1
 113 55 l 1,56,57
 124 61 124 61 141.5 74 c 128,-1,58
 159 87 159 87 175.5 108 c 128,-1,59
 192 129 192 129 204 158.5 c 128,-1,60
 216 188 216 188 216 226 c 0,61,62
 216 269 216 269 197 318 c 1,63,-1
 111 318 l 1,64,-1
 111 369 l 1,65,-1
 179 369 l 1,66,-1
 179 369 l 1,0,1
EndSplineSet
Validated: 5
EndChar

StartChar: currency
Encoding: 164 164 102
Width: 576
GlyphClass: 2
Flags: W
LayerCount: 2
Fore
SplineSet
99 119 m 1,0,-1
 151 185 l 1,1,2
 133 215 133 215 123.5 250 c 128,-1,3
 114 285 114 285 114 321 c 256,4,5
 114 357 114 357 123.5 392 c 128,-1,6
 133 427 133 427 151 456 c 1,7,-1
 99 522 l 1,8,-1
 128 558 l 1,9,-1
 180 492 l 1,10,11
 204 516 204 516 231.5 527.5 c 128,-1,12
 259 539 259 539 287 539 c 0,13,14
 316 539 316 539 344 527.5 c 128,-1,15
 372 516 372 516 395 492 c 1,16,-1
 447 558 l 1,17,-1
 476 522 l 1,18,-1
 423 456 l 1,19,20
 442 427 442 427 451.5 392 c 128,-1,21
 461 357 461 357 461 321 c 256,22,23
 461 285 461 285 451.5 250 c 128,-1,24
 442 215 442 215 423 185 c 1,25,-1
 476 119 l 1,26,-1
 447 84 l 1,27,-1
 395 149 l 1,28,29
 372 126 372 126 344 114.5 c 128,-1,30
 316 103 316 103 287 103 c 0,31,32
 259 103 259 103 231.5 114.5 c 128,-1,33
 204 126 204 126 180 149 c 1,34,-1
 128 84 l 1,35,-1
 99 119 l 1,36,-1
 99 119 l 1,0,-1
287 178 m 1,37,38
 311 178 311 178 331.5 189 c 128,-1,39
 352 200 352 200 367.5 219.5 c 128,-1,40
 383 239 383 239 391.5 265 c 128,-1,41
 400 291 400 291 400 321 c 0,42,43
 400 350 400 350 391.5 376 c 128,-1,44
 383 402 383 402 367.5 421.5 c 128,-1,45
 352 441 352 441 331.5 452 c 128,-1,46
 311 463 311 463 287 463 c 0,47,48
 264 463 264 463 243.5 452 c 128,-1,49
 223 441 223 441 207.5 421.5 c 128,-1,50
 192 402 192 402 183.5 376 c 128,-1,51
 175 350 175 350 175 321 c 0,52,53
 175 291 175 291 183.5 265 c 128,-1,54
 192 239 192 239 207.5 219.5 c 128,-1,55
 223 200 223 200 243.5 189 c 128,-1,56
 264 178 264 178 287 178 c 1,57,-1
 287 178 l 1,37,38
EndSplineSet
Validated: 5
EndChar

StartChar: yen
Encoding: 165 165 103
Width: 576
GlyphClass: 2
Flags: W
LayerCount: 2
Fore
SplineSet
141 668 m 1,0,-1
 288 345 l 1,1,-1
 433 668 l 1,2,-1
 515 668 l 1,3,-1
 331 274 l 1,4,-1
 443 274 l 1,5,-1
 443 223 l 1,6,-1
 325 223 l 1,7,-1
 325 137 l 1,8,-1
 443 137 l 1,9,-1
 443 86 l 1,10,-1
 325 86 l 1,11,-1
 325 0 l 1,12,-1
 251 0 l 1,13,-1
 251 86 l 1,14,-1
 132 86 l 1,15,-1
 132 137 l 1,16,-1
 251 137 l 1,17,-1
 251 223 l 1,18,-1
 132 223 l 1,19,-1
 132 274 l 1,20,-1
 243 274 l 1,21,-1
 60 668 l 1,22,-1
 141 668 l 1,0,-1
EndSplineSet
Validated: 1
EndChar

StartChar: brokenbar
Encoding: 166 166 104
Width: 576
GlyphClass: 2
Flags: W
LayerCount: 2
Fore
SplineSet
255 668 m 1,0,-1
 321 668 l 1,1,-1
 321 358 l 1,2,-1
 255 358 l 1,3,-1
 255 668 l 1,0,-1
321 149 m 1,4,-1
 321 -161 l 1,5,-1
 255 -161 l 1,6,-1
 255 149 l 1,7,-1
 321 149 l 1,4,-1
EndSplineSet
Validated: 1
EndChar

StartChar: section
Encoding: 167 167 105
Width: 576
GlyphClass: 2
Flags: W
LayerCount: 2
Fore
SplineSet
196 424 m 1,0,1
 173 444 173 444 154 474.5 c 128,-1,2
 135 505 135 505 135 550 c 0,3,4
 135 583 135 583 147.5 607 c 128,-1,5
 160 631 160 631 181 647.5 c 128,-1,6
 202 664 202 664 228 672 c 128,-1,7
 254 680 254 680 282 680 c 0,8,9
 337 680 337 680 375 651.5 c 128,-1,10
 413 623 413 623 429 574 c 1,11,-1
 363 550 l 1,12,13
 354 582 354 582 330.5 596 c 128,-1,14
 307 610 307 610 278 610 c 256,15,16
 249 610 249 610 227 596 c 128,-1,17
 205 582 205 582 205 552 c 0,18,19
 205 548 205 548 205.5 544.5 c 128,-1,20
 206 541 206 541 206 536 c 0,21,22
 211 513 211 513 233 493 c 128,-1,23
 255 473 255 473 285.5 454 c 128,-1,24
 316 435 316 435 349.5 414.5 c 128,-1,25
 383 394 383 394 411.5 369 c 128,-1,26
 440 344 440 344 459 313 c 128,-1,27
 478 282 478 282 478 242 c 0,28,29
 478 215 478 215 470.5 192 c 128,-1,30
 463 169 463 169 450.5 150 c 128,-1,31
 438 131 438 131 421 116 c 128,-1,32
 404 101 404 101 385 91 c 1,33,34
 409 68 409 68 423 41.5 c 128,-1,35
 437 15 437 15 437 -23 c 0,36,37
 437 -60 437 -60 425 -88 c 128,-1,38
 413 -116 413 -116 392 -135 c 128,-1,39
 371 -154 371 -154 343.5 -163.5 c 128,-1,40
 316 -173 316 -173 285 -173 c 0,41,42
 224 -173 224 -173 183.5 -139 c 128,-1,43
 143 -105 143 -105 128 -44 c 1,44,-1
 195 -20 l 1,45,46
 203 -59 203 -59 224.5 -81 c 128,-1,47
 246 -103 246 -103 286 -103 c 0,48,49
 322 -103 322 -103 344.5 -86 c 128,-1,50
 367 -69 367 -69 367 -36 c 0,51,52
 367 -4 367 -4 347.5 20 c 128,-1,53
 328 44 328 44 298 64.5 c 128,-1,54
 268 85 268 85 233 105 c 128,-1,55
 198 125 198 125 168.5 150 c 128,-1,56
 139 175 139 175 119 208.5 c 128,-1,57
 99 242 99 242 99 289 c 0,58,59
 99 314 99 314 106.5 335 c 128,-1,60
 114 356 114 356 127.5 373 c 128,-1,61
 141 390 141 390 159 403 c 128,-1,62
 177 416 177 416 196 424 c 1,63,-1
 196 424 l 1,0,1
167 294 m 1,64,65
 167 266 167 266 179.5 246.5 c 128,-1,66
 192 227 192 227 214.5 210 c 128,-1,67
 237 193 237 193 268 174.5 c 128,-1,68
 299 156 299 156 335 129 c 1,69,70
 349 136 349 136 362 145.5 c 128,-1,71
 375 155 375 155 386 167 c 128,-1,72
 397 179 397 179 403.5 194 c 128,-1,73
 410 209 410 209 410 226 c 0,74,75
 410 255 410 255 395 276.5 c 128,-1,76
 380 298 380 298 357 316 c 128,-1,77
 334 334 334 334 305.5 350.5 c 128,-1,78
 277 367 277 367 250 387 c 1,79,80
 236 382 236 382 221 373.5 c 128,-1,81
 206 365 206 365 194 353 c 128,-1,82
 182 341 182 341 174.5 326.5 c 128,-1,83
 167 312 167 312 167 294 c 1,84,-1
 167 294 l 1,64,65
EndSplineSet
Validated: 5
EndChar

StartChar: dieresis
Encoding: 168 168 106
Width: 576
GlyphClass: 2
Flags: W
LayerCount: 2
Fore
SplineSet
158 644 m 1,0,1
 158 666 158 666 170.5 681.5 c 128,-1,2
 183 697 183 697 202 697 c 0,3,4
 220 697 220 697 232.5 681.5 c 128,-1,5
 245 666 245 666 245 644 c 0,6,7
 245 621 245 621 232.5 605.5 c 128,-1,8
 220 590 220 590 202 590 c 0,9,10
 183 590 183 590 170.5 605.5 c 128,-1,11
 158 621 158 621 158 644 c 1,12,-1
 158 644 l 1,0,1
373 697 m 1,13,14
 391 697 391 697 403.5 681.5 c 128,-1,15
 416 666 416 666 416 644 c 0,16,17
 416 621 416 621 403.5 605.5 c 128,-1,18
 391 590 391 590 373 590 c 256,19,20
 355 590 355 590 342.5 605.5 c 128,-1,21
 330 621 330 621 330 644 c 0,22,23
 330 666 330 666 342.5 681.5 c 128,-1,24
 355 697 355 697 373 697 c 1,25,-1
 373 697 l 1,13,14
EndSplineSet
Validated: 5
Substitution2: "'case' Case-Sensitive Forms lookup 1 subtable" dieresis.case
EndChar

StartChar: copyright
Encoding: 169 169 107
Width: 576
GlyphClass: 2
Flags: W
LayerCount: 2
Fore
SplineSet
32 334 m 1,0,1
 32 406 32 406 52 469 c 128,-1,2
 72 532 72 532 106.5 579 c 128,-1,3
 141 626 141 626 188 653 c 128,-1,4
 235 680 235 680 288 680 c 256,5,6
 341 680 341 680 387.5 653 c 128,-1,7
 434 626 434 626 469 579 c 128,-1,8
 504 532 504 532 523.5 469 c 128,-1,9
 543 406 543 406 543 334 c 256,10,11
 543 262 543 262 523.5 199 c 128,-1,12
 504 136 504 136 469 89 c 128,-1,13
 434 42 434 42 387.5 15 c 128,-1,14
 341 -12 341 -12 288 -12 c 256,15,16
 235 -12 235 -12 188 15 c 128,-1,17
 141 42 141 42 106.5 89 c 128,-1,18
 72 136 72 136 52 199 c 128,-1,19
 32 262 32 262 32 334 c 1,20,-1
 32 334 l 1,0,1
78 334 m 1,21,22
 78 275 78 275 94.5 223.5 c 128,-1,23
 111 172 111 172 139.5 133.5 c 128,-1,24
 168 95 168 95 206 72.5 c 128,-1,25
 244 50 244 50 288 50 c 0,26,27
 331 50 331 50 369 72.5 c 128,-1,28
 407 95 407 95 435.5 133.5 c 128,-1,29
 464 172 464 172 481 223.5 c 128,-1,30
 498 275 498 275 498 334 c 256,31,32
 498 393 498 393 481 444.5 c 128,-1,33
 464 496 464 496 435.5 534.5 c 128,-1,34
 407 573 407 573 369 595.5 c 128,-1,35
 331 618 331 618 288 618 c 0,36,37
 244 618 244 618 206 595.5 c 128,-1,38
 168 573 168 573 139.5 534.5 c 128,-1,39
 111 496 111 496 94.5 444.5 c 128,-1,40
 78 393 78 393 78 334 c 1,41,-1
 78 334 l 1,21,22
291 531 m 1,42,43
 331 531 331 531 357.5 508 c 128,-1,44
 384 485 384 485 398 449 c 1,45,-1
 348 424 l 1,46,47
 339 448 339 448 323.5 460.5 c 128,-1,48
 308 473 308 473 289 473 c 0,49,50
 257 473 257 473 237 441 c 128,-1,51
 217 409 217 409 217 342 c 0,52,53
 217 274 217 274 237 241.5 c 128,-1,54
 257 209 257 209 289 209 c 0,55,56
 308 209 308 209 324 219 c 128,-1,57
 340 229 340 229 351 254 c 1,58,-1
 399 230 l 1,59,60
 385 196 385 196 358 173 c 128,-1,61
 331 150 331 150 289 150 c 0,62,63
 226 150 226 150 193.5 201 c 128,-1,64
 161 252 161 252 161 342 c 0,65,66
 161 431 161 431 196 481 c 128,-1,67
 231 531 231 531 291 531 c 1,68,-1
 291 531 l 1,42,43
EndSplineSet
Validated: 5
EndChar

StartChar: ordfeminine
Encoding: 170 170 108
Width: 576
GlyphClass: 2
Flags: W
LayerCount: 2
Fore
SplineSet
331 578 m 1,0,1
 331 590 331 590 330 601.5 c 128,-1,2
 329 613 329 613 324.5 622.5 c 128,-1,3
 320 632 320 632 311.5 637.5 c 128,-1,4
 303 643 303 643 288 643 c 0,5,6
 270 643 270 643 258 634.5 c 128,-1,7
 246 626 246 626 242 607 c 1,8,-1
 192 625 l 1,9,10
 201 655 201 655 226 673.5 c 128,-1,11
 251 692 251 692 290 692 c 0,12,13
 310 692 310 692 327 686.5 c 128,-1,14
 344 681 344 681 357 667 c 128,-1,15
 370 653 370 653 378 630.5 c 128,-1,16
 386 608 386 608 386 573 c 2,17,-1
 386 491 l 2,18,19
 386 468 386 468 388.5 447 c 128,-1,20
 391 426 391 426 395 403 c 1,21,-1
 348 403 l 1,22,-1
 338 442 l 1,23,24
 327 417 327 417 304.5 407 c 128,-1,25
 282 397 282 397 260 397 c 0,26,27
 223 397 223 397 201.5 419.5 c 128,-1,28
 180 442 180 442 180 478 c 0,29,30
 180 506 180 506 192.5 524 c 128,-1,31
 205 542 205 542 225.5 553 c 128,-1,32
 246 564 246 564 273.5 569.5 c 128,-1,33
 301 575 301 575 331 578 c 1,34,-1
 331 578 l 1,0,1
237 483 m 1,35,36
 237 466 237 466 247.5 457 c 128,-1,37
 258 448 258 448 276 448 c 0,38,39
 305 448 305 448 318 468.5 c 128,-1,40
 331 489 331 489 331 519 c 2,41,-1
 331 530 l 1,42,43
 276 523 276 523 256.5 513 c 128,-1,44
 237 503 237 503 237 483 c 1,45,-1
 237 483 l 1,35,36
EndSplineSet
Validated: 5
EndChar

StartChar: guillemotleft
Encoding: 171 171 109
Width: 576
GlyphClass: 2
Flags: W
LayerCount: 2
Fore
SplineSet
223 461 m 1,0,-1
 303 461 l 1,1,-1
 183 251 l 1,2,-1
 303 40 l 1,3,-1
 223 40 l 1,4,-1
 105 251 l 1,5,-1
 223 461 l 1,0,-1
390 461 m 1,6,-1
 470 461 l 1,7,-1
 350 251 l 1,8,-1
 470 40 l 1,9,-1
 390 40 l 1,10,-1
 272 251 l 1,11,-1
 390 461 l 1,6,-1
EndSplineSet
Validated: 1
EndChar

StartChar: logicalnot
Encoding: 172 172 110
Width: 576
GlyphClass: 2
Flags: W
LayerCount: 2
Fore
SplineSet
92 396 m 1,0,-1
 483 396 l 1,1,-1
 483 90 l 1,2,-1
 419 90 l 1,3,-1
 419 317 l 1,4,-1
 92 317 l 1,5,-1
 92 396 l 1,0,-1
EndSplineSet
Validated: 1
EndChar

StartChar: registered
Encoding: 174 174 111
Width: 576
GlyphClass: 2
Flags: W
LayerCount: 2
Fore
SplineSet
288 680 m 1,0,1
 341 680 341 680 387.5 653 c 128,-1,2
 434 626 434 626 469 578.5 c 128,-1,3
 504 531 504 531 523.5 468 c 128,-1,4
 543 405 543 405 543 333 c 0,5,6
 543 262 543 262 523.5 199 c 128,-1,7
 504 136 504 136 469 89 c 128,-1,8
 434 42 434 42 387.5 15 c 128,-1,9
 341 -12 341 -12 288 -12 c 256,10,11
 235 -12 235 -12 188 15 c 128,-1,12
 141 42 141 42 106.5 89 c 128,-1,13
 72 136 72 136 52 199 c 128,-1,14
 32 262 32 262 32 333 c 0,15,16
 32 405 32 405 52 468 c 128,-1,17
 72 531 72 531 106.5 578.5 c 128,-1,18
 141 626 141 626 188 653 c 128,-1,19
 235 680 235 680 288 680 c 1,20,-1
 288 680 l 1,0,1
288 49 m 1,21,22
 331 49 331 49 369 71.5 c 128,-1,23
 407 94 407 94 435.5 132.5 c 128,-1,24
 464 171 464 171 481 223 c 128,-1,25
 498 275 498 275 498 333 c 0,26,27
 498 392 498 392 481 444 c 128,-1,28
 464 496 464 496 435.5 535 c 128,-1,29
 407 574 407 574 369 596.5 c 128,-1,30
 331 619 331 619 288 619 c 0,31,32
 244 619 244 619 206 596.5 c 128,-1,33
 168 574 168 574 139.5 535 c 128,-1,34
 111 496 111 496 94.5 444 c 128,-1,35
 78 392 78 392 78 333 c 0,36,37
 78 275 78 275 94.5 223 c 128,-1,38
 111 171 111 171 139.5 132.5 c 128,-1,39
 168 94 168 94 206 71.5 c 128,-1,40
 244 49 244 49 288 49 c 1,41,-1
 288 49 l 1,21,22
188 162 m 1,42,-1
 188 530 l 1,43,-1
 271 530 l 2,44,45
 301 530 301 530 324.5 525.5 c 128,-1,46
 348 521 348 521 365 508.5 c 128,-1,47
 382 496 382 496 390.5 473 c 128,-1,48
 399 450 399 450 399 414 c 0,49,50
 399 402 399 402 397 387.5 c 128,-1,51
 395 373 395 373 388 358.5 c 128,-1,52
 381 344 381 344 368.5 331.5 c 128,-1,53
 356 319 356 319 334 311 c 1,54,-1
 414 162 l 1,55,-1
 351 162 l 1,56,-1
 275 301 l 1,57,-1
 244 301 l 1,58,-1
 244 162 l 1,59,-1
 188 162 l 1,60,-1
 188 162 l 1,42,-1
244 469 m 1,61,-1
 244 359 l 1,62,-1
 283 359 l 2,63,64
 315 359 315 359 329 373 c 128,-1,65
 343 387 343 387 343 413 c 0,66,67
 343 447 343 447 325.5 458 c 128,-1,68
 308 469 308 469 280 469 c 2,69,-1
 244 469 l 1,70,-1
 244 469 l 1,61,-1
EndSplineSet
Validated: 5
EndChar

StartChar: macron
Encoding: 175 175 112
Width: 576
GlyphClass: 2
Flags: W
LayerCount: 2
Fore
SplineSet
176 668 m 1,0,-1
 400 668 l 1,1,-1
 400 601 l 1,2,-1
 176 601 l 1,3,-1
 176 668 l 1,0,-1
EndSplineSet
Validated: 1
Substitution2: "'case' Case-Sensitive Forms lookup 1 subtable" macron.case
EndChar

StartChar: degree
Encoding: 176 176 113
Width: 576
GlyphClass: 2
Flags: W
LayerCount: 2
Fore
SplineSet
177 544 m 1,0,1
 177 572 177 572 185.5 597 c 128,-1,2
 194 622 194 622 209 640.5 c 128,-1,3
 224 659 224 659 244 669.5 c 128,-1,4
 264 680 264 680 287 680 c 256,5,6
 310 680 310 680 330 669.5 c 128,-1,7
 350 659 350 659 365 640.5 c 128,-1,8
 380 622 380 622 388.5 597 c 128,-1,9
 397 572 397 572 397 544 c 256,10,11
 397 516 397 516 388.5 491 c 128,-1,12
 380 466 380 466 365 447.5 c 128,-1,13
 350 429 350 429 330 418.5 c 128,-1,14
 310 408 310 408 287 408 c 256,15,16
 264 408 264 408 244 418.5 c 128,-1,17
 224 429 224 429 209 447.5 c 128,-1,18
 194 466 194 466 185.5 491 c 128,-1,19
 177 516 177 516 177 544 c 1,20,-1
 177 544 l 1,0,1
228 544 m 1,21,22
 228 514 228 514 245.5 492.5 c 128,-1,23
 263 471 263 471 287 471 c 0,24,25
 312 471 312 471 329 492.5 c 128,-1,26
 346 514 346 514 346 544 c 0,27,28
 346 575 346 575 329 596 c 128,-1,29
 312 617 312 617 287 617 c 0,30,31
 263 617 263 617 245.5 596 c 128,-1,32
 228 575 228 575 228 544 c 1,33,-1
 228 544 l 1,21,22
EndSplineSet
Validated: 5
EndChar

StartChar: plusminus
Encoding: 177 177 114
Width: 576
GlyphClass: 2
Flags: W
LayerCount: 2
Fore
SplineSet
100 270 m 1,0,-1
 100 349 l 1,1,-1
 257 349 l 1,2,-1
 257 496 l 1,3,-1
 319 496 l 1,4,-1
 319 349 l 1,5,-1
 476 349 l 1,6,-1
 476 270 l 1,7,-1
 319 270 l 1,8,-1
 319 124 l 1,9,-1
 257 124 l 1,10,-1
 257 270 l 1,11,-1
 100 270 l 1,0,-1
476 79 m 1,12,-1
 476 0 l 1,13,-1
 100 0 l 1,14,-1
 100 79 l 1,15,-1
 476 79 l 1,12,-1
EndSplineSet
Validated: 1
EndChar

StartChar: uni00B2
Encoding: 178 178 115
Width: 576
GlyphClass: 2
Flags: W
LayerCount: 2
Fore
SplineSet
176 403 m 1,0,-1
 176 458 l 1,1,2
 213 494 213 494 242.5 525 c 128,-1,3
 272 556 272 556 293 583 c 128,-1,4
 314 610 314 610 325 634.5 c 128,-1,5
 336 659 336 659 336 682 c 0,6,7
 336 708 336 708 323 722 c 128,-1,8
 310 736 310 736 289 736 c 0,9,10
 271 736 271 736 256 722.5 c 128,-1,11
 241 709 241 709 238 677 c 1,12,-1
 186 695 l 1,13,14
 195 737 195 737 222.5 761.5 c 128,-1,15
 250 786 250 786 292 786 c 0,16,17
 335 786 335 786 363.5 760 c 128,-1,18
 392 734 392 734 392 686 c 0,19,20
 392 630 392 630 352.5 575.5 c 128,-1,21
 313 521 313 521 242 461 c 1,22,-1
 400 461 l 1,23,-1
 400 403 l 1,24,-1
 176 403 l 1,25,-1
 176 403 l 1,0,-1
EndSplineSet
Validated: 5
EndChar

StartChar: uni00B3
Encoding: 179 179 116
Width: 576
GlyphClass: 2
Flags: W
LayerCount: 2
Fore
SplineSet
175 486 m 1,0,-1
 225 504 l 1,1,2
 232 481 232 481 245.5 464.5 c 128,-1,3
 259 448 259 448 284 448 c 256,4,5
 309 448 309 448 326 464 c 128,-1,6
 343 480 343 480 343 509 c 0,7,8
 343 535 343 535 333 548 c 128,-1,9
 323 561 323 561 309 566.5 c 128,-1,10
 295 572 295 572 279.5 572 c 128,-1,11
 264 572 264 572 254 572 c 1,12,-1
 254 626 l 1,13,14
 262 626 262 626 276 626 c 128,-1,15
 290 626 290 626 303.5 631 c 128,-1,16
 317 636 317 636 326.5 648 c 128,-1,17
 336 660 336 660 336 683 c 0,18,19
 336 711 336 711 320.5 723.5 c 128,-1,20
 305 736 305 736 286 736 c 0,21,22
 241 736 241 736 228 683 c 1,23,-1
 179 701 l 1,24,25
 190 741 190 741 218 763.5 c 128,-1,26
 246 786 246 786 289 786 c 0,27,28
 308 786 308 786 326.5 780 c 128,-1,29
 345 774 345 774 359.5 762 c 128,-1,30
 374 750 374 750 383 731 c 128,-1,31
 392 712 392 712 392 685 c 256,32,33
 392 658 392 658 380 636 c 128,-1,34
 368 614 368 614 349 602 c 1,35,36
 374 590 374 590 386.5 565 c 128,-1,37
 399 540 399 540 399 511 c 256,38,39
 399 482 399 482 390 460.5 c 128,-1,40
 381 439 381 439 364.5 425 c 128,-1,41
 348 411 348 411 327.5 404 c 128,-1,42
 307 397 307 397 284 397 c 0,43,44
 240 397 240 397 213 422.5 c 128,-1,45
 186 448 186 448 175 486 c 1,46,-1
 175 486 l 1,0,-1
EndSplineSet
Validated: 5
EndChar

StartChar: acute
Encoding: 180 180 117
Width: 576
GlyphClass: 2
Flags: W
LayerCount: 2
Fore
SplineSet
222 571 m 1,0,1
 224 575 224 575 234.5 592 c 128,-1,2
 245 609 245 609 258 629 c 128,-1,3
 271 649 271 649 282.5 668 c 128,-1,4
 294 687 294 687 300 694 c 0,5,6
 304 701 304 701 310 704 c 128,-1,7
 316 707 316 707 322 707 c 0,8,9
 335 707 335 707 344 697 c 256,10,11
 353 687 353 687 353 669 c 0,12,13
 353 662 353 662 351 655.5 c 128,-1,14
 349 649 349 649 343 641 c 0,15,16
 338 635 338 635 328 624 c 128,-1,17
 318 613 318 613 307.5 601.5 c 128,-1,18
 297 590 297 590 288.5 581.5 c 128,-1,19
 280 573 280 573 279 571 c 2,20,-1
 222 571 l 1,21,-1
 222 571 l 1,0,1
EndSplineSet
Validated: 5
Substitution2: "'case' Case-Sensitive Forms lookup 1 subtable" acute.case
EndChar

StartChar: paragraph
Encoding: 182 182 118
Width: 576
GlyphClass: 2
Flags: W
LayerCount: 2
Fore
SplineSet
113 479 m 1,0,1
 113 518 113 518 125 552.5 c 128,-1,2
 137 587 137 587 158 612.5 c 128,-1,3
 179 638 179 638 206.5 653 c 128,-1,4
 234 668 234 668 266 668 c 2,5,-1
 473 668 l 1,6,-1
 473 601 l 1,7,-1
 441 601 l 1,8,-1
 441 -161 l 1,9,-1
 375 -161 l 1,10,-1
 375 601 l 1,11,-1
 299 601 l 1,12,-1
 299 -161 l 1,13,-1
 234 -161 l 1,14,-1
 234 294 l 1,15,16
 208 301 208 301 186 318 c 128,-1,17
 164 335 164 335 148 359.5 c 128,-1,18
 132 384 132 384 122.5 414.5 c 128,-1,19
 113 445 113 445 113 479 c 1,20,-1
 113 479 l 1,0,1
EndSplineSet
Validated: 5
EndChar

StartChar: periodcentered
Encoding: 183 183 119
Width: 576
GlyphClass: 2
Flags: W
LayerCount: 2
Fore
SplineSet
235 248 m 1,0,1
 235 274 235 274 250.5 293 c 128,-1,2
 266 312 266 312 287 312 c 0,3,4
 309 312 309 312 324 293 c 128,-1,5
 339 274 339 274 339 248 c 0,6,7
 339 221 339 221 324 202 c 128,-1,8
 309 183 309 183 287 183 c 0,9,10
 266 183 266 183 250.5 202 c 128,-1,11
 235 221 235 221 235 248 c 1,12,-1
 235 248 l 1,0,1
EndSplineSet
Validated: 5
EndChar

StartChar: cedilla
Encoding: 184 184 120
Width: 576
GlyphClass: 2
Flags: W
LayerCount: 2
Fore
SplineSet
240 -126 m 1,0,1
 266 -140 266 -140 287 -140 c 256,2,3
 308 -140 308 -140 318.5 -129 c 128,-1,4
 329 -118 329 -118 329 -106 c 0,5,6
 329 -96 329 -96 322 -88.5 c 128,-1,7
 315 -81 315 -81 299 -81 c 0,8,9
 291 -81 291 -81 274 -86 c 0,10,11
 263 -90 263 -90 257.5 -83 c 128,-1,12
 252 -76 252 -76 252 -67 c 0,13,14
 252 -62 252 -62 254 -57 c 2,15,-1
 295 25 l 1,16,-1
 323 4 l 1,17,-1
 299 -45 l 1,18,19
 305 -43 305 -43 311 -42 c 128,-1,20
 317 -41 317 -41 323 -41 c 0,21,22
 351 -41 351 -41 365 -59.5 c 128,-1,23
 379 -78 379 -78 379 -102 c 0,24,25
 379 -116 379 -116 374 -130.5 c 128,-1,26
 369 -145 369 -145 359.5 -156 c 128,-1,27
 350 -167 350 -167 335 -174 c 128,-1,28
 320 -181 320 -181 300 -181 c 0,29,30
 269 -181 269 -181 229 -161 c 1,31,-1
 240 -126 l 1,32,-1
 240 -126 l 1,0,1
EndSplineSet
Validated: 5
EndChar

StartChar: uni00B9
Encoding: 185 185 121
Width: 576
GlyphClass: 2
Flags: W
LayerCount: 2
Fore
SplineSet
227 683 m 1,0,-1
 227 730 l 1,1,2
 254 730 254 730 274.5 740.5 c 128,-1,3
 295 751 295 751 303 779 c 1,4,-1
 348 779 l 1,5,-1
 348 403 l 1,6,-1
 294 403 l 1,7,-1
 294 683 l 1,8,-1
 227 683 l 1,9,-1
 227 683 l 1,0,-1
EndSplineSet
Validated: 5
EndChar

StartChar: ordmasculine
Encoding: 186 186 122
Width: 576
GlyphClass: 2
Flags: W
LayerCount: 2
Fore
SplineSet
180 545 m 1,0,1
 180 583 180 583 189.5 610.5 c 128,-1,2
 199 638 199 638 214 656 c 128,-1,3
 229 674 229 674 249 683 c 128,-1,4
 269 692 269 692 291 692 c 256,5,6
 313 692 313 692 333 683 c 128,-1,7
 353 674 353 674 368.5 656 c 128,-1,8
 384 638 384 638 393.5 610.5 c 128,-1,9
 403 583 403 583 403 545 c 0,10,11
 403 508 403 508 393.5 480 c 128,-1,12
 384 452 384 452 368.5 434 c 128,-1,13
 353 416 353 416 333 407 c 128,-1,14
 313 398 313 398 291 398 c 256,15,16
 269 398 269 398 249 407 c 128,-1,17
 229 416 229 416 214 434 c 128,-1,18
 199 452 199 452 189.5 480 c 128,-1,19
 180 508 180 508 180 545 c 1,20,-1
 180 545 l 1,0,1
236 545 m 1,21,22
 236 500 236 500 251.5 476 c 128,-1,23
 267 452 267 452 291 452 c 256,24,25
 315 452 315 452 331 476 c 128,-1,26
 347 500 347 500 347 545 c 256,27,28
 347 590 347 590 331 614 c 128,-1,29
 315 638 315 638 291 638 c 256,30,31
 267 638 267 638 251.5 614 c 128,-1,32
 236 590 236 590 236 545 c 1,33,-1
 236 545 l 1,21,22
EndSplineSet
Validated: 5
EndChar

StartChar: guillemotright
Encoding: 187 187 123
Width: 576
GlyphClass: 2
Flags: W
LayerCount: 2
Fore
SplineSet
105 461 m 1,0,-1
 185 461 l 1,1,-1
 303 251 l 1,2,-1
 185 40 l 1,3,-1
 105 40 l 1,4,-1
 224 251 l 1,5,-1
 105 461 l 1,0,-1
351 461 m 1,6,-1
 470 251 l 1,7,-1
 351 40 l 1,8,-1
 272 40 l 1,9,-1
 391 251 l 1,10,-1
 272 461 l 1,11,-1
 351 461 l 1,6,-1
EndSplineSet
Validated: 1
EndChar

StartChar: onequarter
Encoding: 188 188 124
Width: 576
GlyphClass: 3
Flags: W
LayerCount: 2
Fore
SplineSet
24 619 m 1,0,1
 48 619 48 619 67 629 c 128,-1,2
 86 639 86 639 93 668 c 1,3,-1
 135 668 l 1,4,-1
 135 292 l 1,5,-1
 85 292 l 1,6,-1
 85 571 l 1,7,-1
 24 571 l 1,8,-1
 24 619 l 1,9,-1
 24 619 l 1,0,1
69 0 m 1,10,-1
 412 668 l 1,11,-1
 477 668 l 1,12,-1
 135 0 l 1,13,-1
 69 0 l 1,10,-1
318 86 m 1,14,-1
 318 140 l 1,15,-1
 455 376 l 1,16,-1
 504 376 l 1,17,-1
 504 143 l 1,18,-1
 551 143 l 1,19,-1
 551 86 l 1,20,-1
 504 86 l 1,21,-1
 504 0 l 1,22,-1
 454 0 l 1,23,-1
 454 86 l 1,24,-1
 318 86 l 1,14,-1
454 143 m 1,25,-1
 454 289 l 1,26,-1
 372 143 l 1,27,-1
 454 143 l 1,25,-1
EndSplineSet
Validated: 5
Ligature2: "'frac' Diagonal Fractions lookup 2 subtable" one slash four
EndChar

StartChar: onehalf
Encoding: 189 189 125
Width: 576
GlyphClass: 3
Flags: W
LayerCount: 2
Fore
SplineSet
490 278 m 1,0,1
 490 304 490 304 478.5 318 c 128,-1,2
 467 332 467 332 448 332 c 0,3,4
 431 332 431 332 417.5 318.5 c 128,-1,5
 404 305 404 305 400 273 c 1,6,-1
 353 292 l 1,7,8
 361 334 361 334 386.5 358 c 128,-1,9
 412 382 412 382 450 382 c 0,10,11
 489 382 489 382 515.5 356.5 c 128,-1,12
 542 331 542 331 542 283 c 0,13,14
 542 226 542 226 505.5 172 c 128,-1,15
 469 118 469 118 405 58 c 1,16,-1
 547 58 l 1,17,-1
 547 0 l 1,18,-1
 345 0 l 1,19,-1
 345 54 l 1,20,21
 379 91 379 91 406 122 c 128,-1,22
 433 153 433 153 451.5 180 c 128,-1,23
 470 207 470 207 480 231 c 128,-1,24
 490 255 490 255 490 278 c 1,25,-1
 490 278 l 1,0,1
28 619 m 1,26,27
 52 619 52 619 71 629 c 128,-1,28
 90 639 90 639 97 668 c 1,29,-1
 138 668 l 1,30,-1
 138 292 l 1,31,-1
 89 292 l 1,32,-1
 89 571 l 1,33,-1
 28 571 l 1,34,-1
 28 619 l 1,35,-1
 28 619 l 1,26,27
418 668 m 1,36,-1
 483 668 l 1,37,-1
 138 0 l 1,38,-1
 74 0 l 1,39,-1
 418 668 l 1,36,-1
EndSplineSet
Validated: 5
Ligature2: "'frac' Diagonal Fractions lookup 2 subtable" one slash two
EndChar

StartChar: threequarters
Encoding: 190 190 126
Width: 576
GlyphClass: 3
Flags: W
LayerCount: 2
Fore
SplineSet
13 380 m 1,0,-1
 58 398 l 1,1,2
 64 374 64 374 76 358 c 128,-1,3
 88 342 88 342 110 342 c 0,4,5
 133 342 133 342 148 358 c 128,-1,6
 163 374 163 374 163 403 c 0,7,8
 163 429 163 429 154 442 c 128,-1,9
 145 455 145 455 132.5 460.5 c 128,-1,10
 120 466 120 466 106 466 c 128,-1,11
 92 466 92 466 84 466 c 1,12,-1
 84 519 l 1,13,14
 91 519 91 519 103.5 519 c 128,-1,15
 116 519 116 519 127.5 524 c 128,-1,16
 139 529 139 529 148 541 c 128,-1,17
 157 553 157 553 157 576 c 0,18,19
 157 603 157 603 143 616 c 128,-1,20
 129 629 129 629 112 629 c 0,21,22
 91 629 91 629 78.5 615 c 128,-1,23
 66 601 66 601 61 576 c 1,24,-1
 17 594 l 1,25,26
 26 634 26 634 51.5 657 c 128,-1,27
 77 680 77 680 115 680 c 0,28,29
 131 680 131 680 148 674 c 128,-1,30
 165 668 165 668 178 655.5 c 128,-1,31
 191 643 191 643 198.5 624 c 128,-1,32
 206 605 206 605 206 578 c 0,33,34
 206 550 206 550 195.5 528.5 c 128,-1,35
 185 507 185 507 168 495 c 1,36,37
 191 484 191 484 202 459 c 128,-1,38
 213 434 213 434 213 405 c 256,39,40
 213 376 213 376 204.5 354.5 c 128,-1,41
 196 333 196 333 181.5 319 c 128,-1,42
 167 305 167 305 149 298 c 128,-1,43
 131 291 131 291 110 291 c 0,44,45
 71 291 71 291 46.5 316.5 c 128,-1,46
 22 342 22 342 13 380 c 1,47,-1
 13 380 l 1,0,-1
88 0 m 1,48,-1
 427 668 l 1,49,-1
 490 668 l 1,50,-1
 152 0 l 1,51,-1
 88 0 l 1,48,-1
334 86 m 1,52,-1
 334 140 l 1,53,-1
 468 376 l 1,54,-1
 517 376 l 1,55,-1
 517 143 l 1,56,-1
 563 143 l 1,57,-1
 563 86 l 1,58,-1
 517 86 l 1,59,-1
 517 0 l 1,60,-1
 467 0 l 1,61,-1
 467 86 l 1,62,-1
 334 86 l 1,52,-1
467 143 m 1,63,-1
 467 289 l 1,64,-1
 386 143 l 1,65,-1
 467 143 l 1,63,-1
EndSplineSet
Validated: 5
Ligature2: "'frac' Diagonal Fractions lookup 2 subtable" three slash four
EndChar

StartChar: questiondown
Encoding: 191 191 127
Width: 576
GlyphClass: 2
Flags: W
LayerCount: 2
Fore
SplineSet
218 179 m 1,0,1
 236 193 236 193 248.5 204 c 128,-1,2
 261 215 261 215 268 226 c 128,-1,3
 275 237 275 237 278.5 250.5 c 128,-1,4
 282 264 282 264 282 283 c 2,5,-1
 282 317 l 1,6,-1
 351 317 l 1,7,-1
 351 281 l 2,8,9
 351 252 351 252 345.5 230 c 128,-1,10
 340 208 340 208 328 189.5 c 128,-1,11
 316 171 316 171 299 154.5 c 128,-1,12
 282 138 282 138 258 120 c 0,13,14
 229 97 229 97 209 67.5 c 128,-1,15
 189 38 189 38 189 -7 c 0,16,17
 189 -51 189 -51 216.5 -77 c 128,-1,18
 244 -103 244 -103 288 -103 c 0,19,20
 316 -103 316 -103 336 -93.5 c 128,-1,21
 356 -84 356 -84 369.5 -68 c 128,-1,22
 383 -52 383 -52 390 -32.5 c 128,-1,23
 397 -13 397 -13 400 7 c 1,24,-1
 466 -17 l 1,25,26
 453 -89 453 -89 405 -131 c 128,-1,27
 357 -173 357 -173 286 -173 c 0,28,29
 255 -173 255 -173 224.5 -163.5 c 128,-1,30
 194 -154 194 -154 170.5 -134 c 128,-1,31
 147 -114 147 -114 132.5 -83.5 c 128,-1,32
 118 -53 118 -53 118 -11 c 0,33,34
 118 33 118 33 133 68.5 c 128,-1,35
 148 104 148 104 170.5 131 c 128,-1,36
 193 158 193 158 218 179 c 1,37,-1
 218 179 l 1,0,1
262 455 m 1,38,39
 262 481 262 481 277.5 500 c 128,-1,40
 293 519 293 519 315 519 c 0,41,42
 336 519 336 519 351.5 500 c 128,-1,43
 367 481 367 481 367 455 c 0,44,45
 367 428 367 428 351.5 409 c 128,-1,46
 336 390 336 390 315 390 c 0,47,48
 293 390 293 390 277.5 409 c 128,-1,49
 262 428 262 428 262 455 c 1,50,-1
 262 455 l 1,38,39
EndSplineSet
Validated: 5
EndChar

StartChar: Aring
Encoding: 197 197 133
Width: 576
GlyphClass: 2
Flags: W
LayerCount: 2
Fore
SplineSet
289 838 m 1,0,1
 307 838 307 838 322 829.5 c 128,-1,2
 337 821 337 821 348.5 806 c 128,-1,3
 360 791 360 791 366.5 771 c 128,-1,4
 373 751 373 751 373 729 c 256,5,6
 373 707 373 707 366.5 687 c 128,-1,7
 360 667 360 667 348.5 652 c 128,-1,8
 337 637 337 637 322 628.5 c 128,-1,9
 307 620 307 620 289 620 c 256,10,11
 271 620 271 620 255 628.5 c 128,-1,12
 239 637 239 637 227 652 c 128,-1,13
 215 667 215 667 208.5 687 c 128,-1,14
 202 707 202 707 202 729 c 256,15,16
 202 751 202 751 208.5 771 c 128,-1,17
 215 791 215 791 227 806 c 128,-1,18
 239 821 239 821 255 829.5 c 128,-1,19
 271 838 271 838 289 838 c 1,20,-1
 289 838 l 1,21,-1
 289 838 l 1,0,1
246 729 m 1,22,23
 246 708 246 708 258 693 c 128,-1,24
 270 678 270 678 287 678 c 256,25,26
 304 678 304 678 316 693 c 128,-1,27
 328 708 328 708 328 729 c 256,28,29
 328 750 328 750 316 765 c 128,-1,30
 304 780 304 780 287 780 c 256,31,32
 270 780 270 780 258 765 c 128,-1,33
 246 750 246 750 246 729 c 1,34,-1
 246 729 l 1,35,-1
 246 729 l 1,22,23
329 669 m 1,36,-1
 524 0 l 1,37,-1
 446 0 l 1,38,-1
 406 146 l 1,39,-1
 168 146 l 1,40,-1
 128 0 l 1,41,-1
 50 0 l 1,42,-1
 246 669 l 1,43,-1
 329 669 l 1,36,-1
383 227 m 1,44,-1
 287 574 l 1,45,-1
 191 227 l 1,46,-1
 383 227 l 1,44,-1
EndSplineSet
Validated: 5
EndChar

StartChar: AE
Encoding: 198 198 134
Width: 576
GlyphClass: 2
Flags: W
LayerCount: 2
Fore
SplineSet
-49 0 m 1,0,-1
 287 668 l 1,1,-1
 607 668 l 1,2,-1
 607 587 l 1,3,-1
 359 587 l 1,4,-1
 359 384 l 1,5,-1
 542 384 l 1,6,-1
 542 303 l 1,7,-1
 359 303 l 1,8,-1
 359 81 l 1,9,-1
 607 81 l 1,10,-1
 607 0 l 1,11,-1
 294 0 l 1,12,-1
 294 145 l 1,13,-1
 98 145 l 1,14,-1
 26 0 l 1,15,-1
 -49 0 l 1,0,-1
294 226 m 1,16,-1
 294 546 l 1,17,-1
 137 226 l 1,18,-1
 294 226 l 1,16,-1
EndSplineSet
Validated: 1
EndChar

StartChar: Ccedilla
Encoding: 199 199 135
Width: 576
GlyphClass: 2
Flags: W
LayerCount: 2
Fore
SplineSet
243 -126 m 1,0,1
 268 -140 268 -140 288 -140 c 256,2,3
 308 -140 308 -140 317.5 -129 c 128,-1,4
 327 -118 327 -118 327 -106 c 0,5,6
 327 -96 327 -96 320.5 -88.5 c 128,-1,7
 314 -81 314 -81 299 -81 c 0,8,9
 291 -81 291 -81 276 -86 c 0,10,11
 265 -90 265 -90 259.5 -83 c 128,-1,12
 254 -76 254 -76 254 -67 c 0,13,14
 254 -62 254 -62 256 -57 c 2,15,-1
 296 25 l 1,16,-1
 322 4 l 1,17,-1
 299 -45 l 1,18,19
 305 -43 305 -43 310.5 -42 c 128,-1,20
 316 -41 316 -41 322 -41 c 0,21,22
 349 -41 349 -41 362 -59.5 c 128,-1,23
 375 -78 375 -78 375 -102 c 0,24,25
 375 -116 375 -116 370.5 -130.5 c 128,-1,26
 366 -145 366 -145 356.5 -156 c 128,-1,27
 347 -167 347 -167 333 -174 c 128,-1,28
 319 -181 319 -181 300 -181 c 0,29,30
 270 -181 270 -181 232 -161 c 1,31,-1
 243 -126 l 1,32,-1
 243 -126 l 1,33,-1
 243 -126 l 1,0,1
315 680 m 1,34,35
 380 680 380 680 431.5 641 c 128,-1,36
 483 602 483 602 510 529 c 1,37,-1
 447 499 l 1,38,39
 429 544 429 544 395.5 572.5 c 128,-1,40
 362 601 362 601 311 601 c 0,41,42
 277 601 277 601 247.5 584 c 128,-1,43
 218 567 218 567 196 533.5 c 128,-1,44
 174 500 174 500 161.5 450 c 128,-1,45
 149 400 149 400 149 335 c 0,46,47
 149 272 149 272 161 222.5 c 128,-1,48
 173 173 173 173 195 138.5 c 128,-1,49
 217 104 217 104 247 85.5 c 128,-1,50
 277 67 277 67 313 67 c 0,51,52
 364 67 364 67 398 95 c 128,-1,53
 432 123 432 123 450 169 c 1,54,-1
 513 139 l 1,55,56
 485 64 485 64 431 26 c 128,-1,57
 377 -12 377 -12 309 -12 c 0,58,59
 253 -12 253 -12 210 13.5 c 128,-1,60
 167 39 167 39 137 85 c 128,-1,61
 107 131 107 131 91 195 c 128,-1,62
 75 259 75 259 75 335 c 0,63,64
 75 413 75 413 92 476.5 c 128,-1,65
 109 540 109 540 140 585.5 c 128,-1,66
 171 631 171 631 215.5 655.5 c 128,-1,67
 260 680 260 680 315 680 c 1,68,-1
 315 680 l 1,69,-1
 315 680 l 1,34,35
EndSplineSet
Validated: 5
EndChar

StartChar: Eth
Encoding: 208 208 144
Width: 576
GlyphClass: 2
Flags: W
LayerCount: 2
Fore
SplineSet
32 303 m 1,0,-1
 32 383 l 1,1,-1
 104 383 l 1,2,-1
 104 668 l 1,3,-1
 243 668 l 2,4,5
 304 668 304 668 354.5 651.5 c 128,-1,6
 405 635 405 635 442 596.5 c 128,-1,7
 479 558 479 558 499.5 494 c 128,-1,8
 520 430 520 430 520 335 c 0,9,10
 520 239 520 239 499.5 174.5 c 128,-1,11
 479 110 479 110 442 71.5 c 128,-1,12
 405 33 405 33 354.5 16.5 c 128,-1,13
 304 0 304 0 243 0 c 2,14,-1
 104 0 l 1,15,-1
 104 303 l 1,16,-1
 32 303 l 1,17,-1
 32 303 l 1,0,-1
176 303 m 1,18,-1
 176 79 l 1,19,-1
 241 79 l 2,20,21
 281 79 281 79 318 87 c 128,-1,22
 355 95 355 95 383.5 121.5 c 128,-1,23
 412 148 412 148 429.5 199 c 128,-1,24
 447 250 447 250 447 335 c 256,25,26
 447 420 447 420 429.5 470 c 128,-1,27
 412 520 412 520 383.5 546.5 c 128,-1,28
 355 573 355 573 318 581 c 128,-1,29
 281 589 281 589 241 589 c 2,30,-1
 176 589 l 1,31,-1
 176 383 l 1,32,-1
 282 383 l 1,33,-1
 282 303 l 1,34,-1
 176 303 l 1,35,-1
 176 303 l 1,18,-1
EndSplineSet
Validated: 5
EndChar

StartChar: multiply
Encoding: 215 215 151
Width: 576
GlyphClass: 2
Flags: W
LayerCount: 2
Fore
SplineSet
163 462 m 1,0,-1
 288 308 l 1,1,-1
 412 462 l 1,2,-1
 458 404 l 1,3,-1
 335 250 l 1,4,-1
 458 97 l 1,5,-1
 412 39 l 1,6,-1
 288 193 l 1,7,-1
 163 39 l 1,8,-1
 117 97 l 1,9,-1
 242 250 l 1,10,-1
 117 404 l 1,11,-1
 163 462 l 1,0,-1
EndSplineSet
Validated: 1
EndChar

StartChar: Oslash
Encoding: 216 216 152
Width: 576
GlyphClass: 2
Flags: W
LayerCount: 2
Fore
SplineSet
50 333 m 1,0,1
 50 409 50 409 66.5 472.5 c 128,-1,2
 83 536 83 536 114 582 c 128,-1,3
 145 628 145 628 188.5 654 c 128,-1,4
 232 680 232 680 287 680 c 0,5,6
 332 680 332 680 370.5 662 c 128,-1,7
 409 644 409 644 438 610 c 1,8,-1
 478 673 l 1,9,-1
 508 641 l 1,10,-1
 466 574 l 1,11,12
 494 528 494 528 509.5 467 c 128,-1,13
 525 406 525 406 525 333 c 0,14,15
 525 258 525 258 508 194.5 c 128,-1,16
 491 131 491 131 460.5 85 c 128,-1,17
 430 39 430 39 385.5 13.5 c 128,-1,18
 341 -12 341 -12 287 -12 c 0,19,20
 240 -12 240 -12 201.5 6.5 c 128,-1,21
 163 25 163 25 133 60 c 1,22,-1
 90 -6 l 1,23,-1
 61 27 l 1,24,-1
 107 97 l 1,25,26
 80 142 80 142 65 202.5 c 128,-1,27
 50 263 50 263 50 333 c 1,28,-1
 50 333 l 1,0,1
287 67 m 1,29,30
 322 67 322 67 352 84.5 c 128,-1,31
 382 102 382 102 404 136 c 128,-1,32
 426 170 426 170 439 219.5 c 128,-1,33
 452 269 452 269 452 333 c 0,34,35
 452 386 452 386 443.5 428.5 c 128,-1,36
 435 471 435 471 419 503 c 1,37,-1
 176 127 l 1,38,39
 198 98 198 98 226.5 82.5 c 128,-1,40
 255 67 255 67 287 67 c 1,41,-1
 287 67 l 1,29,30
153 169 m 1,42,-1
 395 543 l 1,43,44
 351 599 351 599 287 599 c 0,45,46
 253 599 253 599 222.5 582 c 128,-1,47
 192 565 192 565 170 531 c 128,-1,48
 148 497 148 497 135.5 447.5 c 128,-1,49
 123 398 123 398 123 333 c 0,50,51
 123 234 123 234 153 169 c 1,52,-1
 153 169 l 1,42,-1
EndSplineSet
Validated: 5
EndChar

StartChar: Thorn
Encoding: 222 222 158
Width: 576
GlyphClass: 2
Flags: W
LayerCount: 2
Fore
SplineSet
186 668 m 1,0,-1
 186 528 l 1,1,-1
 287 528 l 2,2,3
 332 528 332 528 368.5 520.5 c 128,-1,4
 405 513 405 513 431 492.5 c 128,-1,5
 457 472 457 472 472 436.5 c 128,-1,6
 487 401 487 401 487 345 c 256,7,8
 487 289 487 289 472 253.5 c 128,-1,9
 457 218 457 218 431 198 c 128,-1,10
 405 178 405 178 368.5 170.5 c 128,-1,11
 332 163 332 163 287 163 c 2,12,-1
 186 163 l 1,13,-1
 186 0 l 1,14,-1
 119 0 l 1,15,-1
 119 668 l 1,16,-1
 186 668 l 1,17,-1
 186 668 l 1,0,-1
186 447 m 1,18,-1
 186 244 l 1,19,-1
 294 244 l 2,20,21
 318 244 318 244 339 246.5 c 128,-1,22
 360 249 360 249 375.5 259.5 c 128,-1,23
 391 270 391 270 400.5 290 c 128,-1,24
 410 310 410 310 410 344 c 256,25,26
 410 378 410 378 400.5 398.5 c 128,-1,27
 391 419 391 419 375.5 429.5 c 128,-1,28
 360 440 360 440 339 443.5 c 128,-1,29
 318 447 318 447 294 447 c 2,30,-1
 186 447 l 1,31,-1
 186 447 l 1,18,-1
EndSplineSet
Validated: 5
EndChar

StartChar: germandbls
Encoding: 223 223 159
Width: 576
GlyphClass: 2
Flags: W
LayerCount: 2
Fore
SplineSet
112 0 m 1,0,-1
 112 453 l 2,1,2
 112 489 112 489 117.5 528.5 c 128,-1,3
 123 568 123 568 142.5 602 c 128,-1,4
 162 636 162 636 199 658 c 128,-1,5
 236 680 236 680 299 680 c 0,6,7
 334 680 334 680 364 669 c 128,-1,8
 394 658 394 658 416 637 c 128,-1,9
 438 616 438 616 450.5 586.5 c 128,-1,10
 463 557 463 557 463 521 c 0,11,12
 463 470 463 470 444 434 c 128,-1,13
 425 398 425 398 384 376 c 1,14,15
 407 369 407 369 427 355 c 128,-1,16
 447 341 447 341 462 319.5 c 128,-1,17
 477 298 477 298 485.5 268 c 128,-1,18
 494 238 494 238 494 197 c 0,19,20
 494 138 494 138 477 97.5 c 128,-1,21
 460 57 460 57 432 32 c 128,-1,22
 404 7 404 7 367 -3.5 c 128,-1,23
 330 -14 330 -14 291 -12 c 1,24,-1
 272 65 l 1,25,26
 289 62 289 62 303 62 c 0,27,28
 357 62 357 62 390 95 c 128,-1,29
 423 128 423 128 423 195 c 0,30,31
 423 233 423 233 412 259 c 128,-1,32
 401 285 401 285 381.5 300.5 c 128,-1,33
 362 316 362 316 334 323 c 128,-1,34
 306 330 306 330 272 330 c 1,35,-1
 272 406 l 1,36,37
 332 406 332 406 364 433 c 128,-1,38
 396 460 396 460 396 511 c 0,39,40
 396 556 396 556 369 583.5 c 128,-1,41
 342 611 342 611 298 611 c 0,42,43
 235 611 235 611 206.5 575 c 128,-1,44
 178 539 178 539 178 453 c 2,45,-1
 178 0 l 1,46,-1
 112 0 l 1,47,-1
 112 0 l 1,0,-1
EndSplineSet
Validated: 37
EndChar

StartChar: ae
Encoding: 230 230 166
Width: 576
GlyphClass: 2
Flags: W
LayerCount: 2
Fore
SplineSet
0 131 m 1,0,1
 0 176 0 176 18.5 206.5 c 128,-1,2
 37 237 37 237 69.5 256 c 128,-1,3
 102 275 102 275 146.5 283.5 c 128,-1,4
 191 292 191 292 241 292 c 1,5,6
 241 303 241 303 241 326.5 c 128,-1,7
 241 350 241 350 234.5 374.5 c 128,-1,8
 228 399 228 399 211.5 417.5 c 128,-1,9
 195 436 195 436 161 436 c 0,10,11
 128 436 128 436 107.5 415.5 c 128,-1,12
 87 395 87 395 81 359 c 1,13,-1
 23 383 l 1,14,15
 31 412 31 412 44.5 434.5 c 128,-1,16
 58 457 58 457 76.5 472.5 c 128,-1,17
 95 488 95 488 116.5 496 c 128,-1,18
 138 504 138 504 160 504 c 0,19,20
 254 504 254 504 285 424 c 1,21,22
 308 462 308 462 341.5 483 c 128,-1,23
 375 504 375 504 415 504 c 0,24,25
 458 504 458 504 490.5 480 c 128,-1,26
 523 456 523 456 544 417 c 128,-1,27
 565 378 565 378 574.5 328 c 128,-1,28
 584 278 584 278 581 225 c 1,29,-1
 306 225 l 1,30,31
 308 178 308 178 319 146.5 c 128,-1,32
 330 115 330 115 346 96.5 c 128,-1,33
 362 78 362 78 381.5 70 c 128,-1,34
 401 62 401 62 417 62 c 0,35,36
 447 62 447 62 467.5 75 c 128,-1,37
 488 88 488 88 501 111 c 1,38,-1
 559 87 l 1,39,40
 539 43 539 43 503 15.5 c 128,-1,41
 467 -12 467 -12 417 -12 c 256,42,43
 367 -12 367 -12 331 15 c 128,-1,44
 295 42 295 42 273 88 c 1,45,46
 254 45 254 45 217 16.5 c 128,-1,47
 180 -12 180 -12 123 -12 c 0,48,49
 98 -12 98 -12 75.5 -2.5 c 128,-1,50
 53 7 53 7 36 25.5 c 128,-1,51
 19 44 19 44 9.5 70.5 c 128,-1,52
 0 97 0 97 0 131 c 1,53,-1
 0 131 l 1,0,1
136 54 m 1,54,55
 166 54 166 54 186.5 65.5 c 128,-1,56
 207 77 207 77 219 94.5 c 128,-1,57
 231 112 231 112 237 133.5 c 128,-1,58
 243 155 243 155 245 174 c 128,-1,59
 247 193 247 193 246.5 207 c 128,-1,60
 246 221 246 221 246 225 c 1,61,62
 205 225 205 225 172 220 c 128,-1,63
 139 215 139 215 115.5 204.5 c 128,-1,64
 92 194 92 194 79.5 176.5 c 128,-1,65
 67 159 67 159 67 133 c 0,66,67
 67 98 67 98 85.5 76 c 128,-1,68
 104 54 104 54 136 54 c 1,69,-1
 136 54 l 1,54,55
308 292 m 1,70,-1
 518 292 l 1,71,72
 517 318 517 318 510 343.5 c 128,-1,73
 503 369 503 369 489.5 388.5 c 128,-1,74
 476 408 476 408 457.5 420 c 128,-1,75
 439 432 439 432 415 432 c 0,76,77
 395 432 395 432 376 424 c 128,-1,78
 357 416 357 416 343 399.5 c 128,-1,79
 329 383 329 383 319.5 356.5 c 128,-1,80
 310 330 310 330 308 292 c 1,81,-1
 308 292 l 1,70,-1
EndSplineSet
Validated: 37
EndChar

StartChar: ccedilla
Encoding: 231 231 167
Width: 576
GlyphClass: 2
Flags: W
LayerCount: 2
Fore
SplineSet
236 -126 m 1,0,1
 262 -140 262 -140 283 -140 c 256,2,3
 304 -140 304 -140 314 -129 c 128,-1,4
 324 -118 324 -118 324 -106 c 0,5,6
 324 -96 324 -96 317.5 -88.5 c 128,-1,7
 311 -81 311 -81 295 -81 c 0,8,9
 286 -81 286 -81 270 -86 c 0,10,11
 259 -90 259 -90 253 -83 c 128,-1,12
 247 -76 247 -76 247 -67 c 0,13,14
 247 -62 247 -62 250 -57 c 2,15,-1
 291 25 l 1,16,-1
 319 4 l 1,17,-1
 294 -45 l 1,18,19
 301 -43 301 -43 307 -42 c 128,-1,20
 313 -41 313 -41 319 -41 c 0,21,22
 347 -41 347 -41 361 -59.5 c 128,-1,23
 375 -78 375 -78 375 -102 c 0,24,25
 375 -116 375 -116 370 -130.5 c 128,-1,26
 365 -145 365 -145 355 -156 c 128,-1,27
 345 -167 345 -167 330 -174 c 128,-1,28
 315 -181 315 -181 296 -181 c 0,29,30
 264 -181 264 -181 225 -161 c 1,31,-1
 236 -126 l 1,32,-1
 236 -126 l 1,33,-1
 236 -126 l 1,0,1
315 504 m 1,34,35
 370 504 370 504 408.5 471 c 128,-1,36
 447 438 447 438 467 392 c 1,37,-1
 404 364 l 1,38,39
 391 394 391 394 366 412 c 128,-1,40
 341 430 341 430 311 430 c 0,41,42
 288 430 288 430 267 419 c 128,-1,43
 246 408 246 408 230 385.5 c 128,-1,44
 214 363 214 363 204.5 328.5 c 128,-1,45
 195 294 195 294 195 247 c 256,46,47
 195 200 195 200 204.5 165.5 c 128,-1,48
 214 131 214 131 230.5 108 c 128,-1,49
 247 85 247 85 267.5 73.5 c 128,-1,50
 288 62 288 62 311 62 c 0,51,52
 344 62 344 62 368 80.5 c 128,-1,53
 392 99 392 99 406 127 c 1,54,-1
 468 99 l 1,55,56
 446 51 446 51 404 19.5 c 128,-1,57
 362 -12 362 -12 308 -12 c 0,58,59
 265 -12 265 -12 230.5 7 c 128,-1,60
 196 26 196 26 171.5 60.5 c 128,-1,61
 147 95 147 95 134 142.5 c 128,-1,62
 121 190 121 190 121 246 c 256,63,64
 121 302 121 302 135 349 c 128,-1,65
 149 396 149 396 174 430.5 c 128,-1,66
 199 465 199 465 235 484.5 c 128,-1,67
 271 504 271 504 315 504 c 1,68,-1
 315 504 l 1,69,-1
 315 504 l 1,34,35
EndSplineSet
Validated: 5
EndChar

StartChar: eth
Encoding: 240 240 176
Width: 576
GlyphClass: 2
Flags: W
LayerCount: 2
Fore
SplineSet
92 218 m 1,0,1
 92 268 92 268 105 310 c 128,-1,2
 118 352 118 352 141 382 c 128,-1,3
 164 412 164 412 195.5 428.5 c 128,-1,4
 227 445 227 445 264 445 c 0,5,6
 317 445 317 445 352 418.5 c 128,-1,7
 387 392 387 392 405 352 c 1,8,9
 401 421 401 421 386 468.5 c 128,-1,10
 371 516 371 516 346 547 c 1,11,-1
 288 474 l 1,12,-1
 259 510 l 1,13,-1
 312 576 l 1,14,15
 290 590 290 590 262.5 596 c 128,-1,16
 235 602 235 602 201 602 c 1,17,-1
 201 679 l 1,18,19
 246 679 246 679 285 669 c 128,-1,20
 324 659 324 659 358 634 c 1,21,-1
 395 680 l 1,22,-1
 423 644 l 1,23,-1
 391 604 l 1,24,25
 413 580 413 580 428.5 546.5 c 128,-1,26
 444 513 444 513 454 473.5 c 128,-1,27
 464 434 464 434 469 390.5 c 128,-1,28
 474 347 474 347 474 303 c 0,29,30
 474 243 474 243 465 186 c 128,-1,31
 456 129 456 129 433.5 85 c 128,-1,32
 411 41 411 41 373.5 14.5 c 128,-1,33
 336 -12 336 -12 280 -12 c 0,34,35
 236 -12 236 -12 202 6.5 c 128,-1,36
 168 25 168 25 143 56.5 c 128,-1,37
 118 88 118 88 105 130 c 128,-1,38
 92 172 92 172 92 218 c 1,39,-1
 92 218 l 1,0,1
280 59 m 1,40,41
 333 59 333 59 364.5 102.5 c 128,-1,42
 396 146 396 146 396 215 c 256,43,44
 396 284 396 284 364.5 327.5 c 128,-1,45
 333 371 333 371 280 371 c 256,46,47
 227 371 227 371 195.5 327.5 c 128,-1,48
 164 284 164 284 164 215 c 256,49,50
 164 146 164 146 195.5 102.5 c 128,-1,51
 227 59 227 59 280 59 c 1,52,-1
 280 59 l 1,40,41
EndSplineSet
Validated: 5
EndChar

StartChar: divide
Encoding: 247 247 183
Width: 576
GlyphClass: 2
Flags: W
LayerCount: 2
Fore
SplineSet
236 418 m 1,0,1
 236 445 236 445 251 464 c 128,-1,2
 266 483 266 483 288 483 c 0,3,4
 309 483 309 483 323.5 464 c 128,-1,5
 338 445 338 445 338 418 c 256,6,7
 338 391 338 391 323.5 372.5 c 128,-1,8
 309 354 309 354 288 354 c 0,9,10
 266 354 266 354 251 372.5 c 128,-1,11
 236 391 236 391 236 418 c 1,12,-1
 236 418 l 1,0,1
236 79 m 1,13,14
 236 105 236 105 251 124 c 128,-1,15
 266 143 266 143 288 143 c 0,16,17
 309 143 309 143 323.5 124 c 128,-1,18
 338 105 338 105 338 79 c 0,19,20
 338 52 338 52 323.5 33 c 128,-1,21
 309 14 309 14 288 14 c 0,22,23
 266 14 266 14 251 33 c 128,-1,24
 236 52 236 52 236 79 c 1,25,-1
 236 79 l 1,13,14
92 208 m 1,26,-1
 92 289 l 1,27,-1
 483 289 l 1,28,-1
 483 208 l 1,29,-1
 92 208 l 1,26,-1
EndSplineSet
Validated: 5
EndChar

StartChar: oslash
Encoding: 248 248 184
Width: 576
GlyphClass: 2
Flags: W
LayerCount: 2
Fore
SplineSet
97 246 m 1,0,1
 97 313 97 313 114 362 c 128,-1,2
 131 411 131 411 158 442.5 c 128,-1,3
 185 474 185 474 219 489 c 128,-1,4
 253 504 253 504 288 504 c 0,5,6
 318 504 318 504 346.5 493.5 c 128,-1,7
 375 483 375 483 400 460 c 1,8,-1
 433 507 l 1,9,-1
 464 474 l 1,10,-1
 431 425 l 1,11,12
 452 394 452 394 465.5 349.5 c 128,-1,13
 479 305 479 305 479 246 c 0,14,15
 479 179 479 179 462 130 c 128,-1,16
 445 81 445 81 418 49.5 c 128,-1,17
 391 18 391 18 356.5 3 c 128,-1,18
 322 -12 322 -12 288 -12 c 0,19,20
 256 -12 256 -12 224 0.5 c 128,-1,21
 192 13 192 13 167 40 c 1,22,-1
 133 -9 l 1,23,-1
 103 24 l 1,24,-1
 138 77 l 1,25,26
 119 108 119 108 108 150 c 128,-1,27
 97 192 97 192 97 246 c 1,28,-1
 97 246 l 1,0,1
209 103 m 1,29,30
 226 82 226 82 246.5 72 c 128,-1,31
 267 62 267 62 288 62 c 0,32,33
 310 62 310 62 331 73 c 128,-1,34
 352 84 352 84 369 106.5 c 128,-1,35
 386 129 386 129 396.5 163.5 c 128,-1,36
 407 198 407 198 407 246 c 0,37,38
 407 281 407 281 401 309 c 128,-1,39
 395 337 395 337 385 359 c 1,40,-1
 209 103 l 1,41,-1
 209 103 l 1,29,30
185 146 m 1,42,-1
 359 398 l 1,43,44
 342 415 342 415 324 422.5 c 128,-1,45
 306 430 306 430 288 430 c 0,46,47
 266 430 266 430 245 419.5 c 128,-1,48
 224 409 224 409 206.5 386.5 c 128,-1,49
 189 364 189 364 178.5 329 c 128,-1,50
 168 294 168 294 168 246 c 0,51,52
 168 216 168 216 172.5 191 c 128,-1,53
 177 166 177 166 185 146 c 1,54,-1
 185 146 l 1,42,-1
EndSplineSet
Validated: 5
EndChar

StartChar: thorn
Encoding: 254 254 190
Width: 576
GlyphClass: 2
Flags: W
LayerCount: 2
Fore
SplineSet
118 -161 m 1,0,-1
 118 669 l 1,1,-1
 185 669 l 1,2,-1
 185 418 l 1,3,4
 203 457 203 457 235 481 c 128,-1,5
 267 505 267 505 314 505 c 0,6,7
 347 505 347 505 378 487.5 c 128,-1,8
 409 470 409 470 432.5 437 c 128,-1,9
 456 404 456 404 470 356 c 128,-1,10
 484 308 484 308 484 246 c 0,11,12
 484 185 484 185 470 137 c 128,-1,13
 456 89 456 89 432.5 56 c 128,-1,14
 409 23 409 23 378 5.5 c 128,-1,15
 347 -12 347 -12 314 -12 c 0,16,17
 267 -12 267 -12 235 12 c 128,-1,18
 203 36 203 36 185 75 c 1,19,-1
 185 -161 l 1,20,-1
 118 -161 l 1,21,-1
 118 -161 l 1,0,-1
296 60 m 1,22,23
 347 60 347 60 378 108.5 c 128,-1,24
 409 157 409 157 409 246 c 256,25,26
 409 335 409 335 378 384 c 128,-1,27
 347 433 347 433 296 433 c 256,28,29
 245 433 245 433 214 384 c 128,-1,30
 183 335 183 335 183 246 c 0,31,32
 183 158 183 158 214 109 c 128,-1,33
 245 60 245 60 296 60 c 1,34,-1
 296 60 l 1,22,23
EndSplineSet
Validated: 5
EndChar

StartChar: aogonek
Encoding: 261 261 197
Width: 576
GlyphClass: 2
Flags: W
LayerCount: 2
Fore
SplineSet
460 0 m 1,0,1
 418 -19 418 -19 403.5 -37.5 c 128,-1,2
 389 -56 389 -56 389 -75 c 0,3,4
 389 -95 389 -95 400.5 -105 c 128,-1,5
 412 -115 412 -115 429 -115 c 0,6,7
 436 -115 436 -115 444 -113.5 c 128,-1,8
 452 -112 452 -112 460 -107 c 1,9,-1
 460 -161 l 1,10,11
 432 -173 432 -173 409 -173 c 0,12,13
 372 -173 372 -173 352.5 -148 c 128,-1,14
 333 -123 333 -123 333 -91 c 0,15,16
 333 -60 333 -60 350 -34.5 c 128,-1,17
 367 -9 367 -9 397 0 c 1,18,-1
 397 0 l 1,19,-1
 460 0 l 1,0,1
377 306 m 1,20,21
 379 369 379 369 357 403 c 128,-1,22
 335 437 335 437 286 437 c 0,23,24
 250 437 250 437 227 416.5 c 128,-1,25
 204 396 204 396 197 360 c 1,26,-1
 132 384 l 1,27,28
 148 441 148 441 189.5 472.5 c 128,-1,29
 231 504 231 504 286 504 c 0,30,31
 369 504 369 504 406.5 456 c 128,-1,32
 444 408 444 408 445 303 c 2,33,-1
 446 187 l 2,34,35
 447 124 447 124 450.5 79.5 c 128,-1,36
 454 35 454 35 460 0 c 1,37,-1
 397 0 l 1,38,-1
 381 68 l 1,39,40
 363 30 363 30 330.5 9 c 128,-1,41
 298 -12 298 -12 244 -12 c 0,42,43
 216 -12 216 -12 191 -2.5 c 128,-1,44
 166 7 166 7 147 25.5 c 128,-1,45
 128 44 128 44 117 70.5 c 128,-1,46
 106 97 106 97 106 131 c 0,47,48
 106 175 106 175 125.5 205 c 128,-1,49
 145 235 145 235 180 254.5 c 128,-1,50
 215 274 215 274 265.5 285.5 c 128,-1,51
 316 297 316 297 377 306 c 1,52,-1
 377 306 l 1,53,-1
 377 306 l 1,20,21
181 133 m 1,54,55
 181 98 181 98 202 76.5 c 128,-1,56
 223 55 223 55 259 55 c 0,57,58
 282 55 282 55 304.5 62.5 c 128,-1,59
 327 70 327 70 344.5 87.5 c 128,-1,60
 362 105 362 105 372.5 134.5 c 128,-1,61
 383 164 383 164 383 208 c 2,62,-1
 383 239 l 1,63,64
 337 233 337 233 299.5 225.5 c 128,-1,65
 262 218 262 218 236 206 c 128,-1,66
 210 194 210 194 195.5 176.5 c 128,-1,67
 181 159 181 159 181 133 c 1,68,-1
 181 133 l 1,69,-1
 181 133 l 1,54,55
EndSplineSet
Validated: 37
EndChar

StartChar: dcroat
Encoding: 273 273 207
Width: 576
GlyphClass: 2
Flags: W
LayerCount: 2
Fore
SplineSet
248 504 m 1,0,1
 295 504 295 504 326 480.5 c 128,-1,2
 357 457 357 457 375 418 c 1,3,-1
 375 548 l 1,4,-1
 246 548 l 1,5,-1
 246 615 l 1,6,-1
 375 615 l 1,7,-1
 375 668 l 1,8,-1
 441 668 l 1,9,-1
 441 615 l 1,10,-1
 506 615 l 1,11,-1
 506 548 l 1,12,-1
 441 548 l 1,13,-1
 441 187 l 2,14,15
 441 162 441 162 442.5 114 c 128,-1,16
 444 66 444 66 455 0 c 1,17,-1
 392 0 l 1,18,-1
 375 75 l 1,19,20
 357 35 357 35 326 11.5 c 128,-1,21
 295 -12 295 -12 248 -12 c 0,22,23
 215 -12 215 -12 184 5.5 c 128,-1,24
 153 23 153 23 130.5 56 c 128,-1,25
 108 89 108 89 94 137 c 128,-1,26
 80 185 80 185 80 246 c 256,27,28
 80 307 80 307 94 355 c 128,-1,29
 108 403 108 403 130.5 436 c 128,-1,30
 153 469 153 469 184 486.5 c 128,-1,31
 215 504 215 504 248 504 c 1,32,-1
 248 504 l 1,0,1
154 246 m 1,33,34
 154 157 154 157 184.5 108.5 c 128,-1,35
 215 60 215 60 265 60 c 0,36,37
 316 60 316 60 346.5 108.5 c 128,-1,38
 377 157 377 157 377 246 c 256,39,40
 377 335 377 335 346.5 383.5 c 128,-1,41
 316 432 316 432 265 432 c 0,42,43
 215 432 215 432 184.5 383.5 c 128,-1,44
 154 335 154 335 154 246 c 1,45,-1
 154 246 l 1,33,34
EndSplineSet
Validated: 5
EndChar

StartChar: eogonek
Encoding: 281 281 213
Width: 576
GlyphClass: 2
Flags: W
LayerCount: 2
Fore
SplineSet
295 504 m 1,0,1
 343 504 343 504 379 480.5 c 128,-1,2
 415 457 415 457 439 418 c 128,-1,3
 463 379 463 379 474 328.5 c 128,-1,4
 485 278 485 278 481 225 c 1,5,-1
 174 225 l 1,6,7
 175 178 175 178 187.5 146.5 c 128,-1,8
 200 115 200 115 218 96.5 c 128,-1,9
 236 78 236 78 257 70 c 128,-1,10
 278 62 278 62 297 62 c 0,11,12
 331 62 331 62 354 75 c 128,-1,13
 377 88 377 88 390 111 c 1,14,-1
 456 87 l 1,15,16
 431 38 431 38 385 11 c 0,17,18
 360 -8 360 -8 345.5 -27.5 c 128,-1,19
 331 -47 331 -47 331 -70 c 0,20,21
 331 -94 331 -94 342.5 -104.5 c 128,-1,22
 354 -115 354 -115 371 -115 c 0,23,24
 378 -115 378 -115 385.5 -113.5 c 128,-1,25
 393 -112 393 -112 402 -107 c 1,26,-1
 402 -161 l 1,27,28
 374 -173 374 -173 351 -173 c 0,29,30
 315 -173 315 -173 295 -147.5 c 128,-1,31
 275 -122 275 -122 275 -85 c 0,32,33
 275 -62 275 -62 281.5 -44 c 128,-1,34
 288 -26 288 -26 299 -12 c 1,35,36
 252 -12 252 -12 215 7 c 128,-1,37
 178 26 178 26 153 60.5 c 128,-1,38
 128 95 128 95 114.5 143 c 128,-1,39
 101 191 101 191 101 247 c 0,40,41
 101 306 101 306 116 353.5 c 128,-1,42
 131 401 131 401 157 434.5 c 128,-1,43
 183 468 183 468 218.5 486 c 128,-1,44
 254 504 254 504 295 504 c 1,45,-1
 295 504 l 1,0,1
410 292 m 1,46,47
 410 318 410 318 401.5 343.5 c 128,-1,48
 393 369 393 369 378.5 388.5 c 128,-1,49
 364 408 364 408 343 420 c 128,-1,50
 322 432 322 432 295 432 c 0,51,52
 273 432 273 432 252 424 c 128,-1,53
 231 416 231 416 214.5 399.5 c 128,-1,54
 198 383 198 383 187.5 356.5 c 128,-1,55
 177 330 177 330 174 292 c 1,56,-1
 410 292 l 1,57,-1
 410 292 l 1,46,47
EndSplineSet
Validated: 37
EndChar

StartChar: uni0123
Encoding: 291 291 221
Width: 576
GlyphClass: 2
Flags: W
LayerCount: 2
Fore
SplineSet
388 523 m 1,0,1
 388 523 388 523 388 523 c 129,-1,2
 388 523 388 523 388 523 c 129,-1,3
 388 523 388 523 388 523 c 129,-1,4
 388 523 388 523 388 523 c 257,5,6
 388 523 388 523 388 523 c 129,-1,7
 388 523 388 523 388 523 c 1,8,-1
 388 523 l 1,9,10
 388 523 388 523 388 523 c 129,-1,11
 388 523 388 523 388 523 c 257,12,13
 388 523 388 523 388 523 c 129,-1,14
 388 523 388 523 388 523 c 1,15,-1
 388 523 l 1,16,-1
 388 523 l 1,17,-1
 388 523 l 1,0,1
262 504 m 1,18,19
 310 504 310 504 340 480.5 c 128,-1,20
 370 457 370 457 388 418 c 1,21,-1
 407 496 l 1,22,-1
 456 496 l 1,23,-1
 456 47 l 2,24,25
 456 10 456 10 454 -23.5 c 128,-1,26
 452 -57 452 -57 442 -85.5 c 128,-1,27
 432 -114 432 -114 412.5 -137 c 128,-1,28
 393 -160 393 -160 359 -176 c 0,29,30
 342 -184 342 -184 323 -188 c 128,-1,31
 304 -192 304 -192 283 -192 c 0,32,33
 259 -192 259 -192 234.5 -185.5 c 128,-1,34
 210 -179 210 -179 189 -165 c 128,-1,35
 168 -151 168 -151 152 -129 c 128,-1,36
 136 -107 136 -107 128 -76 c 1,37,-1
 196 -53 l 1,38,39
 201 -73 201 -73 210.5 -85.5 c 128,-1,40
 220 -98 220 -98 232 -105 c 128,-1,41
 244 -112 244 -112 257.5 -115 c 128,-1,42
 271 -118 271 -118 283 -118 c 0,43,44
 298 -118 298 -118 310 -115 c 128,-1,45
 322 -112 322 -112 328 -110 c 0,46,47
 346 -102 346 -102 357.5 -91 c 128,-1,48
 369 -80 369 -80 376 -63.5 c 128,-1,49
 383 -47 383 -47 385.5 -24.5 c 128,-1,50
 388 -2 388 -2 388 28 c 2,51,-1
 388 94 l 1,52,53
 370 55 370 55 340 32 c 128,-1,54
 310 9 310 9 262 9 c 0,55,56
 229 9 229 9 198.5 25 c 128,-1,57
 168 41 168 41 145 72.5 c 128,-1,58
 122 104 122 104 108 150 c 128,-1,59
 94 196 94 196 94 256 c 256,60,61
 94 316 94 316 108 362 c 128,-1,62
 122 408 122 408 145 439.5 c 128,-1,63
 168 471 168 471 198.5 487.5 c 128,-1,64
 229 504 229 504 262 504 c 1,65,-1
 262 504 l 1,66,-1
 262 504 l 1,18,19
167 256 m 1,67,68
 167 171 167 171 198 125 c 128,-1,69
 229 79 229 79 279 79 c 0,70,71
 301 79 301 79 321.5 89 c 128,-1,72
 342 99 342 99 357 120.5 c 128,-1,73
 372 142 372 142 381.5 175.5 c 128,-1,74
 391 209 391 209 391 256 c 256,75,76
 391 303 391 303 381.5 336.5 c 128,-1,77
 372 370 372 370 357 391 c 128,-1,78
 342 412 342 412 321.5 422 c 128,-1,79
 301 432 301 432 279 432 c 0,80,81
 229 432 229 432 198 386.5 c 128,-1,82
 167 341 167 341 167 256 c 1,83,-1
 167 256 l 1,84,-1
 167 256 l 1,67,68
EndSplineSet
Validated: 5
EndChar

StartChar: Hbar
Encoding: 294 294 222
Width: 576
GlyphClass: 2
Flags: W
LayerCount: 2
Fore
SplineSet
492 504 m 1,0,-1
 492 0 l 1,1,-1
 421 0 l 1,2,-1
 421 303 l 1,3,-1
 154 303 l 1,4,-1
 154 0 l 1,5,-1
 83 0 l 1,6,-1
 83 504 l 1,7,-1
 25 504 l 1,8,-1
 25 583 l 1,9,-1
 83 583 l 1,10,-1
 83 668 l 1,11,-1
 154 668 l 1,12,-1
 154 583 l 1,13,-1
 421 583 l 1,14,-1
 421 668 l 1,15,-1
 492 668 l 1,16,-1
 492 583 l 1,17,-1
 550 583 l 1,18,-1
 550 504 l 1,19,-1
 492 504 l 1,0,-1
154 504 m 1,20,-1
 154 384 l 1,21,-1
 421 384 l 1,22,-1
 421 504 l 1,23,-1
 154 504 l 1,20,-1
EndSplineSet
Validated: 1
EndChar

StartChar: hbar
Encoding: 295 295 223
Width: 576
GlyphClass: 2
Flags: W
LayerCount: 2
Fore
SplineSet
207 548 m 1,0,-1
 207 421 l 1,1,2
 224 456 224 456 254 480 c 128,-1,3
 284 504 284 504 334 504 c 0,4,5
 370 504 370 504 395 490 c 128,-1,6
 420 476 420 476 435.5 451 c 128,-1,7
 451 426 451 426 458 391 c 128,-1,8
 465 356 465 356 465 314 c 2,9,-1
 465 0 l 1,10,-1
 398 0 l 1,11,-1
 398 289 l 2,12,13
 398 318 398 318 395 343.5 c 128,-1,14
 392 369 392 369 383 389 c 128,-1,15
 374 409 374 409 357 420.5 c 128,-1,16
 340 432 340 432 311 432 c 0,17,18
 263 432 263 432 235 390.5 c 128,-1,19
 207 349 207 349 207 269 c 2,20,-1
 207 0 l 1,21,-1
 141 0 l 1,22,-1
 141 548 l 1,23,-1
 73 548 l 1,24,-1
 73 615 l 1,25,-1
 141 615 l 1,26,-1
 141 668 l 1,27,-1
 207 668 l 1,28,-1
 207 615 l 1,29,-1
 334 615 l 1,30,-1
 334 548 l 1,31,-1
 207 548 l 1,32,-1
 207 548 l 1,0,-1
EndSplineSet
Validated: 5
EndChar

StartChar: dotlessi
Encoding: 305 305 228
Width: 576
GlyphClass: 2
Flags: W
LayerCount: 2
Fore
SplineSet
267 429 m 1,0,-1
 211 429 l 1,1,-1
 211 496 l 1,2,-1
 335 496 l 1,3,-1
 335 0 l 1,4,-1
 267 0 l 1,5,-1
 267 429 l 1,0,-1
EndSplineSet
Validated: 1
EndChar

StartChar: Lslash
Encoding: 321 321 235
Width: 576
GlyphClass: 2
Flags: W
LayerCount: 2
Fore
SplineSet
75 287 m 1,0,-1
 147 340 l 1,1,-1
 147 669 l 1,2,-1
 222 669 l 1,3,-1
 222 397 l 1,4,-1
 365 505 l 1,5,-1
 365 434 l 1,6,-1
 222 326 l 1,7,-1
 222 81 l 1,8,-1
 508 81 l 1,9,-1
 508 0 l 1,10,-1
 147 0 l 1,11,-1
 147 270 l 1,12,-1
 75 216 l 1,13,-1
 75 287 l 1,0,-1
EndSplineSet
Validated: 1
EndChar

StartChar: lslash
Encoding: 322 322 236
Width: 576
GlyphClass: 2
Flags: W
LayerCount: 2
Fore
SplineSet
204 312 m 1,0,-1
 247 344 l 1,1,-1
 247 668 l 1,2,-1
 315 668 l 1,3,-1
 315 394 l 1,4,-1
 372 436 l 1,5,-1
 372 365 l 1,6,-1
 315 323 l 1,7,-1
 315 139 l 2,8,9
 315 120 315 120 316 107 c 128,-1,10
 317 94 317 94 321.5 87 c 128,-1,11
 326 80 326 80 334.5 77 c 128,-1,12
 343 74 343 74 357 74 c 2,13,-1
 372 74 l 1,14,-1
 372 0 l 1,15,-1
 343 0 l 2,16,17
 313 0 313 0 294.5 5 c 128,-1,18
 276 10 276 10 265.5 23.5 c 128,-1,19
 255 37 255 37 251 61.5 c 128,-1,20
 247 86 247 86 247 124 c 2,21,-1
 247 273 l 1,22,-1
 204 242 l 1,23,-1
 204 312 l 1,24,-1
 204 312 l 1,0,-1
EndSplineSet
Validated: 5
EndChar

StartChar: OE
Encoding: 338 338 245
Width: 576
GlyphClass: 2
Flags: W
LayerCount: 2
Fore
SplineSet
178 680 m 1,0,1
 224 680 224 680 261 658 c 128,-1,2
 298 636 298 636 326 597 c 1,3,-1
 326 669 l 1,4,-1
 620 669 l 1,5,-1
 620 588 l 1,6,-1
 376 588 l 1,7,-1
 376 385 l 1,8,-1
 556 385 l 1,9,-1
 556 304 l 1,10,-1
 376 304 l 1,11,-1
 376 81 l 1,12,-1
 620 81 l 1,13,-1
 620 0 l 1,14,-1
 326 0 l 1,15,-1
 326 75 l 1,16,17
 298 33 298 33 261 10.5 c 128,-1,18
 224 -12 224 -12 178 -12 c 0,19,20
 129 -12 129 -12 90 14 c 128,-1,21
 51 40 51 40 23.5 86 c 128,-1,22
 -4 132 -4 132 -19 195.5 c 128,-1,23
 -34 259 -34 259 -34 335 c 256,24,25
 -34 411 -34 411 -19 474.5 c 128,-1,26
 -4 538 -4 538 23.5 583.5 c 128,-1,27
 51 629 51 629 90 654.5 c 128,-1,28
 129 680 129 680 178 680 c 1,29,-1
 178 680 l 1,0,1
31 335 m 1,30,31
 31 271 31 271 42.5 221 c 128,-1,32
 54 171 54 171 73.5 137.5 c 128,-1,33
 93 104 93 104 120.5 86.5 c 128,-1,34
 148 69 148 69 178 69 c 0,35,36
 209 69 209 69 235.5 86 c 128,-1,37
 262 103 262 103 282.5 136.5 c 128,-1,38
 303 170 303 170 314.5 219.5 c 128,-1,39
 326 269 326 269 326 334 c 0,40,41
 326 404 326 404 313.5 454.5 c 128,-1,42
 301 505 301 505 280.5 538 c 128,-1,43
 260 571 260 571 233 586.5 c 128,-1,44
 206 602 206 602 178 602 c 0,45,46
 148 602 148 602 120.5 584.5 c 128,-1,47
 93 567 93 567 73.5 533.5 c 128,-1,48
 54 500 54 500 42.5 450 c 128,-1,49
 31 400 31 400 31 335 c 1,50,-1
 31 335 l 1,30,31
EndSplineSet
Validated: 5
EndChar

StartChar: oe
Encoding: 339 339 246
Width: 576
GlyphClass: 2
Flags: W
LayerCount: 2
Fore
SplineSet
155 505 m 1,0,1
 194 505 194 505 231.5 480.5 c 128,-1,2
 269 456 269 456 293 404 c 1,3,4
 316 452 316 452 352 478.5 c 128,-1,5
 388 505 388 505 431 505 c 256,6,7
 474 505 474 505 506 481 c 128,-1,8
 538 457 538 457 558.5 418 c 128,-1,9
 579 379 579 379 588.5 328.5 c 128,-1,10
 598 278 598 278 596 225 c 1,11,-1
 325 225 l 1,12,13
 327 178 327 178 338 146.5 c 128,-1,14
 349 115 349 115 364.5 96.5 c 128,-1,15
 380 78 380 78 398.5 70 c 128,-1,16
 417 62 417 62 434 62 c 0,17,18
 463 62 463 62 483 75 c 128,-1,19
 503 88 503 88 516 111 c 1,20,-1
 573 87 l 1,21,22
 553 44 553 44 518 16 c 128,-1,23
 483 -12 483 -12 434 -12 c 256,24,25
 385 -12 385 -12 349.5 15 c 128,-1,26
 314 42 314 42 293 88 c 1,27,28
 268 37 268 37 231 12.5 c 128,-1,29
 194 -12 194 -12 155 -12 c 0,30,31
 125 -12 125 -12 95 3 c 128,-1,32
 65 18 65 18 41 49.5 c 128,-1,33
 17 81 17 81 2 130 c 128,-1,34
 -13 179 -13 179 -13 246 c 0,35,36
 -13 314 -13 314 2 362.5 c 128,-1,37
 17 411 17 411 41 443 c 128,-1,38
 65 475 65 475 95 490 c 128,-1,39
 125 505 125 505 155 505 c 1,40,-1
 155 505 l 1,0,1
155 62 m 1,41,42
 175 62 175 62 193.5 73 c 128,-1,43
 212 84 212 84 227 106.5 c 128,-1,44
 242 129 242 129 251 163.5 c 128,-1,45
 260 198 260 198 260 246 c 256,46,47
 260 294 260 294 251 329 c 128,-1,48
 242 364 242 364 227 386.5 c 128,-1,49
 212 409 212 409 193.5 420 c 128,-1,50
 175 431 175 431 155 431 c 0,51,52
 136 431 136 431 117.5 420 c 128,-1,53
 99 409 99 409 83.5 386.5 c 128,-1,54
 68 364 68 364 59 329 c 128,-1,55
 50 294 50 294 50 246 c 256,56,57
 50 198 50 198 59 163.5 c 128,-1,58
 68 129 68 129 83.5 106.5 c 128,-1,59
 99 84 99 84 117.5 73 c 128,-1,60
 136 62 136 62 155 62 c 1,61,-1
 155 62 l 1,41,42
533 292 m 1,62,63
 532 319 532 319 525 344 c 128,-1,64
 518 369 518 369 505 389 c 128,-1,65
 492 409 492 409 473.5 421 c 128,-1,66
 455 433 455 433 431 433 c 0,67,68
 412 433 412 433 394 425 c 128,-1,69
 376 417 376 417 361 400 c 128,-1,70
 346 383 346 383 337 356.5 c 128,-1,71
 328 330 328 330 326 292 c 1,72,-1
 533 292 l 1,73,-1
 533 292 l 1,62,63
EndSplineSet
Validated: 37
EndChar

StartChar: Scedilla
Encoding: 350 350 253
Width: 576
GlyphClass: 2
Flags: W
LayerCount: 2
Fore
SplineSet
226 -126 m 1,0,1
 252 -140 252 -140 272 -140 c 0,2,3
 293 -140 293 -140 303 -129 c 128,-1,4
 313 -118 313 -118 313 -106 c 0,5,6
 313 -96 313 -96 306 -88.5 c 128,-1,7
 299 -81 299 -81 284 -81 c 0,8,9
 275 -81 275 -81 260 -86 c 0,10,11
 248 -90 248 -90 242.5 -83 c 128,-1,12
 237 -76 237 -76 237 -67 c 0,13,14
 237 -62 237 -62 240 -57 c 2,15,-1
 280 25 l 1,16,-1
 307 4 l 1,17,-1
 283 -45 l 1,18,19
 290 -43 290 -43 295.5 -42 c 128,-1,20
 301 -41 301 -41 307 -41 c 0,21,22
 335 -41 335 -41 348.5 -59.5 c 128,-1,23
 362 -78 362 -78 362 -102 c 0,24,25
 362 -116 362 -116 357 -130.5 c 128,-1,26
 352 -145 352 -145 342.5 -156 c 128,-1,27
 333 -167 333 -167 318.5 -174 c 128,-1,28
 304 -181 304 -181 285 -181 c 0,29,30
 254 -181 254 -181 215 -161 c 1,31,-1
 226 -126 l 1,32,-1
 226 -126 l 1,33,-1
 226 -126 l 1,0,1
153 172 m 1,34,35
 160 145 160 145 174 125 c 128,-1,36
 188 105 188 105 206.5 92.5 c 128,-1,37
 225 80 225 80 246.5 73.5 c 128,-1,38
 268 67 268 67 290 67 c 0,39,40
 313 67 313 67 335.5 74.5 c 128,-1,41
 358 82 358 82 375 96.5 c 128,-1,42
 392 111 392 111 403 133.5 c 128,-1,43
 414 156 414 156 414 186 c 0,44,45
 414 209 414 209 406.5 226 c 128,-1,46
 399 243 399 243 383.5 256.5 c 128,-1,47
 368 270 368 270 342 281 c 128,-1,48
 316 292 316 292 279 302 c 0,49,50
 248 310 248 310 214.5 321.5 c 128,-1,51
 181 333 181 333 153 354.5 c 128,-1,52
 125 376 125 376 107 411 c 128,-1,53
 89 446 89 446 89 501 c 0,54,55
 89 543 89 543 105.5 576.5 c 128,-1,56
 122 610 122 610 149.5 633 c 128,-1,57
 177 656 177 656 211.5 668 c 128,-1,58
 246 680 246 680 282 680 c 0,59,60
 310 680 310 680 337.5 672.5 c 128,-1,61
 365 665 365 665 389.5 649.5 c 128,-1,62
 414 634 414 634 433.5 610.5 c 128,-1,63
 453 587 453 587 466 555 c 1,64,-1
 398 530 l 1,65,66
 382 565 382 565 349 583 c 128,-1,67
 316 601 316 601 279 601 c 0,68,69
 258 601 258 601 237.5 594.5 c 128,-1,70
 217 588 217 588 200.5 575 c 128,-1,71
 184 562 184 562 174.5 542.5 c 128,-1,72
 165 523 165 523 165 497 c 0,73,74
 165 469 165 469 176.5 451 c 128,-1,75
 188 433 188 433 207 421 c 128,-1,76
 226 409 226 409 250.5 401 c 128,-1,77
 275 393 275 393 301 386 c 0,78,79
 336 377 336 377 370 364 c 128,-1,80
 404 351 404 351 431 329 c 128,-1,81
 458 307 458 307 475 271.5 c 128,-1,82
 492 236 492 236 492 182 c 0,83,84
 492 136 492 136 474.5 99.5 c 128,-1,85
 457 63 457 63 428 38.5 c 128,-1,86
 399 14 399 14 362 1 c 128,-1,87
 325 -12 325 -12 286 -12 c 0,88,89
 254 -12 254 -12 222 -2.5 c 128,-1,90
 190 7 190 7 162.5 26.5 c 128,-1,91
 135 46 135 46 114.5 76 c 128,-1,92
 94 106 94 106 84 146 c 1,93,-1
 153 172 l 1,94,-1
 153 172 l 1,95,-1
 153 172 l 1,34,35
EndSplineSet
Validated: 5
EndChar

StartChar: scedilla
Encoding: 351 351 254
Width: 576
GlyphClass: 2
Flags: W
LayerCount: 2
Fore
SplineSet
230 -126 m 1,0,1
 256 -140 256 -140 277 -140 c 256,2,3
 298 -140 298 -140 308 -129 c 128,-1,4
 318 -118 318 -118 318 -106 c 0,5,6
 318 -96 318 -96 311 -88.5 c 128,-1,7
 304 -81 304 -81 289 -81 c 0,8,9
 280 -81 280 -81 264 -86 c 0,10,11
 252 -90 252 -90 246.5 -83 c 128,-1,12
 241 -76 241 -76 241 -67 c 0,13,14
 241 -62 241 -62 244 -57 c 2,15,-1
 285 25 l 1,16,-1
 312 4 l 1,17,-1
 288 -45 l 1,18,19
 295 -43 295 -43 301 -42 c 128,-1,20
 307 -41 307 -41 312 -41 c 0,21,22
 341 -41 341 -41 354.5 -59.5 c 128,-1,23
 368 -78 368 -78 368 -102 c 0,24,25
 368 -116 368 -116 363.5 -130.5 c 128,-1,26
 359 -145 359 -145 349 -156 c 128,-1,27
 339 -167 339 -167 324 -174 c 128,-1,28
 309 -181 309 -181 290 -181 c 0,29,30
 258 -181 258 -181 218 -161 c 1,31,-1
 230 -126 l 1,32,-1
 230 -126 l 1,33,-1
 230 -126 l 1,0,1
188 142 m 1,34,35
 192 120 192 120 202.5 104 c 128,-1,36
 213 88 213 88 227 78 c 128,-1,37
 241 68 241 68 257 63.5 c 128,-1,38
 273 59 273 59 290 59 c 0,39,40
 308 59 308 59 325 64 c 128,-1,41
 342 69 342 69 355.5 79 c 128,-1,42
 369 89 369 89 377 102.5 c 128,-1,43
 385 116 385 116 385 133 c 0,44,45
 385 167 385 167 366 184 c 128,-1,46
 347 201 347 201 318.5 210.5 c 128,-1,47
 290 220 290 220 257.5 227 c 128,-1,48
 225 234 225 234 196.5 248.5 c 128,-1,49
 168 263 168 263 149 290.5 c 128,-1,50
 130 318 130 318 130 367 c 0,51,52
 130 400 130 400 143.5 426 c 128,-1,53
 157 452 157 452 178.5 469.5 c 128,-1,54
 200 487 200 487 228 496 c 128,-1,55
 256 505 256 505 285 505 c 0,56,57
 333 505 333 505 375 480.5 c 128,-1,58
 417 456 417 456 435 404 c 1,59,-1
 371 375 l 1,60,61
 361 405 361 405 334.5 419.5 c 128,-1,62
 308 434 308 434 280 434 c 0,63,64
 265 434 265 434 250 429.5 c 128,-1,65
 235 425 235 425 224 417 c 128,-1,66
 213 409 213 409 206 396.5 c 128,-1,67
 199 384 199 384 199 368 c 0,68,69
 199 338 199 338 218 324 c 128,-1,70
 237 310 237 310 265.5 301.5 c 128,-1,71
 294 293 294 293 326.5 286 c 128,-1,72
 359 279 359 279 387.5 263 c 128,-1,73
 416 247 416 247 435 218 c 128,-1,74
 454 189 454 189 454 136 c 0,75,76
 454 101 454 101 440.5 73.5 c 128,-1,77
 427 46 427 46 403.5 27 c 128,-1,78
 380 8 380 8 351 -2 c 128,-1,79
 322 -12 322 -12 290 -12 c 0,80,81
 265 -12 265 -12 239 -4.5 c 128,-1,82
 213 3 213 3 190 18 c 128,-1,83
 167 33 167 33 149.5 56.5 c 128,-1,84
 132 80 132 80 122 112 c 1,85,-1
 188 142 l 1,86,-1
 188 142 l 1,87,-1
 188 142 l 1,34,35
EndSplineSet
Validated: 5
EndChar

StartChar: Uogonek
Encoding: 370 370 267
Width: 576
GlyphClass: 2
Flags: W
LayerCount: 2
Fore
SplineSet
349 0 m 1,0,1
 317 -15 317 -15 299.5 -31.5 c 128,-1,2
 282 -48 282 -48 282 -74 c 0,3,4
 282 -95 282 -95 292.5 -105 c 128,-1,5
 303 -115 303 -115 320 -115 c 0,6,7
 326 -115 326 -115 333.5 -113.5 c 128,-1,8
 341 -112 341 -112 349 -107 c 1,9,-1
 349 -161 l 1,10,11
 323 -173 323 -173 300 -173 c 0,12,13
 266 -173 266 -173 247 -148 c 128,-1,14
 228 -123 228 -123 228 -91 c 0,15,16
 228 -55 228 -55 242.5 -33 c 128,-1,17
 257 -11 257 -11 272 0 c 1,18,-1
 272 0 l 1,19,-1
 349 0 l 1,0,1
154 272 m 2,20,21
 154 173 154 173 184.5 121 c 128,-1,22
 215 69 215 69 288 69 c 0,23,24
 362 69 362 69 392 121 c 128,-1,25
 422 173 422 173 422 272 c 2,26,-1
 422 668 l 1,27,-1
 494 668 l 1,28,-1
 494 279 l 2,29,30
 494 206 494 206 483 151.5 c 128,-1,31
 472 97 472 97 447 60.5 c 128,-1,32
 422 24 422 24 383 6 c 128,-1,33
 344 -12 344 -12 288 -12 c 256,34,35
 232 -12 232 -12 193 6 c 128,-1,36
 154 24 154 24 129.5 60.5 c 128,-1,37
 105 97 105 97 93.5 151.5 c 128,-1,38
 82 206 82 206 82 279 c 2,39,-1
 82 668 l 1,40,-1
 154 668 l 1,41,-1
 154 668 l 1,42,-1
 154 272 l 2,20,21
EndSplineSet
Validated: 5
EndChar

StartChar: uogonek
Encoding: 371 371 268
Width: 576
GlyphClass: 2
Flags: W
LayerCount: 2
Fore
SplineSet
126 180 m 1,0,-1
 126 497 l 1,1,-1
 194 497 l 1,2,-1
 194 205 l 2,3,4
 194 176 194 176 196.5 150 c 128,-1,5
 199 124 199 124 208 104.5 c 128,-1,6
 217 85 217 85 233.5 73.5 c 128,-1,7
 250 62 250 62 278 62 c 0,8,9
 326 62 326 62 352.5 103 c 128,-1,10
 379 144 379 144 379 224 c 2,11,-1
 379 497 l 1,12,-1
 447 497 l 1,13,-1
 447 0 l 1,14,15
 406 -19 406 -19 391.5 -37.5 c 128,-1,16
 377 -56 377 -56 377 -75 c 0,17,18
 377 -95 377 -95 388 -105 c 128,-1,19
 399 -115 399 -115 416 -115 c 0,20,21
 424 -115 424 -115 431.5 -113.5 c 128,-1,22
 439 -112 439 -112 447 -107 c 1,23,-1
 447 -161 l 1,24,25
 420 -173 420 -173 396 -173 c 0,26,27
 360 -173 360 -173 340 -148 c 128,-1,28
 320 -123 320 -123 320 -91 c 0,29,30
 320 -54 320 -54 340 -29 c 128,-1,31
 360 -4 360 -4 395 4 c 1,32,-1
 379 72 l 1,33,34
 362 36 362 36 333 12 c 128,-1,35
 304 -12 304 -12 254 -12 c 0,36,37
 220 -12 220 -12 195 2 c 128,-1,38
 170 16 170 16 155 41.5 c 128,-1,39
 140 67 140 67 133 102.5 c 128,-1,40
 126 138 126 138 126 180 c 1,41,-1
 126 180 l 1,0,-1
EndSplineSet
Validated: 5
EndChar

StartChar: florin
Encoding: 402 402 276
Width: 576
GlyphClass: 2
Flags: W
LayerCount: 2
Fore
SplineSet
178 -165 m 1,0,-1
 178 -90 l 1,1,2
 190 -93 190 -93 199 -93 c 0,3,4
 225 -93 225 -93 235.5 -74.5 c 128,-1,5
 246 -56 246 -56 246 -24 c 2,6,-1
 246 429 l 1,7,-1
 178 429 l 1,8,-1
 178 496 l 1,9,-1
 246 496 l 1,10,-1
 246 570 l 2,11,12
 246 608 246 608 250 634 c 128,-1,13
 254 660 254 660 266 676 c 128,-1,14
 278 692 278 692 299 699 c 128,-1,15
 320 706 320 706 354 706 c 2,16,-1
 398 706 l 1,17,-1
 398 635 l 1,18,-1
 355 635 l 2,19,20
 329 635 329 635 321.5 622 c 128,-1,21
 314 609 314 609 314 571 c 2,22,-1
 314 496 l 1,23,-1
 398 496 l 1,24,-1
 398 429 l 1,25,-1
 314 429 l 1,26,-1
 314 -27 l 2,27,28
 314 -70 314 -70 306.5 -98 c 128,-1,29
 299 -126 299 -126 286.5 -142.5 c 128,-1,30
 274 -159 274 -159 257 -166 c 128,-1,31
 240 -173 240 -173 223 -173 c 0,32,33
 201 -173 201 -173 178 -165 c 1,34,-1
 178 -165 l 1,0,-1
EndSplineSet
Validated: 5
EndChar

StartChar: circumflex
Encoding: 710 710 281
Width: 576
GlyphClass: 2
Flags: W
LayerCount: 2
Fore
SplineSet
157 575 m 1,0,-1
 248 676 l 2,1,2
 257 686 257 686 267 690.5 c 128,-1,3
 277 695 277 695 288 695 c 256,4,5
 299 695 299 695 309 690.5 c 128,-1,6
 319 686 319 686 328 676 c 2,7,-1
 419 575 l 1,8,-1
 342 575 l 1,9,-1
 287 636 l 1,10,-1
 233 575 l 1,11,-1
 157 575 l 1,12,-1
 157 575 l 1,0,-1
EndSplineSet
Validated: 5
Substitution2: "'case' Case-Sensitive Forms lookup 1 subtable" circumflex.case
EndChar

StartChar: caron
Encoding: 711 711 282
Width: 576
GlyphClass: 2
Flags: W
LayerCount: 2
Fore
SplineSet
233 689 m 1,0,-1
 287 628 l 1,1,-1
 342 689 l 1,2,-1
 419 689 l 1,3,-1
 328 588 l 2,4,5
 319 578 319 578 309 573.5 c 128,-1,6
 299 569 299 569 288 569 c 256,7,8
 277 569 277 569 267 573.5 c 128,-1,9
 257 578 257 578 248 588 c 2,10,-1
 157 689 l 1,11,-1
 233 689 l 1,12,-1
 233 689 l 1,0,-1
EndSplineSet
Validated: 5
Substitution2: "'case' Case-Sensitive Forms lookup 1 subtable" caron.case
EndChar

StartChar: uni02C9
Encoding: 713 713 283
Width: 576
GlyphClass: 2
Flags: W
LayerCount: 2
Fore
SplineSet
176 668 m 1,0,-1
 400 668 l 1,1,-1
 400 601 l 1,2,-1
 176 601 l 1,3,-1
 176 668 l 1,0,-1
EndSplineSet
Validated: 1
EndChar

StartChar: breve
Encoding: 728 728 284
Width: 576
GlyphClass: 2
Flags: W
LayerCount: 2
Fore
SplineSet
407 689 m 1,0,1
 403 664 403 664 392 642 c 128,-1,2
 381 620 381 620 365.5 603.5 c 128,-1,3
 350 587 350 587 330 578 c 128,-1,4
 310 569 310 569 288 569 c 256,5,6
 266 569 266 569 246.5 578 c 128,-1,7
 227 587 227 587 211 603.5 c 128,-1,8
 195 620 195 620 184 642 c 128,-1,9
 173 664 173 664 169 689 c 1,10,-1
 225 689 l 1,11,12
 232 666 232 666 249 651 c 128,-1,13
 266 636 266 636 288 636 c 0,14,15
 309 636 309 636 326 651 c 128,-1,16
 343 666 343 666 351 689 c 1,17,-1
 407 689 l 1,18,-1
 407 689 l 1,0,1
EndSplineSet
Validated: 5
Substitution2: "'case' Case-Sensitive Forms lookup 1 subtable" breve.case
EndChar

StartChar: dotaccent
Encoding: 729 729 285
Width: 576
GlyphClass: 2
Flags: W
LayerCount: 2
Fore
SplineSet
244 644 m 1,0,1
 244 667 244 667 256.5 682.5 c 128,-1,2
 269 698 269 698 288 698 c 0,3,4
 306 698 306 698 318.5 682.5 c 128,-1,5
 331 667 331 667 331 644 c 256,6,7
 331 621 331 621 318.5 605.5 c 128,-1,8
 306 590 306 590 288 590 c 0,9,10
 269 590 269 590 256.5 605.5 c 128,-1,11
 244 621 244 621 244 644 c 1,12,-1
 244 644 l 1,0,1
EndSplineSet
Validated: 5
Substitution2: "'case' Case-Sensitive Forms lookup 1 subtable" dotaccent.case
EndChar

StartChar: ring
Encoding: 730 730 286
Width: 576
GlyphClass: 2
Flags: W
LayerCount: 2
Fore
SplineSet
288 777 m 1,0,1
 307 777 307 777 322.5 768.5 c 128,-1,2
 338 760 338 760 350 745 c 128,-1,3
 362 730 362 730 368.5 710 c 128,-1,4
 375 690 375 690 375 668 c 256,5,6
 375 646 375 646 368.5 626 c 128,-1,7
 362 606 362 606 350 591 c 128,-1,8
 338 576 338 576 322.5 567.5 c 128,-1,9
 307 559 307 559 288 559 c 256,10,11
 269 559 269 559 252.5 567.5 c 128,-1,12
 236 576 236 576 224 591 c 128,-1,13
 212 606 212 606 205 626 c 128,-1,14
 198 646 198 646 198 668 c 256,15,16
 198 690 198 690 205 710 c 128,-1,17
 212 730 212 730 224 745 c 128,-1,18
 236 760 236 760 252.5 768.5 c 128,-1,19
 269 777 269 777 288 777 c 1,20,-1
 288 777 l 1,0,1
244 668 m 1,21,22
 244 647 244 647 256 632 c 128,-1,23
 268 617 268 617 286 617 c 256,24,25
 304 617 304 617 316 632 c 128,-1,26
 328 647 328 647 328 668 c 256,27,28
 328 689 328 689 316 704 c 128,-1,29
 304 719 304 719 286 719 c 256,30,31
 268 719 268 719 256 704 c 128,-1,32
 244 689 244 689 244 668 c 1,33,-1
 244 668 l 1,21,22
EndSplineSet
Validated: 5
Substitution2: "'case' Case-Sensitive Forms lookup 1 subtable" ring.case
EndChar

StartChar: ogonek
Encoding: 731 731 287
Width: 576
GlyphClass: 2
Flags: W
LayerCount: 2
Fore
SplineSet
289 0 m 1,0,-1
 351 0 l 1,1,2
 310 -19 310 -19 295.5 -37.5 c 128,-1,3
 281 -56 281 -56 281 -75 c 0,4,5
 281 -95 281 -95 292 -105 c 128,-1,6
 303 -115 303 -115 320 -115 c 0,7,8
 328 -115 328 -115 335.5 -113.5 c 128,-1,9
 343 -112 343 -112 351 -107 c 1,10,-1
 351 -161 l 1,11,12
 324 -173 324 -173 300 -173 c 0,13,14
 264 -173 264 -173 244 -148 c 128,-1,15
 224 -123 224 -123 224 -91 c 0,16,17
 224 -60 224 -60 241.5 -34.5 c 128,-1,18
 259 -9 259 -9 289 0 c 1,19,-1
 289 0 l 1,0,-1
EndSplineSet
Validated: 5
EndChar

StartChar: tilde
Encoding: 732 732 288
Width: 576
GlyphClass: 2
Flags: W
LayerCount: 2
Fore
SplineSet
154 577 m 1,0,1
 161 631 161 631 184 656 c 128,-1,2
 207 681 207 681 240 681 c 0,3,4
 257 681 257 681 270 674.5 c 128,-1,5
 283 668 283 668 294 659.5 c 128,-1,6
 305 651 305 651 316 644.5 c 128,-1,7
 327 638 327 638 340 638 c 0,8,9
 352 638 352 638 359 644 c 128,-1,10
 366 650 366 650 372 661 c 0,11,12
 377 672 377 672 383 676 c 128,-1,13
 389 680 389 680 395 680 c 0,14,15
 405 680 405 680 412.5 671 c 128,-1,16
 420 662 420 662 420 649 c 0,17,18
 420 641 420 641 415 628.5 c 128,-1,19
 410 616 410 616 400.5 604 c 128,-1,20
 391 592 391 592 376 583.5 c 128,-1,21
 361 575 361 575 342 575 c 0,22,23
 325 575 325 575 311.5 581.5 c 128,-1,24
 298 588 298 588 286.5 596.5 c 128,-1,25
 275 605 275 605 264 611.5 c 128,-1,26
 253 618 253 618 241 618 c 0,27,28
 211 618 211 618 207 577 c 1,29,-1
 154 577 l 1,30,-1
 154 577 l 1,0,1
EndSplineSet
Validated: 5
Substitution2: "'case' Case-Sensitive Forms lookup 1 subtable" tilde.case
EndChar

StartChar: hungarumlaut
Encoding: 733 733 289
Width: 576
GlyphClass: 2
Flags: W
LayerCount: 2
Fore
SplineSet
163 572 m 1,0,-1
 176 594 l 1,1,-1
 241 695 l 2,2,3
 245 702 245 702 251 705 c 128,-1,4
 257 708 257 708 263 708 c 0,5,6
 276 708 276 708 285 697 c 128,-1,7
 294 686 294 686 294 670 c 0,8,9
 294 663 294 663 292.5 656 c 128,-1,10
 291 649 291 649 285 643 c 2,11,-1
 220 572 l 1,12,-1
 163 572 l 1,13,-1
 163 572 l 1,0,-1
281 572 m 1,14,-1
 294 594 l 1,15,-1
 359 695 l 2,16,17
 363 702 363 702 369 705 c 128,-1,18
 375 708 375 708 382 708 c 0,19,20
 394 708 394 708 403 696.5 c 128,-1,21
 412 685 412 685 412 670 c 0,22,23
 412 663 412 663 410.5 656 c 128,-1,24
 409 649 409 649 404 643 c 2,25,-1
 338 572 l 1,26,-1
 281 572 l 1,27,-1
 281 572 l 1,14,-1
EndSplineSet
Validated: 5
Substitution2: "'case' Case-Sensitive Forms lookup 1 subtable" hungarumlaut.case
EndChar

StartChar: uni0326
Encoding: 806 806 290
Width: 0
GlyphClass: 4
Flags: W
LayerCount: 2
Fore
SplineSet
-226 -216 m 1,0,1
 -214 -216 -214 -216 -198 -214 c 128,-1,2
 -182 -212 -182 -212 -167 -205 c 128,-1,3
 -152 -198 -152 -198 -142 -184 c 128,-1,4
 -132 -170 -132 -170 -132 -147 c 0,5,6
 -132 -127 -132 -127 -143 -109.5 c 128,-1,7
 -154 -92 -154 -92 -182 -82 c 1,8,-1
 -122 -56 l 1,9,10
 -92 -72 -92 -72 -79 -95.5 c 128,-1,11
 -66 -119 -66 -119 -66 -143 c 0,12,13
 -66 -191 -66 -191 -99.5 -220.5 c 128,-1,14
 -133 -250 -133 -250 -186 -250 c 1,15,-1
 -226 -216 l 1,16,-1
 -226 -216 l 1,0,1
EndSplineSet
Validated: 5
EndChar

StartChar: uni0394
Encoding: 916 916 291
Width: 576
GlyphClass: 2
Flags: W
LayerCount: 2
Fore
SplineSet
287 680 m 1,0,-1
 532 0 l 1,1,-1
 43 0 l 1,2,-1
 287 680 l 1,0,-1
438 78 m 1,3,-1
 287 498 l 1,4,-1
 137 78 l 1,5,-1
 438 78 l 1,3,-1
EndSplineSet
Validated: 1
EndChar

StartChar: uni03A9
Encoding: 937 937 292
Width: 576
GlyphClass: 2
Flags: W
LayerCount: 2
Fore
SplineSet
62 0 m 1,0,-1
 62 81 l 1,1,-1
 178 81 l 1,2,-1
 178 130 l 1,3,4
 152 149 152 149 131 175.5 c 128,-1,5
 110 202 110 202 94.5 235 c 128,-1,6
 79 268 79 268 70.5 306 c 128,-1,7
 62 344 62 344 62 385 c 0,8,9
 62 446 62 446 79.5 500 c 128,-1,10
 97 554 97 554 128 594 c 128,-1,11
 159 634 159 634 199.5 657 c 128,-1,12
 240 680 240 680 287 680 c 256,13,14
 334 680 334 680 375 657 c 128,-1,15
 416 634 416 634 446.5 594 c 128,-1,16
 477 554 477 554 494.5 500 c 128,-1,17
 512 446 512 446 512 385 c 0,18,19
 512 344 512 344 503.5 306 c 128,-1,20
 495 268 495 268 480 235 c 128,-1,21
 465 202 465 202 444 175.5 c 128,-1,22
 423 149 423 149 396 130 c 1,23,-1
 396 81 l 1,24,-1
 512 81 l 1,25,-1
 512 0 l 1,26,-1
 331 0 l 1,27,-1
 331 173 l 1,28,29
 358 182 358 182 381 202.5 c 128,-1,30
 404 223 404 223 421 250.5 c 128,-1,31
 438 278 438 278 447 312.5 c 128,-1,32
 456 347 456 347 456 385 c 0,33,34
 456 431 456 431 442.5 471 c 128,-1,35
 429 511 429 511 406 541 c 128,-1,36
 383 571 383 571 352.5 588.5 c 128,-1,37
 322 606 322 606 287 606 c 256,38,39
 252 606 252 606 221.5 588.5 c 128,-1,40
 191 571 191 571 168 541 c 128,-1,41
 145 511 145 511 131.5 471 c 128,-1,42
 118 431 118 431 118 385 c 0,43,44
 118 347 118 347 127.5 312.5 c 128,-1,45
 137 278 137 278 153.5 250.5 c 128,-1,46
 170 223 170 223 193 202.5 c 128,-1,47
 216 182 216 182 243 173 c 1,48,-1
 243 0 l 1,49,-1
 62 0 l 1,50,-1
 62 0 l 1,0,-1
EndSplineSet
Validated: 5
EndChar

StartChar: uni03BC
Encoding: 956 956 293
Width: 576
GlyphClass: 2
Flags: W
LayerCount: 2
Fore
SplineSet
127 -162 m 1,0,-1
 127 497 l 1,1,-1
 195 497 l 1,2,-1
 195 191 l 2,3,4
 195 164 195 164 198 140.5 c 128,-1,5
 201 117 201 117 210.5 99.5 c 128,-1,6
 220 82 220 82 236.5 72 c 128,-1,7
 253 62 253 62 279 62 c 0,8,9
 327 62 327 62 353.5 103 c 128,-1,10
 380 144 380 144 380 224 c 2,11,-1
 380 497 l 1,12,-1
 448 497 l 1,13,-1
 448 0 l 1,14,-1
 397 0 l 1,15,-1
 380 72 l 1,16,17
 372 54 372 54 362.5 38.5 c 128,-1,18
 353 23 353 23 341 12 c 128,-1,19
 329 1 329 1 313.5 -5.5 c 128,-1,20
 298 -12 298 -12 275 -12 c 0,21,22
 250 -12 250 -12 230 2 c 128,-1,23
 210 16 210 16 195 41 c 1,24,-1
 195 -162 l 1,25,-1
 127 -162 l 1,26,-1
 127 -162 l 1,0,-1
EndSplineSet
Validated: 5
EndChar

StartChar: pi
Encoding: 960 960 294
Width: 576
GlyphClass: 2
Flags: W
LayerCount: 2
Fore
SplineSet
69 414 m 1,0,-1
 69 496 l 1,1,-1
 490 496 l 1,2,-1
 490 414 l 1,3,-1
 423 414 l 1,4,-1
 423 139 l 2,5,6
 423 120 423 120 424 107 c 128,-1,7
 425 94 425 94 429 87 c 128,-1,8
 433 80 433 80 441 77 c 128,-1,9
 449 74 449 74 463 74 c 2,10,-1
 490 74 l 1,11,-1
 490 0 l 1,12,-1
 449 0 l 2,13,14
 421 0 421 0 403 5 c 128,-1,15
 385 10 385 10 374.5 23.5 c 128,-1,16
 364 37 364 37 360 61 c 128,-1,17
 356 85 356 85 356 124 c 2,18,-1
 356 414 l 1,19,-1
 200 414 l 1,20,-1
 200 0 l 1,21,-1
 136 0 l 1,22,-1
 136 414 l 1,23,-1
 69 414 l 1,24,-1
 69 414 l 1,0,-1
EndSplineSet
Validated: 5
EndChar

StartChar: endash
Encoding: 8211 8211 295
Width: 576
GlyphClass: 2
Flags: W
LayerCount: 2
Fore
SplineSet
127 287 m 1,0,-1
 449 287 l 1,1,-1
 449 208 l 1,2,-1
 127 208 l 1,3,-1
 127 287 l 1,0,-1
EndSplineSet
Validated: 1
EndChar

StartChar: emdash
Encoding: 8212 8212 296
Width: 576
GlyphClass: 2
Flags: W
LayerCount: 2
Fore
SplineSet
23 287 m 1,0,-1
 553 287 l 1,1,-1
 553 208 l 1,2,-1
 23 208 l 1,3,-1
 23 287 l 1,0,-1
EndSplineSet
Validated: 1
EndChar

StartChar: quoteleft
Encoding: 8216 8216 297
Width: 576
GlyphClass: 2
Flags: W
LayerCount: 2
Fore
SplineSet
235 482 m 1,0,1
 235 494 235 494 239 507 c 2,2,-1
 289 668 l 1,3,-1
 334 668 l 1,4,-1
 296 546 l 1,5,6
 314 542 314 542 326.5 524 c 128,-1,7
 339 506 339 506 339 482 c 0,8,9
 339 455 339 455 324 436.5 c 128,-1,10
 309 418 309 418 288 418 c 0,11,12
 266 418 266 418 250.5 437 c 128,-1,13
 235 456 235 456 235 482 c 1,14,-1
 235 482 l 1,0,1
EndSplineSet
Validated: 5
EndChar

StartChar: quoteright
Encoding: 8217 8217 298
Width: 576
GlyphClass: 2
Flags: W
LayerCount: 2
Fore
SplineSet
235 615 m 1,0,1
 235 642 235 642 250.5 661 c 128,-1,2
 266 680 266 680 287 680 c 0,3,4
 309 680 309 680 324 661 c 128,-1,5
 339 642 339 642 339 616 c 0,6,7
 339 604 339 604 335 591 c 2,8,-1
 285 429 l 1,9,-1
 241 429 l 1,10,-1
 279 552 l 1,11,12
 260 556 260 556 247.5 573.5 c 128,-1,13
 235 591 235 591 235 615 c 1,14,-1
 235 615 l 1,0,1
EndSplineSet
Validated: 5
EndChar

StartChar: quotesinglbase
Encoding: 8218 8218 299
Width: 576
GlyphClass: 2
Flags: W
LayerCount: 2
Fore
SplineSet
235 52 m 1,0,1
 235 79 235 79 250.5 98 c 128,-1,2
 266 117 266 117 287 117 c 0,3,4
 309 117 309 117 324 98 c 128,-1,5
 339 79 339 79 339 53 c 0,6,7
 339 41 339 41 335 28 c 2,8,-1
 285 -134 l 1,9,-1
 241 -134 l 1,10,-1
 279 -11 l 1,11,12
 260 -7 260 -7 247.5 10.5 c 128,-1,13
 235 28 235 28 235 52 c 1,14,-1
 235 52 l 1,0,1
EndSplineSet
Validated: 5
EndChar

StartChar: quotedblleft
Encoding: 8220 8220 300
Width: 576
GlyphClass: 2
Flags: W
LayerCount: 2
Fore
SplineSet
301 482 m 1,0,1
 301 494 301 494 305 507 c 2,2,-1
 355 668 l 1,3,-1
 400 668 l 1,4,-1
 363 546 l 1,5,6
 381 542 381 542 393.5 524 c 128,-1,7
 406 506 406 506 406 482 c 0,8,9
 406 455 406 455 390.5 436.5 c 128,-1,10
 375 418 375 418 354 418 c 0,11,12
 332 418 332 418 316.5 437 c 128,-1,13
 301 456 301 456 301 482 c 1,14,-1
 301 482 l 1,0,1
173 507 m 1,15,-1
 223 668 l 1,16,-1
 268 668 l 1,17,-1
 230 546 l 1,18,19
 248 542 248 542 260.5 524 c 128,-1,20
 273 506 273 506 273 482 c 0,21,22
 273 455 273 455 258 436.5 c 128,-1,23
 243 418 243 418 222 418 c 0,24,25
 200 418 200 418 184.5 437 c 128,-1,26
 169 456 169 456 169 482 c 0,27,28
 169 494 169 494 173 507 c 1,29,-1
 173 507 l 1,15,-1
EndSplineSet
Validated: 5
EndChar

StartChar: quotedblright
Encoding: 8221 8221 301
Width: 576
GlyphClass: 2
Flags: W
LayerCount: 2
Fore
SplineSet
301 615 m 1,0,1
 301 642 301 642 316.5 661 c 128,-1,2
 332 680 332 680 354 680 c 256,3,4
 376 680 376 680 391 661 c 128,-1,5
 406 642 406 642 406 616 c 0,6,7
 406 604 406 604 401 591 c 2,8,-1
 352 429 l 1,9,-1
 307 429 l 1,10,-1
 345 552 l 1,11,12
 326 556 326 556 313.5 573.5 c 128,-1,13
 301 591 301 591 301 615 c 1,14,-1
 301 615 l 1,0,1
221 680 m 1,15,16
 243 680 243 680 258 661 c 128,-1,17
 273 642 273 642 273 616 c 0,18,19
 273 604 273 604 269 591 c 2,20,-1
 219 429 l 1,21,-1
 175 429 l 1,22,-1
 213 552 l 1,23,24
 194 556 194 556 181.5 573.5 c 128,-1,25
 169 591 169 591 169 615 c 0,26,27
 169 642 169 642 184.5 661 c 128,-1,28
 200 680 200 680 221 680 c 1,29,-1
 221 680 l 1,15,16
EndSplineSet
Validated: 5
EndChar

StartChar: quotedblbase
Encoding: 8222 8222 302
Width: 576
GlyphClass: 2
Flags: W
LayerCount: 2
Fore
SplineSet
301 52 m 1,0,1
 301 79 301 79 316.5 98 c 128,-1,2
 332 117 332 117 354 117 c 256,3,4
 376 117 376 117 391 98 c 128,-1,5
 406 79 406 79 406 53 c 0,6,7
 406 41 406 41 401 28 c 2,8,-1
 352 -134 l 1,9,-1
 307 -134 l 1,10,-1
 345 -11 l 1,11,12
 326 -7 326 -7 313.5 10.5 c 128,-1,13
 301 28 301 28 301 52 c 1,14,-1
 301 52 l 1,0,1
221 117 m 1,15,16
 243 117 243 117 258 98 c 128,-1,17
 273 79 273 79 273 53 c 0,18,19
 273 41 273 41 269 28 c 2,20,-1
 219 -134 l 1,21,-1
 175 -134 l 1,22,-1
 213 -11 l 1,23,24
 194 -7 194 -7 181.5 10.5 c 128,-1,25
 169 28 169 28 169 52 c 0,26,27
 169 79 169 79 184.5 98 c 128,-1,28
 200 117 200 117 221 117 c 1,29,-1
 221 117 l 1,15,16
EndSplineSet
Validated: 5
EndChar

StartChar: dagger
Encoding: 8224 8224 303
Width: 576
GlyphClass: 2
Flags: W
LayerCount: 2
Fore
SplineSet
102 496 m 1,0,-1
 255 496 l 1,1,-1
 255 668 l 1,2,-1
 320 668 l 1,3,-1
 320 496 l 1,4,-1
 473 496 l 1,5,-1
 473 416 l 1,6,-1
 320 416 l 1,7,-1
 320 0 l 1,8,-1
 255 0 l 1,9,-1
 255 416 l 1,10,-1
 102 416 l 1,11,-1
 102 496 l 1,0,-1
EndSplineSet
Validated: 1
EndChar

StartChar: daggerdbl
Encoding: 8225 8225 304
Width: 576
GlyphClass: 2
Flags: W
LayerCount: 2
Fore
SplineSet
102 172 m 1,0,-1
 102 251 l 1,1,-1
 255 251 l 1,2,-1
 255 416 l 1,3,-1
 102 416 l 1,4,-1
 102 496 l 1,5,-1
 255 496 l 1,6,-1
 255 668 l 1,7,-1
 320 668 l 1,8,-1
 320 496 l 1,9,-1
 473 496 l 1,10,-1
 473 416 l 1,11,-1
 320 416 l 1,12,-1
 320 251 l 1,13,-1
 473 251 l 1,14,-1
 473 172 l 1,15,-1
 320 172 l 1,16,-1
 320 0 l 1,17,-1
 255 0 l 1,18,-1
 255 172 l 1,19,-1
 102 172 l 1,0,-1
EndSplineSet
Validated: 1
EndChar

StartChar: bullet
Encoding: 8226 8226 305
Width: 576
GlyphClass: 2
Flags: W
LayerCount: 2
Fore
SplineSet
153 254 m 1,0,1
 153 289 153 289 163.5 319 c 128,-1,2
 174 349 174 349 192.5 371.5 c 128,-1,3
 211 394 211 394 235.5 407 c 128,-1,4
 260 420 260 420 287 420 c 0,5,6
 316 420 316 420 340 407 c 128,-1,7
 364 394 364 394 382.5 371.5 c 128,-1,8
 401 349 401 349 411.5 319 c 128,-1,9
 422 289 422 289 422 254 c 0,10,11
 422 220 422 220 411.5 189.5 c 128,-1,12
 401 159 401 159 382.5 136.5 c 128,-1,13
 364 114 364 114 340 101 c 128,-1,14
 316 88 316 88 287 88 c 0,15,16
 260 88 260 88 235.5 101 c 128,-1,17
 211 114 211 114 192.5 136.5 c 128,-1,18
 174 159 174 159 163.5 189.5 c 128,-1,19
 153 220 153 220 153 254 c 1,20,-1
 153 254 l 1,0,1
EndSplineSet
Validated: 5
EndChar

StartChar: ellipsis
Encoding: 8230 8230 306
Width: 576
GlyphClass: 2
Flags: W
LayerCount: 2
Fore
SplineSet
288 117 m 1,0,1
 308 117 308 117 322.5 98 c 128,-1,2
 337 79 337 79 337 52 c 0,3,4
 337 26 337 26 322.5 7 c 128,-1,5
 308 -12 308 -12 288 -12 c 0,6,7
 267 -12 267 -12 253 7 c 128,-1,8
 239 26 239 26 239 52 c 0,9,10
 239 79 239 79 253 98 c 128,-1,11
 267 117 267 117 288 117 c 1,12,-1
 288 117 l 1,0,1
464 117 m 1,13,14
 484 117 484 117 498.5 98 c 128,-1,15
 513 79 513 79 513 52 c 0,16,17
 513 26 513 26 498.5 7 c 128,-1,18
 484 -12 484 -12 464 -12 c 256,19,20
 444 -12 444 -12 429.5 7 c 128,-1,21
 415 26 415 26 415 52 c 0,22,23
 415 79 415 79 429.5 98 c 128,-1,24
 444 117 444 117 464 117 c 1,25,-1
 464 117 l 1,13,14
111 117 m 1,26,27
 132 117 132 117 146.5 98 c 128,-1,28
 161 79 161 79 161 52 c 0,29,30
 161 26 161 26 146.5 7 c 128,-1,31
 132 -12 132 -12 111 -12 c 0,32,33
 91 -12 91 -12 76.5 7 c 128,-1,34
 62 26 62 26 62 52 c 0,35,36
 62 79 62 79 76.5 98 c 128,-1,37
 91 117 91 117 111 117 c 1,38,-1
 111 117 l 1,26,27
EndSplineSet
Validated: 5
EndChar

StartChar: perthousand
Encoding: 8240 8240 307
Width: 576
GlyphClass: 2
Flags: W
LayerCount: 2
Fore
SplineSet
-97 498 m 1,0,1
 -97 536 -97 536 -88.5 569 c 128,-1,2
 -80 602 -80 602 -64.5 626.5 c 128,-1,3
 -49 651 -49 651 -28.5 665.5 c 128,-1,4
 -8 680 -8 680 15 680 c 0,5,6
 39 680 39 680 59 665.5 c 128,-1,7
 79 651 79 651 94.5 626.5 c 128,-1,8
 110 602 110 602 118.5 569 c 128,-1,9
 127 536 127 536 127 498 c 0,10,11
 127 461 127 461 118.5 427.5 c 128,-1,12
 110 394 110 394 94.5 369.5 c 128,-1,13
 79 345 79 345 59 330.5 c 128,-1,14
 39 316 39 316 15 316 c 0,15,16
 -8 316 -8 316 -28.5 330.5 c 128,-1,17
 -49 345 -49 345 -64.5 369.5 c 128,-1,18
 -80 394 -80 394 -88.5 427.5 c 128,-1,19
 -97 461 -97 461 -97 498 c 1,20,-1
 -97 498 l 1,0,1
316 351 m 1,21,22
 339 351 339 351 359.5 337 c 128,-1,23
 380 323 380 323 395 298 c 128,-1,24
 410 273 410 273 419 240 c 128,-1,25
 428 207 428 207 428 169 c 0,26,27
 428 132 428 132 419 99 c 128,-1,28
 410 66 410 66 395 41 c 128,-1,29
 380 16 380 16 359.5 2 c 128,-1,30
 339 -12 339 -12 316 -12 c 256,31,32
 293 -12 293 -12 272.5 2 c 128,-1,33
 252 16 252 16 236.5 41 c 128,-1,34
 221 66 221 66 212.5 99 c 128,-1,35
 204 132 204 132 204 169 c 0,36,37
 204 207 204 207 212.5 240 c 128,-1,38
 221 273 221 273 236.5 298 c 128,-1,39
 252 323 252 323 272.5 337 c 128,-1,40
 293 351 293 351 316 351 c 1,41,-1
 316 351 l 1,21,22
451 169 m 1,42,43
 451 207 451 207 459.5 240 c 128,-1,44
 468 273 468 273 483.5 298 c 128,-1,45
 499 323 499 323 519.5 337 c 128,-1,46
 540 351 540 351 563 351 c 0,47,48
 587 351 587 351 607 337 c 128,-1,49
 627 323 627 323 642.5 298 c 128,-1,50
 658 273 658 273 666.5 240 c 128,-1,51
 675 207 675 207 675 169 c 0,52,53
 675 132 675 132 666.5 99 c 128,-1,54
 658 66 658 66 642.5 41 c 128,-1,55
 627 16 627 16 607 2 c 128,-1,56
 587 -12 587 -12 563 -12 c 0,57,58
 540 -12 540 -12 519.5 2 c 128,-1,59
 499 16 499 16 483.5 41 c 128,-1,60
 468 66 468 66 459.5 99 c 128,-1,61
 451 132 451 132 451 169 c 1,62,-1
 451 169 l 1,42,43
497 169 m 1,63,64
 497 147 497 147 502 127.5 c 128,-1,65
 507 108 507 108 516 93.5 c 128,-1,66
 525 79 525 79 537.5 70.5 c 128,-1,67
 550 62 550 62 563 62 c 0,68,69
 577 62 577 62 589 70.5 c 128,-1,70
 601 79 601 79 610 93.5 c 128,-1,71
 619 108 619 108 624 127.5 c 128,-1,72
 629 147 629 147 629 169 c 0,73,74
 629 192 629 192 624 211.5 c 128,-1,75
 619 231 619 231 610 245.5 c 128,-1,76
 601 260 601 260 589 268.5 c 128,-1,77
 577 277 577 277 563 277 c 0,78,79
 550 277 550 277 537.5 268.5 c 128,-1,80
 525 260 525 260 516 245.5 c 128,-1,81
 507 231 507 231 502 211.5 c 128,-1,82
 497 192 497 192 497 169 c 1,83,-1
 497 169 l 1,63,64
249 169 m 1,84,85
 249 147 249 147 254.5 127.5 c 128,-1,86
 260 108 260 108 269 93.5 c 128,-1,87
 278 79 278 79 290 70.5 c 128,-1,88
 302 62 302 62 316 62 c 256,89,90
 330 62 330 62 342 70.5 c 128,-1,91
 354 79 354 79 362.5 93.5 c 128,-1,92
 371 108 371 108 376.5 127.5 c 128,-1,93
 382 147 382 147 382 169 c 0,94,95
 382 192 382 192 376.5 211.5 c 128,-1,96
 371 231 371 231 362.5 245.5 c 128,-1,97
 354 260 354 260 342 268.5 c 128,-1,98
 330 277 330 277 316 277 c 256,99,100
 302 277 302 277 290 268.5 c 128,-1,101
 278 260 278 260 269 245.5 c 128,-1,102
 260 231 260 231 254.5 211.5 c 128,-1,103
 249 192 249 192 249 169 c 1,104,-1
 249 169 l 1,84,85
-51 498 m 1,105,106
 -51 476 -51 476 -46 456.5 c 128,-1,107
 -41 437 -41 437 -31.5 422.5 c 128,-1,108
 -22 408 -22 408 -10 399.5 c 128,-1,109
 2 391 2 391 15 391 c 0,110,111
 29 391 29 391 41 399.5 c 128,-1,112
 53 408 53 408 62 422.5 c 128,-1,113
 71 437 71 437 76 456.5 c 128,-1,114
 81 476 81 476 81 498 c 256,115,116
 81 520 81 520 76 539.5 c 128,-1,117
 71 559 71 559 62 573.5 c 128,-1,118
 53 588 53 588 41 596.5 c 128,-1,119
 29 605 29 605 15 605 c 0,120,121
 2 605 2 605 -10 596.5 c 128,-1,122
 -22 588 -22 588 -31.5 573.5 c 128,-1,123
 -41 559 -41 559 -46 539.5 c 128,-1,124
 -51 520 -51 520 -51 498 c 1,125,-1
 -51 498 l 1,105,106
-6 0 m 1,126,-1
 283 668 l 1,127,-1
 337 668 l 1,128,-1
 48 0 l 1,129,-1
 -6 0 l 1,126,-1
EndSplineSet
Validated: 5
EndChar

StartChar: guilsinglleft
Encoding: 8249 8249 308
Width: 576
GlyphClass: 2
Flags: W
LayerCount: 2
Fore
SplineSet
188 250 m 1,0,-1
 308 461 l 1,1,-1
 388 461 l 1,2,-1
 267 250 l 1,3,-1
 388 40 l 1,4,-1
 308 40 l 1,5,-1
 188 250 l 1,0,-1
EndSplineSet
Validated: 1
EndChar

StartChar: guilsinglright
Encoding: 8250 8250 309
Width: 576
GlyphClass: 2
Flags: W
LayerCount: 2
Fore
SplineSet
309 250 m 1,0,-1
 188 461 l 1,1,-1
 269 461 l 1,2,-1
 388 250 l 1,3,-1
 269 40 l 1,4,-1
 188 40 l 1,5,-1
 309 250 l 1,0,-1
EndSplineSet
Validated: 1
EndChar

StartChar: fraction
Encoding: 8260 8260 310
Width: 576
GlyphClass: 2
Flags: W
LayerCount: 2
Fore
SplineSet
438 668 m 1,0,-1
 508 668 l 1,1,-1
 137 0 l 1,2,-1
 67 0 l 1,3,-1
 438 668 l 1,0,-1
EndSplineSet
Validated: 1
EndChar

StartChar: Euro
Encoding: 8364 8364 311
Width: 576
GlyphClass: 2
Flags: W
LayerCount: 2
Fore
SplineSet
43 377 m 1,0,-1
 65 428 l 1,1,-1
 113 428 l 1,2,3
 122 486 122 486 141 532.5 c 128,-1,4
 160 579 160 579 187.5 612 c 128,-1,5
 215 645 215 645 251.5 662.5 c 128,-1,6
 288 680 288 680 331 680 c 0,7,8
 391 680 391 680 439 640.5 c 128,-1,9
 487 601 487 601 513 528 c 1,10,-1
 453 500 l 1,11,12
 436 545 436 545 405 573 c 128,-1,13
 374 601 374 601 327 601 c 0,14,15
 276 601 276 601 237 557 c 128,-1,16
 198 513 198 513 184 428 c 1,17,-1
 376 428 l 1,18,-1
 355 377 l 1,19,-1
 178 377 l 1,20,21
 177 367 177 367 177 356 c 128,-1,22
 177 345 177 345 177 334 c 256,23,24
 177 323 177 323 177 312.5 c 128,-1,25
 177 302 177 302 178 291 c 1,26,-1
 318 291 l 1,27,-1
 297 240 l 1,28,-1
 184 240 l 1,29,30
 199 157 199 157 237.5 112 c 128,-1,31
 276 67 276 67 329 67 c 0,32,33
 375 67 375 67 407 94.5 c 128,-1,34
 439 122 439 122 456 167 c 1,35,-1
 515 139 l 1,36,37
 489 64 489 64 439 26 c 128,-1,38
 389 -12 389 -12 325 -12 c 0,39,40
 282 -12 282 -12 246.5 6 c 128,-1,41
 211 24 211 24 184 57 c 128,-1,42
 157 90 157 90 139.5 136.5 c 128,-1,43
 122 183 122 183 113 240 c 1,44,-1
 43 240 l 1,45,-1
 65 291 l 1,46,-1
 109 291 l 1,47,48
 108 302 108 302 108 312.5 c 128,-1,49
 108 323 108 323 108 334 c 256,50,51
 108 345 108 345 108 355.5 c 128,-1,52
 108 366 108 366 109 377 c 1,53,-1
 43 377 l 1,54,-1
 43 377 l 1,0,-1
EndSplineSet
Validated: 5
EndChar

StartChar: uni2113
Encoding: 8467 8467 312
Width: 576
GlyphClass: 2
Flags: W
LayerCount: 2
Fore
SplineSet
148 227 m 1,0,-1
 201 278 l 1,1,-1
 201 507 l 2,2,3
 201 589 201 589 228.5 634.5 c 128,-1,4
 256 680 256 680 319 680 c 0,5,6
 370 680 370 680 397 640.5 c 128,-1,7
 424 601 424 601 424 538 c 0,8,9
 424 494 424 494 414 456.5 c 128,-1,10
 404 419 404 419 384.5 384.5 c 128,-1,11
 365 350 365 350 336.5 317.5 c 128,-1,12
 308 285 308 285 270 251 c 1,13,-1
 270 151 l 2,14,15
 270 124 270 124 274.5 106.5 c 128,-1,16
 279 89 279 89 286.5 79 c 128,-1,17
 294 69 294 69 303.5 65 c 128,-1,18
 313 61 313 61 325 61 c 0,19,20
 346 61 346 61 363.5 72 c 128,-1,21
 381 83 381 83 397 100 c 1,22,-1
 427 42 l 1,23,24
 408 21 408 21 379 4.5 c 128,-1,25
 350 -12 350 -12 316 -12 c 0,26,27
 255 -12 255 -12 228 27.5 c 128,-1,28
 201 67 201 67 201 156 c 2,29,-1
 201 188 l 1,30,-1
 148 138 l 1,31,-1
 148 227 l 1,32,-1
 148 227 l 1,0,-1
270 344 m 1,33,34
 316 383 316 383 337 431 c 128,-1,35
 358 479 358 479 358 535 c 0,36,37
 358 575 358 575 346 592.5 c 128,-1,38
 334 610 334 610 315 610 c 0,39,40
 291 610 291 610 280.5 590.5 c 128,-1,41
 270 571 270 571 270 518 c 2,42,-1
 270 344 l 1,43,-1
 270 344 l 1,33,34
EndSplineSet
Validated: 5
EndChar

StartChar: trademark
Encoding: 8482 8482 313
Width: 576
GlyphClass: 2
Flags: W
LayerCount: 2
Fore
SplineSet
18 668 m 1,0,-1
 238 668 l 1,1,-1
 238 608 l 1,2,-1
 152 608 l 1,3,-1
 152 292 l 1,4,-1
 104 292 l 1,5,-1
 104 608 l 1,6,-1
 18 608 l 1,7,-1
 18 668 l 1,0,-1
344 668 m 1,8,-1
 411 384 l 1,9,-1
 479 668 l 1,10,-1
 557 668 l 1,11,-1
 557 292 l 1,12,-1
 509 292 l 1,13,-1
 509 571 l 1,14,-1
 437 292 l 1,15,-1
 385 292 l 1,16,-1
 314 571 l 1,17,-1
 314 292 l 1,18,-1
 265 292 l 1,19,-1
 265 668 l 1,20,-1
 344 668 l 1,8,-1
EndSplineSet
Validated: 1
EndChar

StartChar: estimated
Encoding: 8494 8494 314
Width: 576
GlyphClass: 2
Flags: W
LayerCount: 2
Fore
SplineSet
86 256 m 1,0,1
 86 300 86 300 100.5 344.5 c 128,-1,2
 115 389 115 389 141.5 424.5 c 128,-1,3
 168 460 168 460 205.5 482 c 128,-1,4
 243 504 243 504 288 504 c 0,5,6
 330 504 330 504 366.5 484 c 128,-1,7
 403 464 403 464 430.5 429 c 128,-1,8
 458 394 458 394 474 347.5 c 128,-1,9
 490 301 490 301 490 248 c 1,10,-1
 169 248 l 1,11,-1
 169 78 l 1,12,13
 193 51 193 51 223 35.5 c 128,-1,14
 253 20 253 20 288 20 c 0,15,16
 328 20 328 20 362.5 41 c 128,-1,17
 397 62 397 62 422 97 c 1,18,-1
 447 87 l 1,19,20
 420 42 420 42 379 15 c 128,-1,21
 338 -12 338 -12 288 -12 c 0,22,23
 252 -12 252 -12 216 5 c 128,-1,24
 180 22 180 22 151 55.5 c 128,-1,25
 122 89 122 89 104 139.5 c 128,-1,26
 86 190 86 190 86 256 c 1,27,-1
 86 256 l 1,0,1
407 279 m 1,28,-1
 407 413 l 1,29,30
 384 441 384 441 353.5 456.5 c 128,-1,31
 323 472 323 472 288 472 c 256,32,33
 253 472 253 472 223 456.5 c 128,-1,34
 193 441 193 441 169 413 c 1,35,-1
 169 279 l 1,36,-1
 407 279 l 1,37,-1
 407 279 l 1,28,-1
EndSplineSet
Validated: 5
EndChar

StartChar: partialdiff
Encoding: 8706 8706 315
Width: 576
GlyphClass: 2
Flags: W
LayerCount: 2
Fore
SplineSet
288 504 m 1,0,1
 300 504 300 504 314.5 501 c 128,-1,2
 329 498 329 498 343 492 c 128,-1,3
 357 486 357 486 370 475.5 c 128,-1,4
 383 465 383 465 393 450 c 1,5,6
 381 498 381 498 359.5 527.5 c 128,-1,7
 338 557 338 557 309 573 c 128,-1,8
 280 589 280 589 244.5 594 c 128,-1,9
 209 599 209 599 170 598 c 1,10,-1
 170 680 l 1,11,12
 194 680 194 680 226 678.5 c 128,-1,13
 258 677 258 677 292 666 c 128,-1,14
 326 655 326 655 359.5 631 c 128,-1,15
 393 607 393 607 419 562 c 128,-1,16
 445 517 445 517 461.5 447.5 c 128,-1,17
 478 378 478 378 478 277 c 0,18,19
 478 269 478 269 477.5 261.5 c 128,-1,20
 477 254 477 254 477 246 c 0,21,22
 476 175 476 175 458.5 126 c 128,-1,23
 441 77 441 77 415 46 c 128,-1,24
 389 15 389 15 355.5 1.5 c 128,-1,25
 322 -12 322 -12 288 -12 c 256,26,27
 254 -12 254 -12 220 3 c 128,-1,28
 186 18 186 18 159 49.5 c 128,-1,29
 132 81 132 81 115.5 130 c 128,-1,30
 99 179 99 179 99 246 c 0,31,32
 99 314 99 314 115.5 362.5 c 128,-1,33
 132 411 132 411 159 442.5 c 128,-1,34
 186 474 186 474 220 489 c 128,-1,35
 254 504 254 504 288 504 c 1,36,-1
 288 504 l 1,0,1
170 246 m 1,37,38
 170 198 170 198 180 163 c 128,-1,39
 190 128 190 128 207.5 105.5 c 128,-1,40
 225 83 225 83 246 72 c 128,-1,41
 267 61 267 61 288 61 c 0,42,43
 310 61 310 61 331 72 c 128,-1,44
 352 83 352 83 368.5 105.5 c 128,-1,45
 385 128 385 128 395.5 163 c 128,-1,46
 406 198 406 198 406 246 c 256,47,48
 406 294 406 294 395.5 329 c 128,-1,49
 385 364 385 364 368.5 386.5 c 128,-1,50
 352 409 352 409 331 419.5 c 128,-1,51
 310 430 310 430 288 430 c 0,52,53
 267 430 267 430 246 419.5 c 128,-1,54
 225 409 225 409 207.5 386.5 c 128,-1,55
 190 364 190 364 180 329 c 128,-1,56
 170 294 170 294 170 246 c 1,57,-1
 170 246 l 1,37,38
EndSplineSet
Validated: 37
EndChar

StartChar: product
Encoding: 8719 8719 316
Width: 576
GlyphClass: 2
Flags: W
LayerCount: 2
Fore
SplineSet
98 -161 m 1,0,-1
 98 668 l 1,1,-1
 478 668 l 1,2,-1
 478 -161 l 1,3,-1
 413 -161 l 1,4,-1
 413 587 l 1,5,-1
 162 587 l 1,6,-1
 162 -161 l 1,7,-1
 98 -161 l 1,0,-1
EndSplineSet
Validated: 1
EndChar

StartChar: summation
Encoding: 8721 8721 317
Width: 576
GlyphClass: 2
Flags: W
LayerCount: 2
Fore
SplineSet
478 668 m 1,0,-1
 478 587 l 1,1,-1
 177 587 l 1,2,-1
 371 254 l 1,3,-1
 177 -80 l 1,4,-1
 478 -80 l 1,5,-1
 478 -161 l 1,6,-1
 97 -161 l 1,7,-1
 97 -80 l 1,8,-1
 292 254 l 1,9,-1
 97 587 l 1,10,-1
 97 668 l 1,11,-1
 478 668 l 1,0,-1
EndSplineSet
Validated: 1
EndChar

StartChar: minus
Encoding: 8722 8722 318
Width: 576
GlyphClass: 2
Flags: W
LayerCount: 2
Fore
SplineSet
92 288 m 1,0,-1
 483 288 l 1,1,-1
 483 209 l 1,2,-1
 92 209 l 1,3,-1
 92 288 l 1,0,-1
EndSplineSet
Validated: 1
EndChar

StartChar: uni2215
Encoding: 8725 8725 319
Width: 576
GlyphClass: 2
Flags: W
LayerCount: 2
Fore
SplineSet
433 669 m 1,0,-1
 512 669 l 1,1,-1
 142 0 l 1,2,-1
 63 0 l 1,3,-1
 433 669 l 1,0,-1
EndSplineSet
Validated: 1
EndChar

StartChar: uni2219
Encoding: 8729 8729 320
Width: 576
GlyphClass: 2
Flags: W
LayerCount: 2
Fore
SplineSet
235 255 m 1,0,1
 235 267 235 267 239 280 c 0,2,3
 246 299 246 299 258.5 309.5 c 128,-1,4
 271 320 271 320 288 320 c 0,5,6
 297 320 297 320 307 315 c 0,7,8
 322 307 322 307 330.5 291 c 128,-1,9
 339 275 339 275 339 256 c 0,10,11
 339 244 339 244 335 231 c 0,12,13
 329 212 329 212 316 201.5 c 128,-1,14
 303 191 303 191 288 191 c 0,15,16
 263 191 263 191 249 211 c 128,-1,17
 235 231 235 231 235 255 c 1,18,-1
 235 255 l 1,0,1
EndSplineSet
Validated: 5
EndChar

StartChar: radical
Encoding: 8730 8730 321
Width: 576
GlyphClass: 2
Flags: W
LayerCount: 2
Fore
SplineSet
183 145 m 1,0,-1
 99 145 l 1,1,-1
 99 225 l 1,2,-1
 228 225 l 1,3,-1
 310 -37 l 1,4,-1
 407 669 l 1,5,-1
 477 669 l 1,6,-1
 357 -161 l 1,7,-1
 279 -161 l 1,8,-1
 183 145 l 1,0,-1
EndSplineSet
Validated: 1
EndChar

StartChar: infinity
Encoding: 8734 8734 322
Width: 576
GlyphClass: 2
Flags: W
LayerCount: 2
Fore
SplineSet
163 406 m 1,0,1
 203 406 203 406 233.5 379 c 128,-1,2
 264 352 264 352 288 317 c 1,3,4
 300 335 300 335 313.5 351 c 128,-1,5
 327 367 327 367 342 379 c 128,-1,6
 357 391 357 391 374.5 398.5 c 128,-1,7
 392 406 392 406 412 406 c 0,8,9
 440 406 440 406 462.5 395 c 128,-1,10
 485 384 485 384 501.5 364 c 128,-1,11
 518 344 518 344 527 316.5 c 128,-1,12
 536 289 536 289 536 256 c 256,13,14
 536 223 536 223 527.5 195 c 128,-1,15
 519 167 519 167 503.5 146.5 c 128,-1,16
 488 126 488 126 466 115 c 128,-1,17
 444 104 444 104 417 104 c 0,18,19
 396 104 396 104 378 111.5 c 128,-1,20
 360 119 360 119 344 132 c 128,-1,21
 328 145 328 145 314.5 162 c 128,-1,22
 301 179 301 179 288 198 c 1,23,24
 275 179 275 179 261 162 c 128,-1,25
 247 145 247 145 231 132 c 128,-1,26
 215 119 215 119 197 111.5 c 128,-1,27
 179 104 179 104 158 104 c 0,28,29
 131 104 131 104 109 115 c 128,-1,30
 87 126 87 126 71.5 146.5 c 128,-1,31
 56 167 56 167 47.5 195 c 128,-1,32
 39 223 39 223 39 256 c 256,33,34
 39 289 39 289 48 316.5 c 128,-1,35
 57 344 57 344 73.5 364 c 128,-1,36
 90 384 90 384 112.5 395 c 128,-1,37
 135 406 135 406 163 406 c 1,38,-1
 163 406 l 1,0,1
99 256 m 1,39,40
 99 224 99 224 116.5 202 c 128,-1,41
 134 180 134 180 161 180 c 0,42,43
 185 180 185 180 205.5 197 c 128,-1,44
 226 214 226 214 252 256 c 1,45,46
 232 288 232 288 211.5 309 c 128,-1,47
 191 330 191 330 163 330 c 0,48,49
 136 330 136 330 117.5 310 c 128,-1,50
 99 290 99 290 99 256 c 1,51,-1
 99 256 l 1,39,40
324 256 m 1,52,53
 350 214 350 214 370 197 c 128,-1,54
 390 180 390 180 414 180 c 0,55,56
 441 180 441 180 458.5 202 c 128,-1,57
 476 224 476 224 476 256 c 0,58,59
 476 290 476 290 457.5 310 c 128,-1,60
 439 330 439 330 412 330 c 256,61,62
 385 330 385 330 364.5 309 c 128,-1,63
 344 288 344 288 324 256 c 1,64,-1
 324 256 l 1,52,53
EndSplineSet
Validated: 5
EndChar

StartChar: integral
Encoding: 8747 8747 323
Width: 576
GlyphClass: 2
Flags: W
LayerCount: 2
Fore
SplineSet
145 -111 m 1,0,1
 145 -91 145 -91 156.5 -76 c 128,-1,2
 168 -61 168 -61 186 -61 c 0,3,4
 203 -61 203 -61 214 -76.5 c 128,-1,5
 225 -92 225 -92 225 -112 c 0,6,7
 225 -122 225 -122 224 -127 c 1,8,9
 232 -127 232 -127 239 -117 c 0,10,11
 245 -109 245 -109 249.5 -89 c 128,-1,12
 254 -69 254 -69 254 -31 c 2,13,-1
 254 464 l 2,14,15
 254 533 254 533 264 576 c 128,-1,16
 274 619 274 619 289.5 642 c 128,-1,17
 305 665 305 665 324 673 c 128,-1,18
 343 681 343 681 361 681 c 0,19,20
 388 681 388 681 409 667.5 c 128,-1,21
 430 654 430 654 430 619 c 0,22,23
 430 598 430 598 418.5 583.5 c 128,-1,24
 407 569 407 569 390 569 c 0,25,26
 372 569 372 569 360.5 584 c 128,-1,27
 349 599 349 599 349 619 c 0,28,29
 349 628 349 628 352 635 c 1,30,31
 343 635 343 635 337 625 c 0,32,33
 330 616 330 616 326 596 c 128,-1,34
 322 576 322 576 322 538 c 2,35,-1
 322 44 l 2,36,37
 322 -26 322 -26 311.5 -68.5 c 128,-1,38
 301 -111 301 -111 286 -134.5 c 128,-1,39
 271 -158 271 -158 251.5 -165.5 c 128,-1,40
 232 -173 232 -173 214 -173 c 0,41,42
 187 -173 187 -173 166 -159.5 c 128,-1,43
 145 -146 145 -146 145 -111 c 1,44,-1
 145 -111 l 1,0,1
EndSplineSet
Validated: 5
EndChar

StartChar: approxequal
Encoding: 8776 8776 324
Width: 576
GlyphClass: 2
Flags: W
LayerCount: 2
Fore
SplineSet
99 309 m 1,0,1
 109 355 109 355 137.5 383 c 128,-1,2
 166 411 166 411 209 411 c 0,3,4
 234 411 234 411 256.5 402.5 c 128,-1,5
 279 394 279 394 298.5 383.5 c 128,-1,6
 318 373 318 373 335.5 364.5 c 128,-1,7
 353 356 353 356 368 356 c 0,8,9
 387 356 387 356 400.5 369 c 128,-1,10
 414 382 414 382 418 407 c 1,11,-1
 476 385 l 1,12,13
 468 339 468 339 439.5 311 c 128,-1,14
 411 283 411 283 368 283 c 0,15,16
 347 283 347 283 326.5 291.5 c 128,-1,17
 306 300 306 300 285.5 310 c 128,-1,18
 265 320 265 320 246.5 328.5 c 128,-1,19
 228 337 228 337 209 337 c 256,20,21
 190 337 190 337 176.5 324.5 c 128,-1,22
 163 312 163 312 159 287 c 1,23,-1
 99 309 l 1,24,-1
 99 309 l 1,0,1
208 225 m 1,25,26
 232 225 232 225 254.5 216.5 c 128,-1,27
 277 208 277 208 297 197.5 c 128,-1,28
 317 187 317 187 334.5 178.5 c 128,-1,29
 352 170 352 170 368 170 c 0,30,31
 386 170 386 170 400 182.5 c 128,-1,32
 414 195 414 195 418 221 c 1,33,-1
 476 199 l 1,34,35
 468 153 468 153 439.5 125 c 128,-1,36
 411 97 411 97 368 97 c 0,37,38
 347 97 347 97 326.5 105.5 c 128,-1,39
 306 114 306 114 285.5 124 c 128,-1,40
 265 134 265 134 246.5 142.5 c 128,-1,41
 228 151 228 151 209 151 c 256,42,43
 190 151 190 151 176.5 138.5 c 128,-1,44
 163 126 163 126 159 101 c 1,45,-1
 99 123 l 1,46,47
 108 169 108 169 136.5 197 c 128,-1,48
 165 225 165 225 208 225 c 1,49,-1
 208 225 l 1,25,26
EndSplineSet
Validated: 5
EndChar

StartChar: notequal
Encoding: 8800 8800 325
Width: 576
GlyphClass: 2
Flags: W
LayerCount: 2
Fore
SplineSet
222 200 m 1,0,-1
 281 307 l 1,1,-1
 92 307 l 1,2,-1
 92 387 l 1,3,-1
 325 387 l 1,4,-1
 386 496 l 1,5,-1
 464 496 l 1,6,-1
 404 387 l 1,7,-1
 483 387 l 1,8,-1
 483 307 l 1,9,-1
 360 307 l 1,10,-1
 300 200 l 1,11,-1
 483 200 l 1,12,-1
 483 121 l 1,13,-1
 257 121 l 1,14,-1
 190 0 l 1,15,-1
 111 0 l 1,16,-1
 178 121 l 1,17,-1
 92 121 l 1,18,-1
 92 200 l 1,19,-1
 222 200 l 1,0,-1
EndSplineSet
Validated: 1
EndChar

StartChar: lessequal
Encoding: 8804 8804 326
Width: 576
GlyphClass: 2
Flags: W
LayerCount: 2
Fore
SplineSet
100 267 m 1,0,-1
 100 337 l 1,1,-1
 476 505 l 1,2,-1
 476 414 l 1,3,-1
 183 302 l 1,4,-1
 476 190 l 1,5,-1
 476 100 l 1,6,-1
 100 267 l 1,0,-1
100 80 m 1,7,-1
 476 80 l 1,8,-1
 476 0 l 1,9,-1
 100 0 l 1,10,-1
 100 80 l 1,7,-1
EndSplineSet
Validated: 1
EndChar

StartChar: greaterequal
Encoding: 8805 8805 327
Width: 576
GlyphClass: 2
Flags: W
LayerCount: 2
Fore
SplineSet
100 505 m 1,0,-1
 476 337 l 1,1,-1
 476 267 l 1,2,-1
 100 100 l 1,3,-1
 100 190 l 1,4,-1
 393 302 l 1,5,-1
 100 414 l 1,6,-1
 100 505 l 1,0,-1
100 0 m 1,7,-1
 100 80 l 1,8,-1
 476 80 l 1,9,-1
 476 0 l 1,10,-1
 100 0 l 1,7,-1
EndSplineSet
Validated: 1
EndChar

StartChar: lozenge
Encoding: 9674 9674 328
Width: 576
GlyphClass: 2
Flags: W
LayerCount: 2
Fore
SplineSet
106 315 m 1,0,-1
 288 703 l 1,1,-1
 470 315 l 1,2,-1
 288 -73 l 1,3,-1
 106 315 l 1,0,-1
400 315 m 1,4,-1
 288 554 l 1,5,-1
 176 315 l 1,6,-1
 288 76 l 1,7,-1
 400 315 l 1,4,-1
EndSplineSet
Validated: 1
EndChar

StartChar: grave.case
Encoding: 65539 -1 329
Width: 576
GlyphClass: 2
Flags: W
LayerCount: 2
Fore
SplineSet
218 864 m 1,0,1
 225 864 225 864 231.5 861.5 c 128,-1,2
 238 859 238 859 243 851 c 2,3,-1
 329 744 l 1,4,-1
 268 744 l 2,5,6
 266 746 266 746 257.5 752 c 128,-1,7
 249 758 249 758 238.5 766 c 128,-1,8
 228 774 228 774 218 782 c 128,-1,9
 208 790 208 790 202 796 c 0,10,11
 189 810 189 810 189 828 c 0,12,13
 189 843 189 843 197.5 853.5 c 128,-1,14
 206 864 206 864 218 864 c 1,15,-1
 218 864 l 1,0,1
EndSplineSet
Validated: 5
EndChar

StartChar: acute.case
Encoding: 65540 -1 330
Width: 576
GlyphClass: 2
Flags: W
LayerCount: 2
Fore
SplineSet
262 744 m 1,0,1
 264 747 264 747 276.5 762.5 c 128,-1,2
 289 778 289 778 303 796 c 128,-1,3
 317 814 317 814 330.5 830.5 c 128,-1,4
 344 847 344 847 349 852 c 0,5,6
 360 864 360 864 372 864 c 256,7,8
 384 864 384 864 392.5 853.5 c 128,-1,9
 401 843 401 843 401 828 c 0,10,11
 401 809 401 809 388 796 c 0,12,13
 384 790 384 790 373.5 782 c 128,-1,14
 363 774 363 774 352.5 766 c 128,-1,15
 342 758 342 758 333.5 752 c 128,-1,16
 325 746 325 746 324 744 c 2,17,-1
 262 744 l 1,18,-1
 262 744 l 1,0,1
EndSplineSet
Validated: 5
EndChar

StartChar: one.tf
Encoding: 65551 -1 341
Width: 576
GlyphClass: 2
Flags: W
LayerCount: 2
Fore
SplineSet
123 571 m 1,0,1
 151 571 151 571 176.5 574.5 c 128,-1,2
 202 578 202 578 222.5 588.5 c 128,-1,3
 243 599 243 599 258.5 618 c 128,-1,4
 274 637 274 637 283 668 c 1,5,-1
 326 668 l 1,6,-1
 326 77 l 1,7,-1
 451 77 l 1,8,-1
 451 0 l 1,9,-1
 123 0 l 1,10,-1
 123 77 l 1,11,-1
 262 77 l 1,12,-1
 262 504 l 1,13,-1
 123 504 l 1,14,-1
 123 571 l 1,15,-1
 123 571 l 1,0,1
EndSplineSet
Validated: 5
Substitution2: "'pnum' Proportional Numbers lookup 4 subtable" one
EndChar

StartChar: ogonek.case
Encoding: 65560 -1 350
Width: 576
GlyphClass: 2
Flags: W
LayerCount: 2
Fore
SplineSet
270 0 m 1,0,-1
 351 0 l 1,1,2
 317 -15 317 -15 299 -31.5 c 128,-1,3
 281 -48 281 -48 281 -74 c 0,4,5
 281 -95 281 -95 292 -105 c 128,-1,6
 303 -115 303 -115 320 -115 c 0,7,8
 328 -115 328 -115 335.5 -113.5 c 128,-1,9
 343 -112 343 -112 351 -107 c 1,10,-1
 351 -161 l 1,11,12
 324 -173 324 -173 300 -173 c 0,13,14
 264 -173 264 -173 244 -148 c 128,-1,15
 224 -123 224 -123 224 -91 c 0,16,17
 224 -55 224 -55 239 -33 c 128,-1,18
 254 -11 254 -11 270 0 c 1,19,-1
 270 0 l 1,0,-1
EndSplineSet
Validated: 5
EndChar

StartChar: caron.salt
Encoding: 65561 -1 351
Width: 576
GlyphClass: 2
Flags: W
LayerCount: 2
Fore
SplineSet
247 495 m 1,0,1
 248 500 248 500 250.5 521 c 128,-1,2
 253 542 253 542 256 567.5 c 128,-1,3
 259 593 259 593 262.5 616.5 c 128,-1,4
 266 640 266 640 268 649 c 0,5,6
 270 657 270 657 276.5 667.5 c 128,-1,7
 283 678 283 678 297 678 c 0,8,9
 312 678 312 678 321.5 664.5 c 128,-1,10
 331 651 331 651 327 629 c 2,11,-1
 287 495 l 1,12,-1
 247 495 l 1,13,-1
 247 495 l 1,0,1
EndSplineSet
Validated: 37
EndChar
